<?xml version="1.0" standalone="no"?>
<!DOCTYPE svg PUBLIC "-//W3C//DTD SVG 1.1//EN" "http://www.w3.org/Graphics/SVG/1.1/DTD/svg11.dtd" >
<svg xmlns="http://www.w3.org/2000/svg" xmlns:xlink="http://www.w3.org/1999/xlink" version="1.1">
<metadata>
Created by FontForge 20201107 at Fri Aug 16 11:33:25 2024
 By 
Copyright (c) 2016 by Roland Huse. Viet hoa by MTD. All rights reserved.
</metadata>
<defs>
<font id="MTD" horiz-adv-x="430" >
  <font-face 
    font-family="MTD Shopping Script"
    font-weight="400"
    font-stretch="normal"
    units-per-em="2048"
    panose-1="2 0 0 0 0 0 0 0 0 0"
    ascent="1006"
    descent="-1042"
    x-height="127"
    cap-height="1178"
    bbox="-694 -885 2339 1634"
    underline-thickness="102"
    underline-position="-307"
    unicode-range="U+0020-2212"
  />
<missing-glyph horiz-adv-x="516" 
 />
    <glyph glyph-name="ll" unicode="ll" horiz-adv-x="868" 
d="M365 416h8q0 -66 -52.5 -135t-118.5 -115t-130 -72q27 -74 129 -74q110 0 270 86q-4 20 -4 44q0 190 123 331q124 142 221 142q72 0 72 -82q0 -91 -101 -222q-104 -135 -272 -221l-6 -4q27 -74 129 -74q118 0 295 101q8 4 10 4q5 0 8 -10q4 -11 -6 -17
q-180 -104 -307 -104q-120 0 -160 88q-163 -88 -278 -88q-78 0 -124 40.5t-46 117.5q0 133 88 237q89 105 178 105q74 0 74 -78zM498 150h-2q0 -21 2 -27q161 84 262 213q98 125 98 209q0 53 -43 53q-91 0 -205 -135q-112 -133 -112 -313zM59 150l2 2q0 -21 2 -27
q43 17 89.5 45t90.5 66t72.5 86t28.5 94q0 49 -45 49q-81 0 -160 -98q-80 -100 -80 -217z" />
    <glyph glyph-name="tt" unicode="tt" horiz-adv-x="868" 
d="M72 352l-6 -8q3 9 12 12h4q6 0 10 -4q7 -7 4 -16l-6 -25q170 24 381 43q3 43 6 60q0 12 12 12q14 0 17 -10v-58q299 23 555 31q9 0 12 -6t0 -12t-12 -6q-322 -11 -553 -31q15 -365 211 -389q9 0 12 -6q3 -7 0 -13t-12 -6q-208 27 -232 352q-12 -41 -28.5 -80.5t-42.5 -85
t-55 -79t-69 -56t-83 -22.5q-44 0 -76 26.5t-47.5 69.5t-22 84t-6.5 82q0 44 4 76q-73 -12 -153 -31q-2 -2 -6 -2q-10 0 -13 12q-3 16 13 19q63 14 164 30q3 26 6 37zM461 326l-2 -4q-166 -14 -379 -46q-4 -66 -4 -79q0 -36 5 -71t17.5 -74t39 -63t63.5 -24q53 0 100 38.5
t78.5 99t51 116t30.5 107.5z" />
    <glyph glyph-name="it" unicode="it" horiz-adv-x="909" 
d="M1212 399l-6 -16q14 0 17 -6q3 -7 -2 -12q-7 -7 -15 -7q-302 -12 -669 -75q-15 -71 -15 -123q0 -201 158 -219q11 0 14 -9t-2 -14q-6 -6 -14 -6q-145 18 -172 164q-74 -42 -179 -72.5t-186 -30.5q-59 0 -86 35q-26 33 -8 92q3 6 10 6h6q14 -3 11 -12q-12 -42 8 -65
q22 -25 61 -25q79 0 182 32t175 75q-2 10 -2 53q0 62 12 117q-256 -46 -401 -80q-2 0 -5 -1t-4 -1q-6 0 -10 4q-7 7 -4 18l10 37q3 12 15 12h4q15 -3 12 -18l-2 -16q214 51 393 79q4 22 12 47q3 10 13 13q1 0 3 1t3 1q4 0 8 -4q7 -7 4 -15q-3 -13 -6 -32q374 61 657 73z" />
    <glyph glyph-name="jt" unicode="jt" horiz-adv-x="884" 
d="M1171 399l-6 -20q14 0 17 -6q4 -7 -2 -13t-15 -6q-302 -12 -669 -75q-15 -71 -15 -123q0 -201 158 -219q11 0 14 -9t-2 -14q-6 -6 -14 -6q-143 18 -178 166q-143 -34 -297 -109q18 -49 18 -102q0 -92 -48 -177t-130 -137.5t-174 -52.5q-90 0 -90 94q0 56 41 118
t107 115.5t123.5 92t113.5 68.5q-26 56 -80 104q-6 8 4 18q7 7 12 7t7 -2q59 -53 86 -111q148 76 307 115q-2 10 -2 49q0 62 12 117q-256 -46 -401 -80q-2 0 -5 -1t-4 -1q-6 0 -10 4q-7 7 -4 18l10 37q3 12 15 12h4q15 -3 12 -18l-2 -16q214 51 393 79q4 22 12 47
q3 10 13 13q1 0 3 1t3 1q4 0 8 -4q7 -7 4 -15q-3 -13 -6 -32q374 61 657 73zM154 -141l2 2q0 34 -17 90q-50 -25 -106.5 -62t-119.5 -86.5t-103.5 -107.5t-40.5 -109q0 -65 61 -65q129 0 226.5 104.5t97.5 233.5z" />
    <glyph glyph-name=".notdef" horiz-adv-x="516" 
 />
    <glyph glyph-name="uni0000" horiz-adv-x="0" 
 />
    <glyph glyph-name="uni0000" horiz-adv-x="0" 
 />
    <glyph glyph-name="nonmarkingreturn" horiz-adv-x="681" 
 />
    <glyph glyph-name="space" unicode=" " horiz-adv-x="516" 
 />
    <glyph glyph-name="exclam" unicode="!" horiz-adv-x="565" 
d="M268 139l90 756q3 12 15 12h4q15 -3 12 -18l-88 -756q-3 -8 -12 -8q-21 0 -21 14zM225 -6h-2q-14 0 -14 12q0 25 65 25q17 0 17 -13t-17 -16z" />
    <glyph glyph-name="quotedbl" unicode="&#x22;" horiz-adv-x="593" 
d="M238 971l53 166q3 6 10 6h6q13 -3 10 -19l-51 -166q-3 -8 -12 -8q-8 0 -14 6q-5 5 -2 15zM297 909l76 230q6 8 18 8q13 -3 10 -17l-75 -233q-3 -8 -13 -8q-8 0 -14 6q-5 5 -2 14z" />
    <glyph glyph-name="numbersign" unicode="#" horiz-adv-x="475" 
d="M229 49l13 27l-37 -2l-21 -47q-3 -9 -12 -9q-8 0 -12 7q-3 6 0 14l14 33l-80 -4q-8 0 -14 6q-5 5 -2 14q3 8 12 8l98 4l21 43l-64 -4q-9 0 -12 6q-3 7 0 13t12 6l76 4l29 61q3 9 12 9q7 0 14 -7q6 -6 3 -14l-23 -47l35 2l33 72q3 8 10 8q6 0 12 -6t2 -13l-26 -57l92 6
q9 0 12 -6t0 -12t-12 -6l-105 -6l-18 -43l55 4q8 0 12 -7q3 -6 0 -14t-12 -8l-74 -4l-18 -43q-3 -6 -10 -6t-13 6q-5 5 -2 12zM238 145l-19 -43l37 2l18 43z" />
    <glyph glyph-name="dollar" unicode="$" horiz-adv-x="614" 
d="M555 997l-6 -6q13 0 16 -6q3 -7 -2 -12q-6 -6 -14 -6q-85 0 -152 -66t-67 -151q0 -116 76 -265q73 -146 73 -249q0 -302 -416 -302q-9 0 -12 9t2 14q6 6 13 6q387 0 387 273q0 91 -70 237q-80 165 -80 277q0 96 78 171.5t174 75.5zM418 1014l12 192q3 14 10 17q7 4 13 -2
t6 -15l-13 -192q0 -10 -8 -13h-14q-6 3 -6 13zM225 -225l11 149q2 4 10 8q6 3 12 0t6 -12l-10 -149q0 -13 -10 -13q-4 0 -6 2q-13 3 -13 15z" />
    <glyph glyph-name="ampersand" unicode="&#x26;" horiz-adv-x="741" 
d="M745 -154l5 -12q9 0 12 -8q3 -9 -2 -14q-7 -7 -15 -7q-120 15 -232.5 81.5t-186.5 164.5q-125 -58 -185 -61q-59 0 -59 47q0 59 147 203q-22 86 -22 170q0 66 38.5 141t103.5 128.5t132 53.5q48 0 79.5 -29.5t31.5 -76.5q0 -70 -131 -201q-41 -40 -129 -123l-72 -65
q27 -77 74 -148l59 29q204 94 258 94t66 -41q12 -42 -27 -78q-6 -3 -12 0q-4 2 -8 10q-3 6 0 13q22 22 16 45q-6 24 -37 24q-43 0 -243 -90q-16 -8 -56 -24q74 -90 177 -149.5t218 -76.5zM238 406l-2 -3q0 -77 18 -145q5 5 59 55q72 65 95 86q52 46 105.5 111.5t53.5 105.5
q0 35 -23.5 58.5t-58.5 23.5q-91 0 -169 -99t-78 -193zM139 14l2 -2q51 3 166 56q-46 70 -67 137q-129 -126 -129 -172q0 -19 28 -19z" />
    <glyph glyph-name="quotesingle" unicode="'" horiz-adv-x="516" 
d="M236 936l55 201q3 6 10 6h6q13 -3 10 -19l-53 -200q-3 -9 -12 -9q-7 0 -14 7q-5 5 -2 14z" />
    <glyph glyph-name="parenleft" unicode="(" horiz-adv-x="581" 
d="M324 979l-5 -8q5 8 15 8q6 0 8 -2q13 -6 4 -21q-78 -104 -124 -283t-46 -329q0 -129 41 -281.5t111 -242.5q6 -6 2 -13q-3 -6 -13 -6q-8 0 -14 6q-71 91 -113.5 250t-42.5 291q0 147 49.5 335t127.5 296z" />
    <glyph glyph-name="parenright" unicode=")" horiz-adv-x="661" 
d="M254 1030h-12q-13 10 0 23q6 6 12 6q7 0 10 -6q58 -58 95.5 -230t37.5 -286q0 -170 -58.5 -358t-160.5 -304l-8 -4q-1 0 -3 1t-3 1q-6 3 -6 10q0 5 4 13q100 115 156.5 296t56.5 347q0 108 -34 275t-87 216z" />
    <glyph glyph-name="asterisk" unicode="*" horiz-adv-x="602" 
d="M348 889l-129 -117q-6 -6 -12 -6q-5 0 -12 10q-3 14 6 17l121 110l-107 35q-6 3 -6 12q0 7 4 15q4 7 10 4l113 -37l4 61q0 15 14 15q15 0 15 -13l-4 -67q16 2 96 16q26 5 54.5 10.5t31.5 6.5q9 0 12 -7q3 -6 0 -14t-8 -8l-184 -31l39 -82q3 -6 0 -12t-11 -6q-7 0 -10 6z
" />
    <glyph glyph-name="plus" unicode="+" horiz-adv-x="620" 
d="M432 238l-110 -5l-9 -104q-3 -12 -10 -12q-4 0 -12 4q-9 3 -6 12l8 103l-121 4q-15 3 -12 18q3 8 10 12l123 -4l10 109q3 11 12 14h4q7 0 11 -4q6 -7 4 -14l-10 -107l108 -2q9 0 12 -6t0 -12t-12 -6z" />
    <glyph glyph-name="comma" unicode="," horiz-adv-x="389" 
d="M199 43l4 4q3 6 10 6h6q13 -3 10 -18q-27 -73 -86 -135q-2 -4 -8 -4t-10 4q-9 9 0 20q47 53 74 123z" />
    <glyph glyph-name="hyphen" unicode="-" horiz-adv-x="577" 
d="M403 168h-221q-14 0 -14 14q0 15 12 15h223q13 0 13 -15q0 -14 -13 -14z" />
    <glyph glyph-name="period" unicode="." horiz-adv-x="389" 
d="M207 4l-45 -4q-9 0 -12 6t0 12q4 7 12 7l39 6h4q11 0 14 -13q3 -14 -12 -14z" />
    <glyph glyph-name="slash" unicode="/" horiz-adv-x="778" 
d="M-109 -193l977 1254q4 4 11 4q6 0 8 -4q9 -9 0 -19l-977 -1253q-4 -4 -10 -4q-7 0 -9 4q-9 9 0 18z" />
    <glyph glyph-name="zero" unicode="0" horiz-adv-x="489" 
d="M350 635l4 -2h4q7 0 11 -4q7 -7 4 -15q-3 -9 -13 -12q-69 -16 -131 -91.5t-95.5 -165.5t-33.5 -161q0 -116 90 -116q68 0 115.5 46t66.5 107t19 127q0 132 -61 193q-9 9 0 20q6 6 10 6t8 -4q70 -70 70 -215q0 -54 -13 -106t-39 -98t-71 -74.5t-102 -28.5q-119 0 -119 145
q0 77 35 173.5t101 177.5t140 98z" />
    <glyph glyph-name="one" unicode="1" horiz-adv-x="659" 
d="M-61 -141l-13 -2q-7 -7 -12 -4q-8 4 -10 8q-3 6 0 12q99 151 318 338t388 270q6 3 13 0q5 -3 8 -8t0 -8q-111 -144 -111 -289q0 -9 -6 -12t-12 0t-6 12q0 131 75 252q-165 -93 -348.5 -257t-283.5 -312z" />
    <glyph glyph-name="two" unicode="2" horiz-adv-x="698" 
d="M147 406l3 -7q-4 -4 -11 -4q-2 0 -10 4q-12 9 -6 19q85 110 199 110q35 0 60 -25t28 -59q3 -109 -279 -370q276 82 537 209q6 3 12 0t6 -11q0 -7 -8 -12q-323 -161 -606 -233h-6q-6 0 -9 6q-3 9 4 16q323 285 320 395q-3 23 -20 41.5t-39 18.5q-99 0 -175 -98z" />
    <glyph glyph-name="three" unicode="3" horiz-adv-x="686" 
d="M70 418l-2 -6q-6 -6 -13 -6q-4 0 -6 2q-9 6 -6 16q18 37 64.5 68.5t87.5 31.5t53 -24q11 -22 -17 -58q120 19 222 19q231 0 231 -105q0 -75 -227 -241q-230 -168 -396 -234h-4q-8 0 -12 4q-7 7 -4 15q3 10 8 12q160 56 383 221t223 227q0 76 -202 76q-125 0 -258 -26h-7
q-9 0 -12 6q-3 9 6 18q60 63 13 66q-35 0 -70 -24t-55 -58z" />
    <glyph glyph-name="four" unicode="4" horiz-adv-x="638" 
d="M541 590l2 -6q4 4 12 4h4q10 -3 10 -8q0 -6 -6 -15q-229 -272 -381 -418q253 134 369 134q55 0 55 -45q0 -71 -137 -199q-6 -3 -12 0q-4 2 -8 10q-3 6 0 12q129 120 129 179q0 16 -27 16q-140 0 -500 -213q-2 -2 -8 -2q-7 0 -10 8q-6 13 2 21l8 4q137 90 498 518z" />
    <glyph glyph-name="five" unicode="5" horiz-adv-x="665" 
d="M606 530l-8 13h4q11 0 14 -13q3 -15 -12 -18q-174 -55 -272 -96l-45 -17q15 -6 65 -6h41h60q159 0 159 -69t-196 -136q-194 -67 -373 -79q-5 0 -8 6t0 12t12 6q158 12 350 74q191 62 191 115q0 36 -129 36h-60h-26q-88 0 -115 17q-9 6 -6 18q3 13 18 19q8 2 78 28
q147 58 258 90z" />
    <glyph glyph-name="six" unicode="6" horiz-adv-x="516" 
d="M588 578l-2 -9q14 0 14 -14t-12 -14q-81 0 -206.5 -66t-223 -162t-97.5 -170q0 -88 105 -88q70 0 138.5 60t68.5 129q0 86 -76 86q-57 0 -100 -43q-4 -4 -9 -4q-1 0 -3 1t-3 1q-8 3 -8 10q0 4 4 12q54 51 121 51q51 0 76.5 -31t25.5 -83q0 -77 -78.5 -145t-156.5 -68
q-59 0 -96 28.5t-37 85.5q0 76 102 181q88 90 221 171t232 81z" />
    <glyph glyph-name="seven" unicode="7" horiz-adv-x="735" 
d="M694 305l-30 -4q-34 -75 -111 -178q-4 -4 -14 -4q-11 4 -13 8q-3 6 0 14q69 90 103 160l-119 -16q-12 0 -12 18q0 7 10 10l135 19q14 32 14 61q0 76 -116 76q-80 0 -226.5 -66t-259.5 -133q-1 0 -3 -1t-3 -1q-6 0 -10 6t-4 11q0 7 6 10q123 72 268 136.5t230 64.5
q145 0 145 -105q0 -17 -10 -59l20 4q9 3 13 -4q3 -6 0 -15t-13 -12z" />
    <glyph glyph-name="eight" unicode="8" horiz-adv-x="497" 
d="M227 49l-6 -8q-70 0 -134 36.5t-64 100.5q0 34 32 66q48 48 166 110q-14 22 -14 43q0 49 48 90t97 41q56 0 56 -55q0 -49 -140 -127q7 -6 29.5 -23t36.5 -28q12 -8 61 -43q25 -17 44.5 -43.5t19.5 -52.5q0 -32 -26.5 -55t-67 -33.5t-74.5 -14.5t-64 -4zM221 70l4 -2
q26 0 53 2t65.5 9t62.5 24t24 42q0 39 -108 119q-58 40 -80 62q-2 -2 -6 -2q-16 -8 -39 -20.5t-31 -16.5q-39 -19 -77 -51t-38 -60q0 -34 31 -59.5t68.5 -36t70.5 -10.5zM240 391h-2q0 -16 12 -31q131 73 131 107q0 27 -27 27q-38 0 -76 -33t-38 -70z" />
    <glyph glyph-name="nine" unicode="9" horiz-adv-x="536" 
d="M524 539l-4 -11q8 -3 8 -12q0 -8 -6 -14q-7 -7 -12 -4q-27 6 -55 6q-34 0 -89.5 -15t-104 -45t-48.5 -63q0 -14 25 -14q49 0 132.5 34t137.5 68q2 2 8 2t8 -4q6 -9 0 -25q-72 -151 -199.5 -278t-277.5 -197q-1 0 -3 -1t-3 -1q-6 0 -10 6.5t-4 12.5q0 9 8 12
q278 129 448 428q-153 -78 -243 -78q-54 0 -54 43q0 42 55.5 80t119.5 57t106 19q30 0 57 -6z" />
    <glyph glyph-name="colon" unicode=":" horiz-adv-x="389" 
d="M207 4l-45 -4q-9 0 -12 6t0 12q4 7 12 7l39 6h4q11 0 14 -13q3 -14 -12 -14zM211 264h-2l8 4q6 0 10 -8q6 -12 -2 -20q-18 -15 -57 -15q-10 0 -10 15q0 14 12 14q24 0 41 10z" />
    <glyph glyph-name="semicolon" unicode=";" horiz-adv-x="389" 
d="M217 262h-2l8 4q6 0 10 -8q6 -12 -2 -20q-18 -15 -57 -15q-10 0 -10 15q0 14 12 14q24 0 41 10zM197 43l4 4q3 6 10 6h6q13 -3 10 -18q-27 -73 -86 -135q-2 -4 -8 -4t-10 4q-9 9 0 20q47 53 74 123z" />
    <glyph glyph-name="less" unicode="&#x3c;" horiz-adv-x="475" 
d="M166 190l110 39q4 2 9 2q7 0 10 -10q3 -15 -8 -20l-74 -31l106 -35q10 -3 7 -16t-15 -10l-143 49q-12 3 -12 16t10 16z" />
    <glyph glyph-name="equal" unicode="=" horiz-adv-x="577" 
d="M416 215l-209 -4q-9 0 -12 6t0 12q3 7 12 7l209 4q8 0 12 -7q3 -6 0 -12t-12 -6zM387 137l-192 -2q-9 0 -15 6q-5 5 -2 15q3 8 12 8l197 2q9 0 12 -6t0 -15q-3 -8 -12 -8z" />
    <glyph glyph-name="greater" unicode="&#x3e;" horiz-adv-x="475" 
d="M145 211l5 -4q-7 3 -7 10q0 5 7 12t12 4l137 -65q9 -3 6 -12q-3 -10 -12 -13l-119 -30q-8 0 -14 5.5t-6 12.5t10 10l84 23q-63 30 -103 47z" />
    <glyph glyph-name="question" unicode="?" horiz-adv-x="456" 
d="M61 215l-2 4q-3 -8 -10 -8q-6 0 -8 2q-12 6 -6 18q29 62 106.5 145t130.5 83q45 0 45 -58q0 -36 -45 -110q-34 -58 -34 -80q0 -25 53 -37q10 -3 10 -12q0 -19 -20 -19q-74 18 -74 66q0 30 39 92q41 74 41 98q0 29 -17 29q-44 0 -113.5 -78.5t-95.5 -134.5zM348 68h-29
q-14 0 -14 14t12 14h29q14 0 14 -14t-12 -14z" />
    <glyph glyph-name="at" unicode="@" horiz-adv-x="657" 
d="M350 178l-4 -6q4 4 10 4q9 0 11 -4q9 -9 0 -18q-16 -19 -48 -29q-20 -4 -28 -4q-9 0 -29 4q-26 9 -26 43q0 41 27.5 68.5t68.5 27.5q34 0 82 -45q42 -39 63 -39q31 0 50.5 23.5t19.5 54.5q0 41 -33 71t-74.5 42t-81.5 12q-104 0 -183 -70.5t-79 -173.5q0 -83 63.5 -135.5
t147.5 -52.5q53 0 115 24t98 60q10 10 17 6q6 -3 6 -12q0 -11 -2 -15q-38 -43 -105.5 -68.5t-128.5 -25.5q-97 0 -169 61t-72 156q0 117 86.5 195t205.5 78q47 0 95.5 -15t86.5 -50.5t38 -84.5q0 -43 -27.5 -74.5t-69.5 -31.5q-33 0 -86 47q-40 37 -61 37q-29 0 -47.5 -18.5
t-18.5 -47.5q3 -22 25 -22q1 0 4.5 1t5.5 1q33 7 47 26z" />
    <glyph glyph-name="A" unicode="A" horiz-adv-x="1400" 
d="M1456 121l-2 -4q4 2 8 2q6 0 8 -2q7 -3 7 -13q0 -8 -7 -12q-107 -76 -264 -76q-129 0 -201.5 72t-86.5 203q-119 -72 -371 -254q-268 -197 -385 -197q-90 0 -90 90q0 65 63.5 179.5t158.5 237.5t173.5 215.5t140.5 158.5q43 46 119.5 124t184 182.5t199 177.5t124.5 73
q66 0 25 -86q-11 -26 -74 -137q-46 -81 -72.5 -130.5t-63.5 -129t-57.5 -140.5t-35.5 -137.5t-15 -148.5v-27q239 133 422 133q12 0 12 -14q0 -15 -14 -15q-177 0 -418 -137q27 -260 264 -260q144 0 248 72zM528 61h-2q272 201 383 263v41q0 272 244 704q85 152 82 174
q0 8 -10 8q-45 0 -226 -166q-104 -95 -242 -237.5t-293 -319.5t-260.5 -342.5t-105.5 -255.5q0 -61 62 -61q112 0 368 192z" />
    <glyph glyph-name="B" unicode="B" horiz-adv-x="1705" 
d="M565 754q-2 -2 -6 -6.5t-6 -6.5q2 0 6 -4q10 -10 4 -18q-123 -131 -254 -419.5t-131 -453.5q0 -53 45 -53q120 0 397 91.5t484 176.5q65 26 158.5 69t223 108.5t217 133.5t87.5 115q0 60 -100 84q-162 37 -383 37h-150q-174 0 -299 10q-18 1 -36.5 4t-42.5 9.5t-39 19.5
t-15 31q0 53 225 203q130 86 221 164q84 72 84 122q0 33 -75 33q-116 0 -338 -70t-400.5 -144.5t-326.5 -145.5q-68 -33 -149 -75t-199.5 -114t-210 -140t-158 -147t-66.5 -141q0 -27 19 -49q6 -9 4 -14q-3 -6 -8 -6t-13 4q-28 28 -28 67q0 65 66.5 146.5t159.5 152.5
t212 144.5t203 118t153 77.5q151 72 332.5 147.5t409 147.5t344.5 72q104 0 104 -61q0 -92 -200 -230q-165 -113 -199 -135q-20 -14 -64 -45q-34 -24 -51 -45q-14 -17 -14 -31q0 -28 102 -37q91 -8 305 -8h160q401 0 477 -84q25 -28 25 -61q0 -56 -96.5 -132.5t-230 -145.5
t-295.5 -138.5t-271 -111t-178 -64.5q-384 -129 -518 -129q-36 0 -54 23t-18 61q0 162 131.5 455.5t251.5 424.5q-4 0 -12 -4q4 4 6 4z" />
    <glyph glyph-name="C" unicode="C" horiz-adv-x="1536" 
d="M2044 766l-6 -4q6 -6 6 -14q0 -10 -6 -13t-17 4q-157 121 -469 121q-296 0 -642.5 -147.5t-583.5 -356.5q-238 -209 -238 -370q0 -71 54 -122.5t123.5 -73t137.5 -21.5q253 0 600 105t584 243q4 2 10 2q7 0 9 -2q6 -3 6 -13q0 -9 -6 -12q-242 -139 -593.5 -245.5
t-606.5 -106.5q-56 0 -115 15.5t-112 45t-86.5 79t-33.5 110.5q0 129 148 289q152 164 384 305t489.5 225t473.5 84q322 0 490 -127z" />
    <glyph glyph-name="D" unicode="D" horiz-adv-x="1705" 
d="M647 686l-10 -2q6 6 14 6q11 -4 11 -10q0 -5 -3 -14q-73 -81 -191.5 -232.5t-233.5 -331.5t-115 -249q0 -32 14.5 -42t48.5 -10q218 0 493 89t503 212q70 38 141 85t150.5 113.5t140 134.5t100 150.5t39.5 159.5q0 79 -45.5 140t-113 96t-155.5 57t-161.5 29.5
t-143.5 7.5q-383 0 -745 -98q-56 -15 -119 -35.5t-145 -53t-156.5 -69.5t-149 -85t-128.5 -98.5t-87.5 -113t-33.5 -125.5q0 -69 53 -96q17 -6 6 -20q-7 -7 -18 -7q-70 37 -70 121q0 169 232 336q171 124 413.5 211t481.5 125.5t466 38.5q61 0 125.5 -6.5t141 -20.5
t143 -41.5t122 -65.5t88 -96.5t32.5 -130.5q0 -80 -40 -165t-101 -155.5t-142 -139t-153.5 -117t-145.5 -88.5q-234 -128 -510 -217.5t-502 -89.5q-48 0 -70 17.5t-22 64.5q0 71 116.5 254.5t239 340t195.5 236.5z" />
    <glyph glyph-name="E" unicode="E" horiz-adv-x="1298" 
d="M1083 1178l9 -9q9 0 12 -6q3 -7 -2 -12q-6 -6 -15 -6q-14 2 -63 2q-90 0 -190.5 -15.5t-206 -45t-201 -79t-171.5 -112.5t-120.5 -150t-44.5 -186q0 -58 26.5 -99.5t71 -63t92.5 -31t103 -9.5q203 0 371 86q6 3 12 0t6 -10t-8 -12q-234 -176 -234 -375q0 -58 46 -92.5
t106 -34.5q167 0 356.5 55t313.5 148q8 4 10 4q1 0 3 -1t3 -1q6 -3 6 -12t-6 -15q-127 -95 -322 -151t-366 -56q-73 0 -126.5 43t-53.5 113q0 165 162 330q-130 -46 -271 -49q-64 0 -118.5 10.5t-106 34.5t-81.5 72t-30 116q0 90 35 171t94.5 142.5t139 113t168 87t182 60
t179.5 36t163 11.5q53 0 67 -2z" />
    <glyph glyph-name="F" unicode="F" horiz-adv-x="1386" 
d="M225 133l-4 -8q15 0 15 -12t-13 -15q-80 3 -133 65t-53 144q0 55 26 109.5t65 96.5t93.5 83t101.5 68.5t99 52.5q237 117 547 191.5t592 102t577 27.5q16 0 16 -14t-14 -14q-395 0 -787.5 -53t-707.5 -169q-68 -25 -131 -53t-148.5 -75.5t-147 -97.5t-105 -116.5
t-43.5 -134.5t44 -121.5t111 -56.5zM582 172l-2 -6h-7q-9 0 -12 8q-3 13 6 19q74 44 260 90q9 78 46 247.5t63 178.5h4q6 0 10 -4q7 -7 4 -19q-64 -162 -94 -393q382 94 725 100q9 0 12 -6t0 -12t-10 -6q-346 -6 -729 -101q-10 -110 -10 -159q0 -67 10 -105q2 -7 -4 -14
q-6 -6 -14 -6q-10 0 -13 10q-10 38 -10 112q0 87 8 152q-179 -51 -243 -86z" />
    <glyph glyph-name="G" unicode="G" horiz-adv-x="1619" 
d="M1313 641l-6 -6q-13 -3 -13 12t11 19q82 16 146.5 79t64.5 144q0 53 -38.5 94t-96.5 63t-114.5 33t-103.5 11q-205 0 -408 -71.5t-356 -201.5q-133 -114 -223 -261t-90 -298q0 -91 49 -148t139 -57q139 0 363 51q221 48 317 48q211 0 269 -162l450 133q16 0 19 -12
q3 -13 -9 -19l-221 -65q-4 -1 -16 -4.5t-36 -11t-46 -13.5q-82 -24 -129 -39q14 -46 14 -119q0 -162 -141 -309q-129 -135 -316 -221t-368 -86q-70 0 -120 46.5t-50 115.5q0 78 55 151q27 36 67.5 71.5t81.5 65t100.5 60.5t105 53.5t116.5 49.5t112 42.5t113.5 39t101 32.5
t93.5 29q-52 143 -239 143q-93 0 -310 -47q-224 -51 -372 -51q-102 0 -160 63.5t-58 167.5q0 147 86 301q98 174 262.5 303t359 194.5t396.5 65.5q54 0 115.5 -13t122.5 -38t101 -72t40 -106q0 -89 -70 -158.5t-161 -91.5zM1217 -164h-5q0 68 -14 111q-197 -61 -346 -117
q-222 -85 -329 -146q-249 -142 -249 -305q0 -57 43.5 -95t102.5 -38q92 0 200 28.5t212.5 83.5t191 125.5t140 163.5t53.5 189z" />
    <glyph glyph-name="H" unicode="H" horiz-adv-x="1705" 
d="M997 1016l2 -8q3 9 13 12q4 2 8 2t6 -2q7 -3 4 -12q-54 -247 -133 -480q163 27 313 27q104 0 172 -8q127 347 246 577q3 9 12 9q10 0 13 -7q3 -6 0 -14q-104 -194 -242 -567q147 -15 309 -56q17 -3 11 -18t-19 -12q-160 40 -311 55q-138 -387 -168 -598q0 -9 -8 -12
q-1 0 -3 -1t-3 -1q-5 0 -9 4q-6 6 -4 14q30 215 168 596q-65 8 -162 8q-160 0 -325 -28q-343 -949 -899 -949q-78 0 -134.5 52.5t-56.5 130.5q0 83 78 202q78 118 191.5 219.5t244.5 174.5t270.5 123.5t280.5 76.5q82 236 135 490zM-12 -426l-8 -4q97 0 188.5 31.5t165 83
t142 126.5t121 153t101 172.5t82.5 176t66 170.5q-201 -38 -403.5 -129t-346.5 -217q-45 -40 -87 -84t-87 -100.5t-72.5 -117t-27.5 -111.5q0 -65 49.5 -107.5t116.5 -42.5z" />
    <glyph glyph-name="I" unicode="I" horiz-adv-x="1550" 
d="M330 236l-6 4q9 0 12 -9q3 -8 0 -14t-12 -6q-96 13 -158 67t-62 146q0 108 123 240q206 221 545 367.5t639 146.5q98 0 163.5 -58.5t65.5 -154.5q0 -84 -43 -198.5t-113 -231.5t-163.5 -232t-189 -204t-194.5 -144t-177 -55q-182 0 -182 151q0 83 53 181t121 157q2 2 6 2
q6 0 8 -2q10 -3 12 -8q3 -5 -4 -12q-66 -61 -115 -150.5t-49 -167.5q0 -123 154 -123q64 0 144.5 41t155.5 105.5t134 125t105 117.5q70 86 136 189.5t121.5 233.5t55.5 221q0 85 -57.5 135.5t-143.5 50.5q-268 0 -572.5 -118.5t-510.5 -299.5q-197 -173 -197 -309
q0 -83 54.5 -128.5t140.5 -55.5z" />
    <glyph glyph-name="J" unicode="J" horiz-adv-x="2048" 
d="M225 377l-6 -2q8 -3 8 -13q0 -8 -6 -14q-7 -7 -12 -4q-131 43 -131 166q0 111 84 227q68 94 172 168.5t218.5 122t246 78.5t251.5 44t238 13q172 0 280.5 -87.5t108.5 -254.5q0 -414 -159 -786q247 43 583 86h4q11 0 11 -12q0 -15 -11 -19q-309 -37 -602 -86
q-67 -149 -158.5 -281.5t-208.5 -244t-250 -192t-290 -126t-322 -45.5q-74 0 -130.5 20t-94 69t-37.5 124q0 70 42 137t109.5 121.5t167 106.5t199 91t223 76.5t221 62.5t211 49t175 35.5t129.5 23.5q166 371 166 792q0 155 -99.5 236.5t-259.5 81.5q-233 0 -468.5 -50.5
t-403.5 -156.5q-57 -36 -107.5 -78.5t-98 -96.5t-75.5 -117.5t-28 -127.5q0 -100 110 -137zM272 -860l2 2q160 0 312 43.5t281.5 120.5t244 184.5t204 234.5t157.5 271q-89 -16 -168 -31.5t-234 -51.5t-280 -73.5t-271.5 -94.5t-246 -117t-167 -139.5t-67.5 -162.5
q0 -96 66 -141t167 -45z" />
    <glyph glyph-name="K" unicode="K" horiz-adv-x="1423" 
d="M449 844l2 -4q3 6 10 6q4 0 6 -2q9 -6 6 -15q-116 -241 -321 -809q65 51 149 111q115 83 197 148q238 183 352 266q76 55 119.5 86t133 92.5t152.5 99.5t152 87t158 77t144 48t136 20q177 0 281.5 -72t154.5 -238q3 -7 -4 -14q-6 -6 -14 -6q-9 0 -12 10q-64 153 -156 222
t-252 69q-224 0 -614 -252q-307 -201 -666 -479q35 -63 62 -105t66 -85.5t80 -68t98.5 -40.5t127.5 -16q203 0 484 139q2 2 8 2q7 0 10 -8q6 -13 -6 -19q-283 -143 -496 -143q-134 0 -239.5 64t-171.5 184q-1 2 -16.5 29.5t-26.5 47.5l-29 -22q-27 -21 -76.5 -58.5
t-118.5 -89t-122 -88t-62 -36.5q-6 0 -10 2q-14 6 -8 24q187 535 332 836z" />
    <glyph glyph-name="L" unicode="L" horiz-adv-x="1566" 
d="M805 1194l-2 -4q3 15 16 12t10 -18q-68 -239 -174 -482t-257 -482.5t-316 -401.5q682 82 1038 153q351 70 504 148q4 2 8 2t6 -2q7 -3 7 -13q0 -9 -9 -12q-281 -163 -1575 -307q-26 0 -26 18q0 9 4 13q256 256 454.5 624t311.5 752z" />
    <glyph glyph-name="M" unicode="M" horiz-adv-x="1794" 
d="M-246 846l-16 -2q3 10 12 10q8 0 14 -6q7 -7 5 -14q-7 -22 -74 -191q-211 -521 -211 -686q0 -92 57 -92q80 0 238 223q173 243 319 475q109 168 123 189q66 98 106 157t101 140t119 147q95 115 170 115q98 0 98 -215q0 -170 -80 -639q-65 -369 -65 -484q0 -84 22 -84
q30 0 197 256q95 148 190 271q21 26 35 42.5t40 42t51.5 39t49.5 13.5q84 0 84 -199q0 -13 -4 -127t-4 -137q0 -168 55 -168q50 0 134 35q112 45 323 162h4q10 0 13 -6q6 -8 -5 -19q-45 -25 -106 -58.5t-76 -41.5q-66 -37 -148 -68.5t-136 -31.5q-84 0 -84 196q0 13 4 127
t4 137q0 170 -56 170q-60 0 -159 -131q-86 -114 -178 -260q-173 -268 -222 -268q-51 0 -51 112q0 101 66 488q80 460 80 633q0 186 -70 186q-42 0 -102 -57q-64 -60 -154 -185q-114 -155 -334 -491q-150 -236 -328 -481q-91 -119 -140 -165q-67 -63 -111 -63q-86 0 -86 121
q0 73 38 204.5t80 238.5q48 119 99 253q47 115 69 187z" />
    <glyph glyph-name="N" unicode="N" horiz-adv-x="1470" 
d="M-72 -238l-12 -16q9 -12 -4 -18q-2 -2 -8 -2q-7 0 -13 6q-36 56 -36 153q0 111 54 265.5t120.5 280.5t140.5 237q27 41 64 92t93.5 119.5t109.5 123t110.5 92.5t99.5 38q37 0 66 -19q39 -27 65 -111t35 -155q22 -195 27 -266q6 -90 26 -275q12 -112 54 -213
q35 -88 112 -88q92 0 164 96q71 96 105 235.5t34 280.5q0 98 -14 164q-3 6 4 13q4 4 10 4h4q10 -3 13 -13q14 -66 14 -165q0 -153 -37 -295q-14 -56 -37.5 -111.5t-59 -110.5t-86.5 -89.5t-108 -34.5q-40 0 -72.5 23.5t-52.5 57.5t-35 81t-21.5 82.5t-10.5 74.5
q-23 218 -27 287v-2q-2 36 -5.5 81.5t-4.5 53.5q-15 200 -55 313q-28 80 -95 80q-99 0 -284 -215q-77 -89 -158 -210.5t-154 -258t-120 -279t-47 -251.5q0 -87 32 -136z" />
    <glyph glyph-name="O" unicode="O" horiz-adv-x="1294" 
d="M496 565l-15 -2q-3 -6 -10 -6q-6 0 -8 2q-11 6 -8 16q89 162 205.5 237t300.5 75q77 0 138.5 -48.5t92.5 -119.5t31 -146q0 -280 -211 -473q-210 -192 -535 -192q-183 0 -303.5 124t-120.5 308q0 161 74.5 310t194.5 255t275.5 169t313.5 63q50 0 86 -4q10 0 13 -9
q3 -8 0 -14t-13 -6q-36 4 -79 4q-153 0 -302.5 -61t-265 -162.5t-187 -245.5t-71.5 -299q0 -171 114.5 -287t285.5 -116q312 0 514 184t202 450q0 68 -26 132t-80.5 108.5t-124.5 44.5q-172 0 -285 -68t-196 -223z" />
    <glyph glyph-name="P" unicode="P" horiz-adv-x="944" 
d="M559 801q4 -2 10 -8q7 -7 4 -15q-111 -283 -178 -467q209 29 413 106t357 195q156 120 156 246q0 47 -16.5 85.5t-43.5 65t-65 47t-78 32.5t-86 19.5t-85 10t-79 2.5q-195 0 -444.5 -61.5t-489.5 -172t-387 -241.5q-159 -141 -159 -276q0 -36 25 -62t64 -39t75.5 -18.5
t70.5 -5.5q29 0 43 2h4q12 0 15 -10q3 -14 -13 -17q-16 -2 -47 -2t-64 4t-69.5 15.5t-64.5 28t-46 44t-18 62.5q0 69 41.5 141t102 129.5t141 113t147 92t131.5 66.5q219 100 483 171t470 71q51 0 100.5 -4.5t106.5 -16t104.5 -33t87 -52.5t62 -78.5t22.5 -106.5
q0 -63 -40.5 -127.5t-100.5 -115t-137 -97.5t-142.5 -77.5t-124.5 -51.5q-219 -80 -418 -104q-106 -299 -116 -373q-3 -9 -13 -12q-10 0 -14 4q-6 7 -4 14q10 75 110 363q-40 -4 -86 -4q-147 0 -147 118q0 63 37 115q8 8 12 8l8 -4q12 -9 4 -20q-32 -43 -32 -99
q0 -90 118 -90q53 0 99 4q9 26 72.5 200t95.5 273q4 11 14 11z" />
    <glyph glyph-name="Q" unicode="Q" horiz-adv-x="1234" 
d="M1085 1077l-4 -2q10 -3 13 -12q2 -7 -4 -14q-5 -5 -15 -5q-80 17 -129 17q-140 0 -296 -69t-282 -177.5t-209 -253.5t-83 -285q0 -128 80.5 -224.5t205.5 -96.5q50 0 125 10q-38 83 -38 191q0 149 49 292.5t145 241.5q69 71 158.5 124.5t169.5 53.5q117 0 167 -56.5
t50 -176.5q0 -126 -58.5 -244.5t-153 -206t-211 -149t-237.5 -86.5q123 -248 418 -248q36 0 101 8h4q6 0 10 -4q7 -7 4 -14q-3 -10 -12 -13q-65 -8 -105 -8q-153 0 -267.5 68.5t-178.5 204.5q-73 -13 -137 -13q-136 0 -226 105t-90 244q0 181 139 376q132 184 342 311.5
t420 127.5q55 0 135 -17zM475 154l-4 -4q0 -95 39 -183q117 23 230.5 82t205.5 143.5t148.5 199t56.5 237.5q0 104 -42.5 154.5t-143.5 50.5q-68 0 -150 -46q-169 -93 -254.5 -261t-85.5 -373z" />
    <glyph glyph-name="R" unicode="R" horiz-adv-x="1730" 
d="M633 831l-2 5q3 6 10 6q6 0 8 -2q11 -6 8 -19q-103 -236 -204 -514q-94 -259 -111 -348q-3 -9 -12 -12q-2 -2 -8 -2q-5 0 -7 2q-7 3 -4 12q18 93 113 350q91 246 209 522zM-391 383l-6 -6q-3 -9 -13 -12q-10 0 -14 4q-7 7 -4 16q25 92 137 207q209 215 522.5 344
t614.5 129q40 0 85 -10t88 -29.5t71 -55t28 -79.5q0 -51 -37.5 -123t-79.5 -121q-9 -11 -25 -29.5t-43.5 -49.5t-51.5 -58l-40 -46t-39 -45t-28 -32q-37 -42 -72.5 -108t-35.5 -109q0 -80 88 -147q89 -68 282 -68q340 0 750 168q4 2 8 2q7 0 10 -12q3 -10 -12 -19
q-401 -168 -756 -168q-213 0 -307 76t-94 166q0 50 34.5 116.5t75.5 112.5q9 10 46.5 54.5t66.5 78.5q32 32 139 158q95 112 95 201q0 39 -25 69.5t-64 46t-78 23.5t-75 8q-212 0 -432.5 -64t-401.5 -177q-56 -35 -113.5 -78t-122 -99t-111.5 -118.5t-60 -116.5z" />
    <glyph glyph-name="S" unicode="S" horiz-adv-x="1390" 
d="M1606 975l-2 -10q2 -8 -5 -15q-4 -4 -8 -4q-1 0 -3 1t-3 1q-9 3 -12 13q-37 122 -130.5 191t-221.5 69q-162 0 -366.5 -55t-373.5 -134q-49 -23 -99 -52t-109.5 -72t-104.5 -87.5t-75 -99.5t-30 -107q0 -22 19 -41q42 -42 252 -65q22 -2 43.5 -3.5t43 -2.5t30.5 -2
l129 -6q132 -6 254 -15q133 -9 226 -29t179 -71q68 -41 68 -123q0 -90 -111 -201q-104 -104 -260.5 -183t-288.5 -79q-61 0 -96 32.5t-35 92.5q0 122 131 232q4 4 10 4q10 0 13 -11q3 -9 -6 -12q-119 -98 -119 -211q0 -46 27.5 -71t74.5 -25q76 0 184.5 40t208 100.5
t170 141.5t70.5 154q0 144 -319 184q-134 15 -375 23q-89 2 -269 14q-107 9 -198 41q-82 28 -82 94q0 150 207 304q195 145 470.5 241t510.5 96q137 0 241 -75.5t140 -206.5z" />
    <glyph glyph-name="T" unicode="T" horiz-adv-x="1212" 
d="M47 387h-10q15 0 12 -14q-3 -15 -12 -15q-43 0 -73 26t-30 69q0 205 619 364q387 93 815.5 124.5t955.5 31.5q15 0 15 -15q0 -14 -12 -14q-436 0 -795.5 -20t-697.5 -76q-65 -11 -138 -26.5t-177.5 -41t-195.5 -59t-173.5 -73.5t-130.5 -90.5t-48 -104.5q0 -31 22 -48.5
t54 -17.5zM928 756l2 6q3 6 10 6q6 0 12 -6q5 -5 2 -12q-90 -167 -158 -393.5t-94 -426.5q0 -9 -8 -12q-2 -2 -8 -2q-4 0 -6 2q-7 3 -4 12q25 199 93.5 425t158.5 401z" />
    <glyph glyph-name="U" unicode="U" horiz-adv-x="1525" 
d="M51 692v-2q0 -12 -14 -12t-14 12q0 32 65 141q36 59 81 123.5t108 139.5t125.5 133.5t133 97.5t130.5 39q88 0 88 -94q0 -58 -35 -147.5t-76 -161.5q-8 -13 -27 -46.5t-40.5 -70.5t-43.5 -74q-15 -27 -24 -39q-90 -157 -123 -217q-125 -234 -125 -352q0 -150 100 -150
q63 0 134.5 35.5t136 90t134.5 133t125.5 152.5t113 161.5t93 146t70.5 119.5q71 147 156 297q5 8 14 8q10 0 13 -6t0 -14q-59 -121 -142 -265q-225 -464 -225 -684q0 -80 45.5 -127t124.5 -47q197 0 430 109q4 2 8 2t6 -2q7 -3 7 -12t-7 -13q-233 -112 -442 -112
q-92 0 -146.5 54t-54.5 146q0 157 125 465q-422 -667 -714 -667q-129 0 -129 178q0 70 43 180q56 146 208 405q170 296 207 394q29 82 29 129q0 65 -59 65q-64 0 -148 -54t-145 -115t-109 -122q-62 -79 -136.5 -192.5t-74.5 -157.5z" />
    <glyph glyph-name="V" unicode="V" horiz-adv-x="681" 
d="M233 1120l-4 2q3 6 11 6q6 0 8 -2q11 -6 8 -18q-59 -101 -90 -280t-31 -328q0 -264 84 -461q81 263 293 563q55 78 125.5 163.5t167.5 183t193.5 173t203.5 126t197 50.5q199 0 276 -213q3 -9 -2 -14q-6 -6 -14 -6q-9 0 -12 10q-70 193 -250 193q-176 0 -424 -207
q-236 -197 -444.5 -493t-288.5 -570q-7 -10 -17 -10q-9 0 -12 8q-102 228 -102 502q0 149 33 330.5t91 291.5z" />
    <glyph glyph-name="W" unicode="W" horiz-adv-x="2041" 
d="M592 1313l6 -17q4 4 10 4t8 -4q9 -9 0 -18q-181 -194 -300 -518.5t-119 -599.5q0 -43 3.5 -83t15.5 -89t31.5 -84.5t55 -59.5t82.5 -24q79 0 158.5 40.5t146.5 106t132 155.5t115.5 181.5t97 191.5t76.5 177.5t54 148.5q3 6 11 6h6q13 -3 10 -12q-10 -65 -10 -170
q0 -68 6.5 -149t26.5 -183t50.5 -182.5t83.5 -136t121 -55.5q69 0 124.5 47t89.5 127t58 169t34.5 190t15 171.5t4.5 130.5q0 106 -10 184q0 7 4.5 13t11.5 6h4q9 -3 9 -12q10 -78 10 -189q0 -61 -3.5 -126.5t-13 -152.5t-25.5 -165.5t-43.5 -157t-63.5 -135t-89 -92
t-117 -35.5q-76 0 -135.5 60t-92.5 146t-54 194.5t-28 190t-7 148.5v58q-27 -73 -60 -149t-80 -167t-97 -172t-113 -158.5t-127 -133.5t-139.5 -90t-149.5 -34q-54 0 -95 25t-64.5 62t-38 88.5t-19 97t-4.5 94.5q0 279 121.5 612.5t304.5 528.5z" />
    <glyph glyph-name="X" unicode="X" horiz-adv-x="1402" 
d="M2048 1112l-2 -4q10 -3 10 -12q0 -19 -20 -19q-24 4 -49 4q-35 0 -84 -6q-462 -62 -1006 -432q-35 -208 -35 -350q0 -313 160 -313q93 0 221.5 42.5t214.5 96.5h6q10 0 13 -6q7 -10 -2 -19q-91 -55 -223.5 -99t-227.5 -44q-188 0 -188 342q0 137 30 325
q-435 -305 -841 -761q-4 -7 -13 -4q-10 3 -12 8q-3 6 4 16q418 469 870 780q55 317 138 543q2 5 12 8q4 2 8 2t6 -2q7 -3 4 -12q-76 -194 -135 -510q546 364 1006 424q49 6 84 6q27 0 51 -4z" />
    <glyph glyph-name="Y" unicode="Y" horiz-adv-x="1040" 
d="M307 1210q4 4 8 4q5 0 9 -4q12 -9 6 -18q-99 -153 -171.5 -358.5t-72.5 -368.5q0 -35 9.5 -72.5t35 -69.5t62.5 -32q160 0 409 254q215 221 447 510q5 5 32 43q3 6 11 6q7 0 10 -6t0 -15q-398 -488 -451 -1278q0 -9 -6 -12t-12 0t-6 12q38 599 286 1041
q-226 -272 -403 -426q-178 -156 -313 -156q-46 0 -79 36t-46 81.5t-13 89.5q0 164 74 376t174 363z" />
    <glyph glyph-name="Z" unicode="Z" horiz-adv-x="1785" 
d="M-27 317l-2 5q6 -3 6 -13q0 -9 -6 -12h-14q-115 50 -115 141q0 38 25 84t66.5 89.5t76 74.5t70.5 59q492 385 1268 385q84 0 96 -2q9 0 12 -10q3 -9 -4 -12q-133 -79 -284.5 -250.5t-272.5 -347.5q-283 -413 -416 -668q337 183 682 183q246 0 547 -91q8 -3 8 -12
q0 -8 -6 -14q-7 -7 -12 -4q-297 90 -541 90q-341 0 -698 -195q-8 -4 -13 -4q-2 0 -10 4q-10 7 -4 19q53 104 160 278q487 800 803 1008h-43q-170 0 -347.5 -24t-356 -73.5t-341 -135t-274.5 -197.5q-158 -158 -158 -238q0 -74 98 -117z" />
    <glyph glyph-name="bracketleft" unicode="[" horiz-adv-x="401" 
d="M190 911l148 -6q15 0 18 -6t-2 -14t-16 -8l-143 2l-68 -1010q10 3 41 6t41 6q9 0 12 -6t0 -14t-8 -8l-90 -13q-13 0 -19 4q-10 6 -6 17l68 1026q0 9 6 18q6 6 12 6h6z" />
    <glyph glyph-name="backslash" unicode="\" horiz-adv-x="665" 
d="M709 -98l-775 1171q-6 9 7 19q4 4 10 4t10 -4l770 -1176q3 -8 0 -14t-10 -6q-6 0 -12 6z" />
    <glyph glyph-name="bracketright" unicode="]" horiz-adv-x="401" 
d="M86 903h-2q-12 3 -8 17q3 12 12 12l102 -19q24 -6 21 -26l12 -967q0 -24 -24 -24l-109 -5q-19 3 -10 21q3 8 12 8l105 4l-13 961q-3 1 -11 2.5t-18 3.5l-20 4q-11 2 -27.5 4.5t-21.5 3.5z" />
    <glyph glyph-name="asciicircum" unicode="^" horiz-adv-x="737" 
d="M399 487l-200 -170q-2 -2 -9 -2q-6 0 -10 7q-6 9 0 18l201 172q8 8 18 8q12 0 17 -8l137 -172q12 -9 -4 -18h-17z" />
    <glyph glyph-name="underscore" unicode="_" horiz-adv-x="731" 
d="M55 -55q-9 0 -12 6t0 12t12 6l594 11q9 0 13 -7q3 -6 0 -12t-13 -6q-173 -3 -321 -5.5t-210 -3.5z" />
    <glyph glyph-name="grave" unicode="`" horiz-adv-x="368" 
d="M88 393l-2 -2q-10 10 -4 19q6 6 16 6l146 -97q8 -5 2 -18q-3 -8 -10 -8q-5 0 -7 2q-131 92 -141 98z" />
    <glyph glyph-name="a" unicode="a" horiz-adv-x="475" 
d="M207 111h-10q-3 -6 -9 -9t-12 0t-6 13q6 28 -20 28q-32 0 -69.5 -31.5t-37.5 -62.5q0 -8 8 -8q17 0 68 39q12 8 18 14q12 8 19 8q8 0 18 -10q49 -49 127 -49q98 0 223 76q4 2 8 2q10 0 13 -8q6 -11 -4 -21q-133 -80 -240 -80q-87 0 -149 56q-61 -58 -99 -58q-37 0 -37 37
q0 38 50 80.5t90 42.5q29 0 41 -18q13 -20 10 -41z" />
    <glyph glyph-name="b" unicode="b" horiz-adv-x="446" 
d="M182 383l8 4q7 0 15 -8q3 -8 0 -14q-52 -69 -98 -166t-46 -164q0 -31 17 -31q22 0 22 39q0 31 -16 74q-5 8 4 14l8 4q4 0 8 -4q51 -45 185 -45q119 0 215 35q1 0 3 1t3 1q4 0 8 -4q7 -7 4 -15q-3 -10 -8 -12q-96 -35 -223 -35q-96 0 -164 27q4 -32 4 -41q0 -68 -51 -68
q-21 0 -32 19.5t-11 42.5q0 74 44 169t101 177z" />
    <glyph glyph-name="c" unicode="c" 
d="M172 186h4q12 0 12 -12q0 -14 -14 -14q-40 -3 -75.5 -32t-35.5 -67q0 -31 33 -44t70 -13q179 0 317 117q7 3 13 0t6 -8q0 -9 -2 -13q-146 -125 -334 -125q-49 0 -91 21.5t-42 66.5q0 50 44 85t95 38z" />
    <glyph glyph-name="d" unicode="d" horiz-adv-x="675" 
d="M186 160l2 2q10 0 13 -6q4 -7 -2 -13t-13 -6q-56 0 -116 -31q-59 -30 -56 -61q0 -8 9 -8q56 0 115.5 39.5t107 100.5t82.5 119t59 112q3 8 12 8t15 -6q7 -7 4 -15q-29 -129 -29 -202q0 -154 92 -154t246 80q8 4 10 4q5 0 8 -10q4 -11 -6 -17q-162 -84 -258 -84
q-121 0 -121 183q0 37 7 98q-26 -46 -60 -92t-78 -92.5t-97 -75.5t-103 -29q-14 0 -26.5 10.5t-12.5 24.5q-3 40 61 80q65 41 135 41z" />
    <glyph glyph-name="e" unicode="e" horiz-adv-x="552" 
d="M199 188l-6 7q12 0 12 -15q0 -14 -12 -14q-34 0 -77.5 -13.5t-43.5 -39.5q0 -28 45 -37q8 -3 8 -15t-10 -12q-35 -3 -35 -18q0 -23 102 -23q88 0 223 35t199 80q2 2 6 2q8 0 13 -8q9 -12 0 -21q-66 -45 -208 -82t-231 -37q-131 0 -131 52q0 21 31 30q-37 9 -37 47
q0 26 30 46t63.5 28t58.5 8z" />
    <glyph glyph-name="f" unicode="f" horiz-adv-x="432" 
d="M344 395l-4 2q0 -87 -99.5 -180.5t-191.5 -112.5v-2l-2 -2q105 -24 199 -24q124 0 231 43q4 2 8 2q10 0 13 -10q6 -15 -6 -21q-107 -43 -244 -43q-96 0 -205 25q-27 -123 -43 -246q-1 -5 -2 -14.5t-2.5 -20.5t-3.5 -22q-6 -37 -6 -39q0 -6 -6 -9t-13 0q-6 3 -6 11
q0 163 -76 387q-6 15 4 22q4 4 11 4q2 0 14 -4q54 -20 111 -37q85 359 251 359q68 0 68 -68zM272 436l-2 -2q-138 0 -215 -299q76 21 166 106.5t90 155.5q0 39 -39 39zM-27 -141q20 129 37 217q-52 14 -104 33q52 -135 67 -250z" />
    <glyph glyph-name="g" unicode="g" horiz-adv-x="475" 
d="M535 123l-3 2h5q11 0 14 -10q4 -14 -8 -17q-183 -49 -301 -86q-4 -110 -66.5 -231t-167 -206t-213.5 -85q-60 0 -102.5 42.5t-42.5 102.5q0 128 174 232q126 75 389 164q-3 27 -12 45q-74 -51 -117 -51q-24 0 -40.5 12t-16.5 35q0 32 32.5 55t65.5 23q53 0 88 -35
q36 20 68 20q28 0 32 -10q3 -6 0 -12q-3 -7 -12 -7q-3 0 -9 1.5t-9 1.5q-25 0 -56 -17q10 -17 13 -49q193 56 295 80zM-207 -481l2 -4q79 0 157 48t133.5 120.5t91 158t38.5 160.5q-537 -170 -537 -369q0 -46 34.5 -80t80.5 -34zM82 51v-2q42 0 104 45q-26 23 -61 23
q-23 0 -47.5 -13t-24.5 -34q0 -19 29 -19z" />
    <glyph glyph-name="h" unicode="h" horiz-adv-x="645" 
d="M27 -45l79 393q0 9 9 12q4 2 8 2q6 0 8 -2q7 -3 4 -12l-76 -334q70 113 140 113q24 0 30 -18t0 -39t0 -39q6 -19 31 -19q89 0 220 33.5t216 75.5q4 2 9 2q7 0 10 -8q3 -13 -6 -19q-88 -43 -221 -76.5t-224 -33.5q-43 0 -55 30q-13 32 -4 56q9 25 0 28q-65 0 -154 -157
q-6 -6 -12 -6q-4 0 -6 2q-9 6 -6 16z" />
    <glyph glyph-name="i" unicode="i" horiz-adv-x="452" 
d="M205 297l-58 -16q-20 0 -20 18q0 9 10 12l60 15q10 0 14 -2.5t4 -12.5q3 -11 -10 -14zM51 111l-4 -2q3 6 10 6h6q14 -4 11 -13q-12 -42 8 -65q22 -25 61 -25q79 0 185.5 32t179.5 75l8 4q4 0 12 -8q9 -12 -4 -21q-76 -47 -183.5 -78.5t-195.5 -31.5q-59 0 -86 34
q-26 34 -8 93z" />
    <glyph glyph-name="j" unicode="j" horiz-adv-x="423" 
d="M473 123l-2 -10h4q8 0 12 -4q7 -8 5 -15q-3 -9 -13 -12q-167 -41 -311 -111q18 -49 18 -102q0 -92 -48 -177t-130 -137.5t-174 -52.5q-90 0 -90 95q0 46 29 96.5t70.5 92t97 83.5t100.5 70t88 51q-26 56 -80 104q-6 9 4 19q6 6 13 6q4 0 6 -2q59 -53 86 -111
q154 77 315 117zM158 -131l2 2q0 34 -17 90q-39 -19 -82.5 -45.5t-96 -65.5t-94 -78.5t-69.5 -86.5t-28 -88q0 -66 61 -66q129 0 226.5 104.5t97.5 233.5zM137 307l-55 -14q-21 0 -21 18q0 9 11 13l57 12q11 0 14.5 -2t3.5 -12q3 -12 -10 -15z" />
    <glyph glyph-name="k" unicode="k" horiz-adv-x="528" 
d="M12 -31l113 363q3 12 12 12q4 0 6 -2q16 -6 13 -18l-86 -283q65 77 133 113q2 2 8 2q5 0 8 -9q3 -13 -6 -16q-38 -20 -72 -51q53 -41 166 -41q170 0 283 78q8 4 10 4q5 0 8 -12q3 -14 -6 -17q-113 -82 -295 -82q-126 0 -190 49q-54 -48 -80 -104q-4 -4 -12 -4
q-10 0 -13 6t0 12z" />
    <glyph glyph-name="l" unicode="l" 
d="M365 416l2 4q0 -66 -52.5 -135t-118.5 -115t-130 -72q27 -73 129 -73q119 0 294 100q13 0 17 -8q6 -12 -4 -19q-180 -104 -307 -104q-78 0 -124 40.5t-46 117.5q0 133 88 237q89 105 178 105q74 0 74 -78zM55 154l2 2q0 -21 2 -27q43 17 89.5 45t90.5 66t72.5 86t28.5 94
q0 49 -45 49q-81 0 -160 -98q-80 -100 -80 -217z" />
    <glyph glyph-name="m" unicode="m" horiz-adv-x="933" 
d="M35 20l16 89q0 7 8 10q4 2 9 2q4 0 6 -2q6 -3 6 -13l-10 -53q110 84 163 84q11 0 19 -3t12 -7t5.5 -13t2 -15t0.5 -19v-8q0 -35 9 -35q42 0 137 59q94 58 135 58q44 0 92 -66q47 -65 90 -65q102 0 256 98q7 3 13 0t6 -12t-6 -15q-164 -102 -271 -102q-58 0 -115 78
q-41 53 -67 53q-34 0 -123 -53q-107 -64 -154 -64q-23 0 -30 17q-6 15 -6 49q0 37 -11 37q-39 0 -166 -95q-8 -8 -16 -8q-6 0 -10 4q-3 3 0 10z" />
    <glyph glyph-name="n" unicode="n" horiz-adv-x="589" 
d="M37 14l4 95q3 8 10 12q7 3 12 -2q7 -7 7 -13l-11 -49q106 74 142 74q30 0 43 -22q3 -6 12 -21q21 -55 84 -55q91 0 297 90q12 0 18 -8q6 -12 -4 -19q-210 -94 -309 -94q-25 0 -54 9.5t-38 27.5q-14 28 -17 35q-9 28 -24 28q-33 0 -154 -92q-3 -6 -12 -6t-6 10z" />
    <glyph glyph-name="o" unicode="o" 
d="M84 141l4 -2h4q7 0 12 -6t5 -12q0 -9 -9 -12q-37 -15 -49 -70q-6 -37 12 -37q16 0 25 25q9 24 6 53q-3 11 4 18q4 4 13 4h4q66 -14 153 -14q133 0 221 33h7q7 0 10 -8q3 -13 -8 -19q-88 -33 -230 -33q-90 0 -143 9q3 -33 -16 -64t-50 -31q-50 0 -41 64q9 69 56 96
q2 2 10 6z" />
    <glyph glyph-name="p" unicode="p" horiz-adv-x="509" 
d="M-29 -301l72 414q2 4 10 8q7 3 13 0t6 -10l-60 -304q23 43 51.5 88.5t72 105t91.5 97t88 37.5q20 0 33.5 -11t13.5 -30q0 -36 -30 -53.5t-70 -17.5q-8 3 -12 10q-3 6 0 12t10 6q28 0 52 10t24 33q0 12 -19 12q-41 0 -92.5 -49.5t-100 -128t-77.5 -131.5t-53 -104
q-3 -6 -8 -6h-6q-12 3 -9 12z" />
    <glyph glyph-name="q" unicode="q" horiz-adv-x="477" 
d="M233 119l-6 -4q4 -4 0 -11q-4 -8 -8 -10q-6 -3 -12 0q-17 17 -62 17q-25 0 -59.5 -10.5t-34.5 -30.5q0 -17 21 -17q22 0 45 10q23 8 55 29q6 6 18 6q11 -4 11 -12l-25 -268q55 92 161.5 186.5t197.5 120.5q5 3 12 -4q6 -6 6 -15t-8 -12q-100 -30 -215 -144t-154 -216
q-3 -5 -8 -8q-6 -3 -12 0t-6 12l26 321q-46 -28 -98 -28q-51 3 -51 43q0 32 43 48.5t82 16.5q61 0 81 -20z" />
    <glyph glyph-name="r" unicode="r" horiz-adv-x="591" 
d="M647 121l-6 2q2 2 8 2q7 0 10 -8q6 -13 -2 -21q-90 -61 -223 -99t-246 -38q-32 0 -58 19.5t-26 50.5q0 21 17 67q-4 0 -11.5 -1t-11.5 -1q-25 0 -51 15q-29 19 -29 55q0 9 15 12h4q10 0 10 -12q0 -26 25 -35q16 -4 26 -4q18 0 39 6h6q10 0 13 -6q7 -10 -2 -19
q-21 -30 -21 -73q0 -19 20 -30t40 -11q108 0 238.5 36t215.5 93z" />
    <glyph glyph-name="s" unicode="s" horiz-adv-x="456" 
d="M57 96l-2 2q-9 3 -2 17q4 8 15 8q87 -43 141 -121q79 42 303 121h6q9 0 12 -8q3 -13 -6 -19q-222 -84 -301 -123q6 -15 6 -30q0 -37 -26 -60.5t-64 -23.5q-17 0 -29 12t-12 29q0 40 88 92q-43 63 -129 104zM201 -53l-2 -4q0 14 -2 18q-74 -41 -74 -61q0 -13 12 -13
q26 0 46 17.5t20 42.5z" />
    <glyph glyph-name="t" unicode="t" horiz-adv-x="350" 
d="M72 352l-9 -6q3 9 13 12q1 0 3 1t3 1q4 0 8 -4q6 -6 4 -14l-6 -25q343 71 662 80q9 0 12 -6t0 -12t-12 -6q-327 -15 -670 -82q-12 -73 -12 -117q0 -201 157 -219q12 0 15 -8q3 -10 -2 -15q-6 -6 -15 -6q-182 21 -182 246q0 46 10 111q-205 -46 -227 -50q-2 -2 -6 -2
q-10 0 -13 13q-3 15 13 18l241 53q5 9 7 19q3 12 6 18z" />
    <glyph glyph-name="u" unicode="u" horiz-adv-x="503" 
d="M66 150h-3q3 6 11 6q7 0 10 -6t0 -13q-15 -30 -21 -67q-6 -36 9 -45q60 0 121 88q7 10 16 10t14 -10q47 -68 111 -68q41 0 109.5 23.5t107.5 48.5q8 4 14 4h4q11 -4 11 -10t-9 -15q-36 -30 -111.5 -56t-123.5 -26q-76 0 -129 68q-21 -30 -60.5 -57t-70.5 -27
q-22 0 -31 18t-6 43q5 37 27 91z" />
    <glyph glyph-name="v" unicode="v" horiz-adv-x="475" 
d="M41 139l-8 4q0 8 6 11q2 2 6 2q6 0 8 -2q8 -3 8 -13q0 -43 25 -110q13 30 55 102q9 12 21 12q7 0 16 -6q71 -47 180 -47q77 0 172 31q6 3 13 -4q6 -6 6 -15t-6 -12q-95 -31 -181 -31q-123 0 -194 50q-34 -53 -57 -117q-3 -9 -13 -12q-9 -3 -16 10q-41 84 -41 147z" />
    <glyph glyph-name="w" unicode="w" horiz-adv-x="757" 
d="M51 100l-2 -4q0 10 12 13h7q7 0 10 -9q6 -43 32 -69.5t70 -26.5q39 0 88 49q43 43 72 43q25 0 70 -45q67 -67 114 -67q84 0 84 77q0 46 -28 91q-8 11 4 20l8 4q4 0 12 -8q33 -44 33 -107q0 -106 -113 -106q-59 0 -135 76q-37 37 -49 37q-14 0 -49 -35q-58 -58 -111 -58
q-54 0 -89 35t-40 90z" />
    <glyph glyph-name="x" unicode="x" horiz-adv-x="645" 
d="M115 -29l-9 -4q-2 -4 -8 -4t-10 4q-10 9 0 19q39 39 45 43q-58 39 -78 84q-3 10 8 16q4 2 11 2q6 0 8 -4q15 -43 74 -78q18 14 69 45t62 31q4 0 6 -2q6 -3 6 -12q0 -10 -6 -13q-71 -33 -109 -63q64 -31 135 -31q84 0 191 33.5t186 79.5q13 0 19 -8q7 -14 0 -17
q-79 -46 -191.5 -79t-199.5 -33q-82 0 -158 40q-21 -16 -51 -49z" />
    <glyph glyph-name="y" unicode="y" horiz-adv-x="655" 
d="M715 123l-4 -2h4q11 0 14 -10q4 -14 -8 -17q-226 -54 -383 -110v-17q0 -84 -35 -160.5t-103 -126t-153 -49.5q-39 0 -66.5 25.5t-27.5 64.5q0 152 354 281q-6 39 -28 39q-21 0 -68 -12q-50 -13 -74 -13q-103 0 -88 101q3 10 17 10q13 0 10 -14q-12 -68 59 -68q23 0 70 12
q50 13 74 13q40 0 55 -58q150 52 381 111zM45 -342v-2q114 0 188 95.5t74 213.5v6q-327 -119 -327 -252q0 -27 19 -44t46 -17z" />
    <glyph glyph-name="z" unicode="z" horiz-adv-x="532" 
d="M592 121l2 -6q11 0 18 -9q6 -12 -4 -18q-133 -56 -157 -65q-171 -68 -320 -68q-120 0 -12 102q10 13 28 27h-20q-34 0 -64 6q-9 0 -12 8q-3 9 0 15t12 6q30 -6 60 -6q45 0 94 18q12 0 16 -8q7 -13 -4 -17q-64 -27 -110 -79q-29 -39 8 -39q153 0 311 67q11 5 62 27t92 39z
" />
    <glyph glyph-name="braceleft" unicode="{" horiz-adv-x="370" 
d="M317 614l2 -4q16 0 13 -14t-15 -14q-110 0 -110 -31q0 -47 24 -117q19 -59 19 -92q0 -127 -146 -154q20 -23 23 -98q2 -27 6 -46t13.5 -39.5t28.5 -31t48 -10.5q14 0 17 -6q3 -7 -2 -12q-6 -6 -15 -6q-40 0 -72.5 21.5t-41.5 59.5q-6 26 -9 78q-6 74 -24 86q-9 9 -25 9
q-9 0 -12 6t0 12t12 6q69 0 119.5 33t50.5 98q0 29 -18 84q-25 73 -25 123q0 59 139 59z" />
    <glyph glyph-name="bar" unicode="|" horiz-adv-x="622" 
d="M240 -139l39 1245q3 10 16 10q12 0 12 -12l-41 -1245q-4 -11 -14 -11q-12 0 -12 13z" />
    <glyph glyph-name="braceright" unicode="}" horiz-adv-x="376" 
d="M104 541l-4 -2q-8 -4 -10 -4q-1 0 -3 1t-3 1q-6 3 -6 12q0 19 62 48.5t87 29.5t31 -21q13 -29 -55 -176q-53 -121 -53 -147q0 -64 100 -64q14 0 14 -16q-3 -10 -10 -13q-37 -9 -43 -26q-5 -15 -2 -51q9 -114 -62 -185q-6 -6 -12 -6t-12 12q-3 10 6 13q62 62 53 162
q-3 65 15 86q-72 18 -72 86q0 36 57 159q63 134 54 154q-4 8 -13 8q-28 0 -119 -61z" />
    <glyph glyph-name="asciitilde" unicode="~" horiz-adv-x="595" 
d="M469 420h-2q4 4 10 4q7 0 12 -8q4 -11 -2 -19q-45 -45 -92 -45q-46 0 -100 51q-52 43 -80 43q-44 0 -74 -30h-16q-6 3 -6 10q0 19 38.5 35t61.5 16q41 0 98 -51q46 -43 80 -43q35 0 72 37z" />
    <glyph glyph-name="exclamdown" unicode="&#xa1;" horiz-adv-x="495" 
d="M285 170l-90 -760q-2 -12 -19 -12q-15 3 -12 18l88 756q3 10 12 10q21 0 21 -12zM328 311q16 0 16 -12q0 -25 -65 -25q-17 0 -17 13t17 16z" />
    <glyph glyph-name="cent" unicode="&#xa2;" 
d="M133 193l10 75q4 11 9 11q9 0 20 -11l-4 -78q0 -3 -6 -6h6h6h4q12 0 12 -12q0 -14 -14 -14q-40 -3 -75 -32t-35 -67q0 -31 32.5 -44t69.5 -13q60 0 131 18q7 3 12 -2q7 -7 4 -14q-5 -17 -57.5 -25t-89.5 -8q-49 0 -91 21.5t-42 66.5q0 43 31.5 75.5t76.5 45.5
q-13 0 -10 13zM141 -129l4 76q0 9 9 12h16q7 -3 4 -12l-6 -84q0 -10 -8 -13q-1 0 -3 -1t-3 -1q-4 0 -9 5q-7 7 -4 18z" />
    <glyph glyph-name="sterling" unicode="&#xa3;" horiz-adv-x="985" 
d="M725 856l-2 -16q3 -10 0 -17q-3 -6 -12 -6q-10 0 -13 10q-22 45 -72.5 79t-99.5 34q-66 0 -117.5 -43t-76.5 -104t-25 -125q0 -89 88 -252l17 -33l202 6q13 0 13 -14q0 -15 -13 -15l-188 -6q61 -125 61 -202q0 -139 -305 -201q164 -31 312 -31q347 0 389 135q3 8 8 8
q6 0 8 -2q13 -6 10 -14q-43 -147 -366 -156q-243 0 -449 48q-9 3 -6 16q3 12 12 12q11 0 66 10q297 57 297 179q0 73 -64 204l-82 -2q-14 0 -14 15q0 14 12 14l68 2q-9 12 -12 21q-92 173 -92 266q0 73 28.5 141.5t87 116t133.5 47.5q55 0 112.5 -37.5t84.5 -87.5z" />
    <glyph glyph-name="currency" unicode="&#xa4;" horiz-adv-x="444" 
d="M291 197l67 69q4 4 13 4q8 0 10 -4q9 -9 0 -18l-78 -78q-4 -4 -8 -4q-6 0 -8 2q-10 10 -17 10q-4 2 -14 2q-14 0 -25 -8q-18 -12 -18 -35q0 -28 20 -28q29 0 29 43q-3 9 10 12h7q12 0 12 -12v-11l55 -28q9 -6 6 -19q-3 -8 -12 -8h-6l-51 27q-18 -35 -50 -35
q-22 0 -36.5 18t-14.5 41q0 17 6 29l-84 117q-3 10 0 16t11 6q6 0 12 -6l78 -109q25 19 47 19q21 0 39 -12zM174 115l-53 -47q-6 -3 -12 0q-5 3 -9 10q-3 6 0 12l52 43q4 4 10 4h4q10 -3 10 -10q0 -8 -2 -12z" />
    <glyph glyph-name="yen" unicode="&#xa5;" horiz-adv-x="743" 
d="M115 193h-9q-1 0 -3 -1.5t-3 -1.5q-6 0 -10 6t-4 11q0 7 6 10q71 44 189 74q9 26 14 35l27 61q-64 -22 -113 -22q-82 0 -82 90q0 97 42.5 215.5t104.5 189.5q6 6 13 6q4 0 6 -2q9 -6 6 -14q-60 -73 -102.5 -188t-42.5 -207q0 -62 53 -62q192 0 516 330q2 2 6 2q7 0 10 -8
q6 -13 -2 -21q-228 -228 -385 -299q-29 -65 -37 -86l-6 -12q66 14 133 14q36 0 52 -2q9 0 12 -8q3 -9 -2 -14q-6 -6 -12 -6q-28 4 -50 4q-58 0 -145 -23q-6 -10 -21 -49q58 8 86 8q18 0 54 -4q9 0 12 -8q3 -9 -2 -14q-7 -7 -12 -7q-45 5 -54 5q-34 0 -94 -11
q-19 -46 -69 -190q-3 -8 -11 -8h-6q-13 3 -10 18q32 93 63 172q-32 -9 -71 -29h-17q-6 3 -6 13q0 9 6 12q44 23 105 37q4 6 20 49q-90 -29 -155 -65z" />
    <glyph glyph-name="brokenbar" unicode="&#xa6;" horiz-adv-x="665" 
d="M268 723l15 383q0 9 6 12t12 0t6 -12l-12 -383q-3 -10 -8 -12q-7 -3 -13 0t-6 12zM242 -139l20 594q0 9 6 12t13 0q6 -3 6 -12l-21 -594q0 -10 -6 -13t-12 0t-6 13z" />
    <glyph glyph-name="section" unicode="&#xa7;" horiz-adv-x="530" 
d="M414 680v-10q6 -3 6 -11q0 -6 -6 -12t-13 -2q-50 26 -88 31q-6 2 -20 2q-11 0 -17 -2q-14 -3 -14 -17q0 -41 47 -153q58 -131 58 -191q0 -101 -62 -157q35 -116 35 -178q0 -29 -6 -65.5t-18.5 -75.5t-37.5 -65t-57 -26q-31 0 -56.5 18t-29.5 48l-2 22q0 10 14 10
q15 0 15 -12q0 -24 19 -40.5t44 -16.5t44 23.5t28.5 58.5t13.5 65.5t4 52.5q0 53 -30 158q-15 -11 -27 -16q-20 0 -20 16q0 6 4 10l30 19q-10 34 -24 74q-41 115 -41 159q0 45 26 62q12 10 35 10q19 0 29 -4q-4 13 -12 31q-52 119 -52 166q0 34 33 43q12 4 35 4q27 0 39 -4
q34 -7 74 -25zM338 313l4 -2q0 39 -31 121q-6 -6 -12 0q-12 6 -23 6q-18 0 -28 -12.5t-10 -32.5q0 -32 41 -147q10 -37 18 -62q41 47 41 129z" />
    <glyph glyph-name="dieresis" unicode="&#xa8;" horiz-adv-x="356" 
d="M168 301l-41 -29q-9 0 -16 7q-6 10 2 18l39 27q6 3 12 0t6 -11t-2 -12zM270 301l-51 -31h-6q-6 0 -12 6q-6 9 4 19l47 29q2 2 6 2q5 0 12 -7q9 -9 0 -18z" />
    <glyph glyph-name="copyright" unicode="&#xa9;" horiz-adv-x="743" 
d="M537 748l-5 -5q13 -6 7 -18q-3 -8 -13 -8q-4 0 -8 2q-27 12 -65 12q-76 0 -154 -44.5t-129 -119t-51 -151.5q0 -70 58.5 -114t129.5 -44q121 0 212 75.5t91 194.5q0 77 -37 111q-38 35 -69 35q-15 3 -15 14t15 14q44 0 90 -40q47 -41 47 -134q0 -86 -47.5 -154.5
t-122.5 -104.5t-160 -36q-84 0 -150.5 53.5t-66.5 135.5q0 85 55.5 165.5t140.5 128.5t169 48q46 0 78 -16zM410 565l4 -2q13 -7 -2 -16q-8 -4 -15 -4q-43 0 -83 -30.5t-40 -72.5q0 -22 29 -22q59 0 135 67q7 7 13 7q7 0 10 -7q9 -11 0 -20q-88 -76 -158 -76q-57 0 -57 51
q0 46 48 88.5t95 42.5q12 0 21 -6z" />
    <glyph glyph-name="guillemotleft" unicode="&#xab;" horiz-adv-x="440" 
d="M154 211l47 84q6 6 12 6q4 0 6 -2q9 -6 6 -16l-47 -80q2 -3 5.5 -7t8.5 -9.5t9 -10.5q10 -12 24 -26q7 -10 -2 -19q-4 -4 -8 -4q-2 0 -10 4l-51 55q-9 9 0 25zM231 219l37 84q7 10 13 10q7 0 10 -6t0 -14l-35 -82l51 -59q9 -10 0 -19q-4 -4 -8 -4q-2 0 -10 4l-56 62
q-11 8 -2 24z" />
    <glyph glyph-name="logicalnot" unicode="&#xac;" horiz-adv-x="577" 
d="M365 213l-211 -6q-10 0 -13 6t0 12t13 6l219 11q15 3 18 -17l12 -69q3 -8 -4 -15q-4 -4 -8 -4q-1 0 -3 1t-3 1q-8 3 -8 13z" />
    <glyph glyph-name="registered" unicode="&#xae;" horiz-adv-x="743" 
d="M532 750l-2 -5q13 -6 7 -18q-3 -8 -13 -8q-4 0 -8 2q-27 12 -67 12q-76 0 -154 -44.5t-129 -119t-51 -151.5q0 -70 58.5 -114t129.5 -44q121 0 212 75.5t91 194.5q0 77 -37 111q-38 35 -69 35q-15 3 -15 14q0 12 15 15q43 0 90 -41t47 -134q0 -86 -47.5 -154.5
t-122.5 -104t-160 -35.5q-84 0 -150.5 53t-66.5 135q0 85 55.5 165.5t140.5 128.5t169 48q45 0 77 -16zM240 428v-10q-3 -10 -11 -10q-4 0 -8 2q-15 6 -12 18q15 62 69 139.5t105 77.5q37 0 37 -24q0 -17 -43 -60t-43 -55q0 -19 58.5 -34t86.5 -15q10 0 13 -6q3 -7 -3 -13
t-12 -6q-47 0 -110.5 21t-63.5 57q0 19 25 47q32 36 43 47q19 19 12 19q-39 0 -83.5 -71.5t-59.5 -123.5z" />
    <glyph glyph-name="acute" unicode="&#xb4;" horiz-adv-x="454" 
d="M176 287l-2 -2h-16q-6 3 -6 12t6 12q91 72 145 119q4 4 10 4q7 0 9 -4q10 -10 4 -18q-82 -70 -150 -123z" />
    <glyph glyph-name="paragraph" unicode="&#xb6;" horiz-adv-x="653" 
d="M256 -190l-31 2l84 784q-72 7 -121 40.5t-49 100.5q0 140 232 140l202 -7v-28l-73 2l-121 -1047l-29 4l121 1043l-104 4z" />
    <glyph glyph-name="periodcentered" unicode="&#xb7;" horiz-adv-x="452" 
d="M258 354l-57 -16q-21 0 -21 18q0 10 10 13l60 14q10 0 14 -2t4 -12q3 -12 -10 -15z" />
    <glyph glyph-name="cedilla" unicode="&#xb8;" horiz-adv-x="524" 
d="M172 2h-4q0 9 8 12q4 2 8 2q7 0 9 -2q6 -3 6 -12q0 -39 51 -39q23 0 37 -14t14 -37q0 -29 -20 -43t-50 -14q-12 0 -12 14t14 14q41 0 41 27t-51 27q-24 0 -37.5 19.5t-13.5 45.5z" />
    <glyph glyph-name="guillemotright" unicode="&#xbb;" horiz-adv-x="440" 
d="M184 221l-57 62q-7 10 6 16q8 4 10 4q7 0 11 -4l51 -68q16 -9 0 -28l-64 -80h-14q-6 3 -6 10q0 4 4 12zM266 217l-61 82q-12 12 6 18q2 2 8 2t10 -4l64 -86q9 -9 0 -28l-60 -92q-5 -5 -14 -5q-9 3 -12 9t0 12z" />
    <glyph glyph-name="questiondown" unicode="&#xbf;" horiz-adv-x="456" 
d="M397 10q4 4 9 4q6 0 8 -2q12 -6 6 -18q-27 -59 -106 -143t-130 -84q-45 0 -45 57q0 36 45 110q35 59 35 80q0 25 -53 37q-8 3 -8 12q0 7 4.5 13t11.5 6h4q74 -18 74 -66q0 -30 -39 -92q-41 -74 -41 -98q0 -29 16 -29q44 0 112 77t95 132zM94 143q0 15 12 15h29
q15 0 15 -15q0 -14 -13 -14h-28q-15 0 -15 14z" />
    <glyph glyph-name="Agrave" unicode="&#xc0;" horiz-adv-x="1400" 
d="M1456 121l-2 -4q4 2 8 2q6 0 8 -2q7 -3 7 -13q0 -8 -7 -12q-107 -76 -264 -76q-129 0 -201.5 72t-86.5 203q-119 -72 -371 -254q-268 -197 -385 -197q-90 0 -90 90q0 65 63.5 179.5t158.5 237.5t173.5 215.5t140.5 158.5q43 46 119.5 124t184 182.5t199 177.5t124.5 73
q66 0 25 -86q-11 -26 -74 -137q-46 -81 -72.5 -130.5t-63.5 -129t-57.5 -140.5t-35.5 -137.5t-15 -148.5v-27q239 133 422 133q12 0 12 -14q0 -15 -14 -15q-177 0 -418 -137q27 -260 264 -260q144 0 248 72zM528 61h-2q272 201 383 263v41q0 272 244 704q85 152 82 174
q0 8 -10 8q-45 0 -226 -166q-104 -95 -242 -237.5t-293 -319.5t-260.5 -342.5t-105.5 -255.5q0 -61 62 -61q112 0 368 192zM1104 1516l-2 -3q-10 10 -4 19q6 6 16 6l146 -96q9 -6 2 -19q-3 -8 -11 -8q-4 0 -6 2z" />
    <glyph glyph-name="Aacute" unicode="&#xc1;" horiz-adv-x="1400" 
d="M1456 121l-2 -4q4 2 8 2q6 0 8 -2q7 -3 7 -13q0 -8 -7 -12q-107 -76 -264 -76q-129 0 -201.5 72t-86.5 203q-119 -72 -371 -254q-268 -197 -385 -197q-90 0 -90 90q0 65 63.5 179.5t158.5 237.5t173.5 215.5t140.5 158.5q43 46 119.5 124t184 182.5t199 177.5t124.5 73
q66 0 25 -86q-11 -26 -74 -137q-46 -81 -72.5 -130.5t-63.5 -129t-57.5 -140.5t-35.5 -137.5t-15 -148.5v-27q239 133 422 133q12 0 12 -14q0 -15 -14 -15q-177 0 -418 -137q27 -260 264 -260q144 0 248 72zM528 61h-2q272 201 383 263v41q0 272 244 704q85 152 82 174
q0 8 -10 8q-45 0 -226 -166q-104 -95 -242 -237.5t-293 -319.5t-260.5 -342.5t-105.5 -255.5q0 -61 62 -61q112 0 368 192zM1239 1368l-2 -2h-16q-7 4 -7 12q0 10 7 13q102 81 145 118q4 4 10 4t8 -4q10 -10 5 -18q-83 -71 -150 -123z" />
    <glyph glyph-name="Acircumflex" unicode="&#xc2;" horiz-adv-x="1400" 
d="M1456 121l-2 -4q4 2 8 2q6 0 8 -2q7 -3 7 -13q0 -8 -7 -12q-107 -76 -264 -76q-129 0 -201.5 72t-86.5 203q-119 -72 -371 -254q-268 -197 -385 -197q-90 0 -90 90q0 65 63.5 179.5t158.5 237.5t173.5 215.5t140.5 158.5q43 46 119.5 124t184 182.5t199 177.5t124.5 73
q66 0 25 -86q-11 -26 -74 -137q-46 -81 -72.5 -130.5t-63.5 -129t-57.5 -140.5t-35.5 -137.5t-15 -148.5v-27q239 133 422 133q12 0 12 -14q0 -15 -14 -15q-177 0 -418 -137q27 -260 264 -260q144 0 248 72zM528 61h-2q272 201 383 263v41q0 272 244 704q85 152 82 174
q0 8 -10 8q-45 0 -226 -166q-104 -95 -242 -237.5t-293 -319.5t-260.5 -342.5t-105.5 -255.5q0 -61 62 -61q112 0 368 192zM1257 1425l-73 -71q-3 -6 -10 -2q-8 4 -11 10t0 14l78 70q10 10 16 10q7 0 15 -8l69 -80q10 -10 0 -16q-2 -2 -8 -2t-10 4z" />
    <glyph glyph-name="Atilde" unicode="&#xc3;" horiz-adv-x="1400" 
d="M1456 121l-2 -4q4 2 8 2q6 0 8 -2q7 -3 7 -13q0 -8 -7 -12q-107 -76 -264 -76q-129 0 -201.5 72t-86.5 203q-119 -72 -371 -254q-268 -197 -385 -197q-90 0 -90 90q0 65 63.5 179.5t158.5 237.5t173.5 215.5t140.5 158.5q43 46 119.5 124t184 182.5t199 177.5t124.5 73
q66 0 25 -86q-11 -26 -74 -137q-46 -81 -72.5 -130.5t-63.5 -129t-57.5 -140.5t-35.5 -137.5t-15 -148.5v-27q239 133 422 133q12 0 12 -14q0 -15 -14 -15q-177 0 -418 -137q27 -260 264 -260q144 0 248 72zM528 61h-2q272 201 383 263v41q0 272 244 704q85 152 82 174
q0 8 -10 8q-45 0 -226 -166q-104 -95 -242 -237.5t-293 -319.5t-260.5 -342.5t-105.5 -255.5q0 -61 62 -61q112 0 368 192zM1194 1413h-8q-6 -6 -12 -6q-7 0 -11 4q-9 9 0 19q22 22 54 22q21 0 57 -31q35 -30 57 -30q29 0 55 26q4 4 11 4h4q10 -3 12 -8t-4 -14
q-37 -37 -74 -37q-25 0 -61 31q-34 30 -49 30q-14 0 -31 -10z" />
    <glyph glyph-name="Adieresis" unicode="&#xc4;" horiz-adv-x="1400" 
d="M1456 121l-2 -4q4 2 8 2q6 0 8 -2q7 -3 7 -13q0 -8 -7 -12q-107 -76 -264 -76q-129 0 -201.5 72t-86.5 203q-119 -72 -371 -254q-268 -197 -385 -197q-90 0 -90 90q0 65 63.5 179.5t158.5 237.5t173.5 215.5t140.5 158.5q43 46 119.5 124t184 182.5t199 177.5t124.5 73
q66 0 25 -86q-11 -26 -74 -137q-46 -81 -72.5 -130.5t-63.5 -129t-57.5 -140.5t-35.5 -137.5t-15 -148.5v-27q239 133 422 133q12 0 12 -14q0 -15 -14 -15q-177 0 -418 -137q27 -260 264 -260q144 0 248 72zM528 61h-2q272 201 383 263v41q0 272 244 704q85 152 82 174
q0 8 -10 8q-45 0 -226 -166q-104 -95 -242 -237.5t-293 -319.5t-260.5 -342.5t-105.5 -255.5q0 -61 62 -61q112 0 368 192zM1221 1389l-41 -29q-11 0 -17 6q-6 10 2 18l39 27q6 3 13 0q6 -3 6 -10q0 -8 -2 -12zM1323 1389l-51 -31h-6q-7 0 -13 6q-6 8 4 18l48 29q2 2 6 2
q6 0 12 -6q9 -9 0 -18z" />
    <glyph glyph-name="Aring" unicode="&#xc5;" horiz-adv-x="1400" 
d="M1208 49q144 0 248 72l-2 -4q4 2 8 2q6 0 8 -2q7 -3 7 -13q0 -8 -7 -12q-107 -76 -264 -76q-129 0 -201.5 72t-86.5 203q-119 -72 -371 -254q-268 -197 -385 -197q-90 0 -90 90q0 74 74 202.5t183.5 264.5t241.5 280.5t241 252.5t189 180q168 148 218 164q-4 1 -17 10
q-14 11 -14 25l-2 12q0 40 30 74.5t70 34.5q20 0 37 -17h-4q9 -9 0 -18q-4 -4 -8 -4q-3 0 -11 4q-12 6 -32 6q-22 -4 -39 -29.5t-17 -48.5t27 -23q21 0 43 19q21 18 18 49q0 6 7 10q6 3 12 0q8 -4 10 -8q6 -50 -24 -74q-22 -19 -45 -22q30 -15 0 -82q-11 -26 -74 -137
q-52 -93 -87.5 -162.5t-75.5 -163.5t-60.5 -185t-20.5 -175v-27q239 133 422 133q12 0 12 -14q0 -15 -14 -15q-177 0 -418 -137q27 -260 264 -260zM160 -131q112 0 368 192h-2q272 201 383 263v41q0 88 20 181t58.5 187t75.5 168.5t90 167.5q85 152 82 174q0 8 -10 8
q-30 0 -119 -71.5t-193.5 -174.5t-179 -179t-115.5 -121q-63 -68 -137.5 -156.5t-167.5 -209t-154 -232.5t-61 -177q0 -61 62 -61z" />
    <glyph glyph-name="AE" unicode="&#xc6;" horiz-adv-x="1949" 
d="M188 233l-8 -10h-16q-6 3 -6 13q0 9 8 14q49 32 160 74q58 95 122.5 190.5t161.5 219.5t188 216t194 156.5t188 64.5q19 0 30.5 -7.5t16 -23.5t5.5 -27.5t1 -31.5v-20q78 18 178 51q307 88 391 88q29 0 33 -10q3 -9 -2 -14t-14 -5h-15q-80 0 -383 -86q-146 -45 -190 -55
q-24 -167 -137 -491q399 89 569 98q9 0 12 -6q3 -7 0 -13t-12 -6q-185 -15 -584 -104q-61 -182 -139 -369q121 -103 240.5 -148.5t275.5 -45.5q117 0 277 53t278 121q4 2 8 2t6 -2q7 -3 7 -13q0 -8 -7 -12q-137 -72 -290.5 -124t-274.5 -52q-295 0 -524 197q-25 22 -10 53
q68 168 127 336q-461 -105 -705 -197q-214 -359 -223 -436q-3 -9 -12 -12q-2 -2 -9 -2q-4 0 -6 2q-7 3 -4 12q9 79 211 418q-87 -35 -117 -56zM1176 1139l2 -6q-60 0 -130.5 -34t-135 -85.5t-136 -128t-127.5 -145.5t-117 -154.5t-96.5 -138.5t-73.5 -113q278 96 693 190
q145 427 145 572q0 43 -24 43z" />
    <glyph glyph-name="Ccedilla" unicode="&#xc7;" horiz-adv-x="1536" 
d="M1554 893q322 0 490 -127l-6 -4q6 -6 6 -14q0 -10 -6 -13t-17 4q-157 121 -469 121q-296 0 -642.5 -147.5t-583.5 -356.5q-238 -209 -238 -370q0 -71 54 -122.5t123.5 -73t137.5 -21.5q253 0 600 105t584 243q4 2 10 2q7 0 9 -2q6 -3 6 -13q0 -9 -6 -12
q-255 -145 -603 -248.5t-620 -103.5q2 -2 2 -6q0 -39 51 -39q23 0 37 -14t14 -37q0 -29 -19.5 -43.5t-49.5 -14.5q-12 0 -12 15q0 14 14 14q41 0 41 27q0 26 -51 26q-25 0 -38.5 20t-13.5 46h-4q0 6 2 8q-70 8 -135.5 36t-113.5 84t-48 128q0 64 38 137t93.5 135t129 125
t134 106t119.5 80q218 136 486 228t495 92z" />
    <glyph glyph-name="Egrave" unicode="&#xc8;" horiz-adv-x="1298" 
d="M1083 1178l9 -9q9 0 12 -6q3 -7 -2 -12q-6 -6 -15 -6q-14 2 -63 2q-90 0 -190.5 -15.5t-206 -45t-201 -79t-171.5 -112.5t-120.5 -150t-44.5 -186q0 -58 26.5 -99.5t71 -63t92.5 -31t103 -9.5q203 0 371 86q6 3 12 0t6 -10t-8 -12q-234 -176 -234 -375q0 -58 46 -92.5
t106 -34.5q167 0 356.5 55t313.5 148q8 4 10 4q1 0 3 -1t3 -1q6 -3 6 -12t-6 -15q-127 -95 -322 -151t-366 -56q-73 0 -126.5 43t-53.5 113q0 165 162 330q-130 -46 -271 -49q-64 0 -118.5 10.5t-106 34.5t-81.5 72t-30 116q0 90 35 171t94.5 142.5t139 113t168 87t182 60
t179.5 36t163 11.5q53 0 67 -2zM582 1319l-2 -2q-10 10 -5 18q6 6 17 6l145 -96q8 -5 2 -18q-3 -8 -10 -8q-4 0 -6 2q-131 92 -141 98z" />
    <glyph glyph-name="Eacute" unicode="&#xc9;" horiz-adv-x="1298" 
d="M1083 1178l9 -9q9 0 12 -6q3 -7 -2 -12q-6 -6 -15 -6q-14 2 -63 2q-90 0 -190.5 -15.5t-206 -45t-201 -79t-171.5 -112.5t-120.5 -150t-44.5 -186q0 -58 26.5 -99.5t71 -63t92.5 -31t103 -9.5q203 0 371 86q6 3 12 0t6 -10t-8 -12q-234 -176 -234 -375q0 -58 46 -92.5
t106 -34.5q167 0 356.5 55t313.5 148q8 4 10 4q1 0 3 -1t3 -1q6 -3 6 -12t-6 -15q-127 -95 -322 -151t-366 -56q-73 0 -126.5 43t-53.5 113q0 165 162 330q-130 -46 -271 -49q-64 0 -118.5 10.5t-106 34.5t-81.5 72t-30 116q0 90 35 171t94.5 142.5t139 113t168 87t182 60
t179.5 36t163 11.5q53 0 67 -2zM727 1268l-2 -2h-16q-7 4 -7 12t7 12q91 72 145 119q4 4 10 4t8 -4q10 -10 5 -18q-83 -71 -150 -123z" />
    <glyph glyph-name="Ecircumflex" unicode="&#xca;" horiz-adv-x="1298" 
d="M1083 1178l9 -9q9 0 12 -6q3 -7 -2 -12q-6 -6 -15 -6q-14 2 -63 2q-90 0 -190.5 -15.5t-206 -45t-201 -79t-171.5 -112.5t-120.5 -150t-44.5 -186q0 -58 26.5 -99.5t71 -63t92.5 -31t103 -9.5q203 0 371 86q6 3 12 0t6 -10t-8 -12q-234 -176 -234 -375q0 -58 46 -92.5
t106 -34.5q167 0 356.5 55t313.5 148q8 4 10 4q1 0 3 -1t3 -1q6 -3 6 -12t-6 -15q-127 -95 -322 -151t-366 -56q-73 0 -126.5 43t-53.5 113q0 165 162 330q-130 -46 -271 -49q-64 0 -118.5 10.5t-106 34.5t-81.5 72t-30 116q0 90 35 171t94.5 142.5t139 113t168 87t182 60
t179.5 36t163 11.5q53 0 67 -2zM780 1307l-73 -72q-3 -6 -11 -2q-7 3 -10 10q-3 6 0 14l78 70q10 10 16 10q7 0 15 -8l69 -80q10 -10 0 -16q-2 -2 -8 -2t-10 4z" />
    <glyph glyph-name="Edieresis" unicode="&#xcb;" horiz-adv-x="1298" 
d="M1083 1178l9 -9q9 0 12 -6q3 -7 -2 -12q-6 -6 -15 -6q-14 2 -63 2q-90 0 -190.5 -15.5t-206 -45t-201 -79t-171.5 -112.5t-120.5 -150t-44.5 -186q0 -58 26.5 -99.5t71 -63t92.5 -31t103 -9.5q203 0 371 86q6 3 12 0t6 -10t-8 -12q-234 -176 -234 -375q0 -58 46 -92.5
t106 -34.5q167 0 356.5 55t313.5 148q8 4 10 4q1 0 3 -1t3 -1q6 -3 6 -12t-6 -15q-127 -95 -322 -151t-366 -56q-73 0 -126.5 43t-53.5 113q0 165 162 330q-130 -46 -271 -49q-64 0 -118.5 10.5t-106 34.5t-81.5 72t-30 116q0 90 35 171t94.5 142.5t139 113t168 87t182 60
t179.5 36t163 11.5q53 0 67 -2zM811 1282l-41 -29q-9 0 -16 7q-6 10 2 18l39 27q6 3 12 0t6 -11t-2 -12zM913 1282l-51 -31h-6q-6 0 -12 6q-6 9 4 19l47 29q2 2 6 2q5 0 12 -7q9 -9 0 -18z" />
    <glyph glyph-name="Igrave" unicode="&#xcc;" horiz-adv-x="1550" 
d="M330 236l-6 4q9 0 12 -9q3 -8 0 -14t-12 -6q-96 13 -158 67t-62 146q0 108 123 240q206 221 545 367.5t639 146.5q98 0 163.5 -58.5t65.5 -154.5q0 -84 -43 -198.5t-113 -231.5t-163.5 -232t-189 -204t-194.5 -144t-177 -55q-182 0 -182 151q0 83 53 181t121 157q2 2 6 2
q6 0 8 -2q10 -3 12 -8q3 -5 -4 -12q-66 -61 -115 -150.5t-49 -167.5q0 -123 154 -123q64 0 144.5 41t155.5 105.5t134 125t105 117.5q70 86 136 189.5t121.5 233.5t55.5 221q0 85 -57.5 135.5t-143.5 50.5q-268 0 -572.5 -118.5t-510.5 -299.5q-197 -173 -197 -309
q0 -83 54.5 -128.5t140.5 -55.5zM1350 1415l-2 -2q-11 11 -5 19q6 6 17 6l145 -97q8 -5 2 -18q-3 -8 -10 -8q-4 0 -6 2q-131 92 -141 98z" />
    <glyph glyph-name="Iacute" unicode="&#xcd;" horiz-adv-x="1550" 
d="M330 236l-6 4q9 0 12 -9q3 -8 0 -14t-12 -6q-96 13 -158 67t-62 146q0 108 123 240q206 221 545 367.5t639 146.5q98 0 163.5 -58.5t65.5 -154.5q0 -84 -43 -198.5t-113 -231.5t-163.5 -232t-189 -204t-194.5 -144t-177 -55q-182 0 -182 151q0 83 53 181t121 157q2 2 6 2
q6 0 8 -2q10 -3 12 -8q3 -5 -4 -12q-66 -61 -115 -150.5t-49 -167.5q0 -123 154 -123q64 0 144.5 41t155.5 105.5t134 125t105 117.5q70 86 136 189.5t121.5 233.5t55.5 221q0 85 -57.5 135.5t-143.5 50.5q-268 0 -572.5 -118.5t-510.5 -299.5q-197 -173 -197 -309
q0 -83 54.5 -128.5t140.5 -55.5zM1354 1276l-2 -2h-17q-6 3 -6 12t6 12q101 80 146 119q4 4 10 4t8 -4q10 -10 4 -18q-93 -79 -149 -123z" />
    <glyph glyph-name="Icircumflex" unicode="&#xce;" horiz-adv-x="1550" 
d="M330 236l-6 4q9 0 12 -9q3 -8 0 -14t-12 -6q-96 13 -158 67t-62 146q0 108 123 240q206 221 545 367.5t639 146.5q98 0 163.5 -58.5t65.5 -154.5q0 -84 -43 -198.5t-113 -231.5t-163.5 -232t-189 -204t-194.5 -144t-177 -55q-182 0 -182 151q0 83 53 181t121 157q2 2 6 2
q6 0 8 -2q10 -3 12 -8q3 -5 -4 -12q-66 -61 -115 -150.5t-49 -167.5q0 -123 154 -123q64 0 144.5 41t155.5 105.5t134 125t105 117.5q70 86 136 189.5t121.5 233.5t55.5 221q0 85 -57.5 135.5t-143.5 50.5q-268 0 -572.5 -118.5t-510.5 -299.5q-197 -173 -197 -309
q0 -83 54.5 -128.5t140.5 -55.5zM1360 1311l-74 -72q-3 -6 -10 -2q-7 3 -10 10q-3 6 0 15l77 69q10 10 17 10q6 0 14 -8l70 -80q10 -10 0 -16q-2 -2 -8 -2q-7 0 -11 4z" />
    <glyph glyph-name="Idieresis" unicode="&#xcf;" horiz-adv-x="1550" 
d="M330 236l-6 4q9 0 12 -9q3 -8 0 -14t-12 -6q-96 13 -158 67t-62 146q0 108 123 240q206 221 545 367.5t639 146.5q98 0 163.5 -58.5t65.5 -154.5q0 -84 -43 -198.5t-113 -231.5t-163.5 -232t-189 -204t-194.5 -144t-177 -55q-182 0 -182 151q0 83 53 181t121 157q2 2 6 2
q6 0 8 -2q10 -3 12 -8q3 -5 -4 -12q-66 -61 -115 -150.5t-49 -167.5q0 -123 154 -123q64 0 144.5 41t155.5 105.5t134 125t105 117.5q70 86 136 189.5t121.5 233.5t55.5 221q0 85 -57.5 135.5t-143.5 50.5q-268 0 -572.5 -118.5t-510.5 -299.5q-197 -173 -197 -309
q0 -83 54.5 -128.5t140.5 -55.5zM1411 1319l-41 -29q-10 0 -16 6q-7 10 2 19l39 26q6 3 12 0t6 -10q0 -8 -2 -12zM1513 1319l-51 -31h-6q-6 0 -12 6q-6 9 4 19l47 28q2 2 6 2q6 0 12 -6q9 -9 0 -18z" />
    <glyph glyph-name="Eth" unicode="&#xd0;" horiz-adv-x="1705" 
d="M709 262l-351 23q-241 -332 -241 -435q0 -32 14.5 -41.5t48.5 -9.5q218 0 493 89t503 212q70 38 141 85t150.5 113.5t140 134.5t100 150.5t39.5 159.5q0 79 -45.5 140t-113 96t-155.5 57t-161.5 29.5t-143.5 7.5q-383 0 -745 -98q-56 -15 -119 -35.5t-145 -53
t-156.5 -69.5t-149 -85t-128.5 -98.5t-87.5 -113t-33.5 -125.5q0 -69 53 -96q17 -6 6 -20q-7 -7 -18 -7q-70 37 -70 121q0 169 232 336q171 124 413.5 211t481.5 125.5t466 38.5q61 0 125.5 -6.5t141 -20.5t143 -41.5t122 -65.5t88 -96.5t32.5 -130.5q0 -80 -40 -165
t-101 -155.5t-142 -139t-153.5 -117t-145.5 -88.5q-234 -128 -510 -217.5t-502 -89.5q-48 0 -70 17.5t-22 64.5q0 101 240 436l-60 6q-14 0 -14 14q0 15 12 15l78 -7q24 33 59.5 80t92.5 120.5t101.5 123t55.5 49.5q11 -4 11 -10q0 -8 -2 -14q-137 -152 -281 -351l322 -24
q12 0 12 -15q0 -14 -12 -14z" />
    <glyph glyph-name="Ntilde" unicode="&#xd1;" horiz-adv-x="1470" 
d="M-72 -238l-12 -16q9 -12 -4 -18q-2 -2 -8 -2q-7 0 -13 6q-36 56 -36 153q0 111 54 265.5t120.5 280.5t140.5 237q27 41 64 92t93.5 119.5t109.5 123t110.5 92.5t99.5 38q37 0 66 -19q39 -27 65 -111t35 -155q22 -195 27 -266q6 -90 26 -275q12 -112 54 -213
q35 -88 112 -88q92 0 164 96q71 96 105 235.5t34 280.5q0 98 -14 164q-3 6 4 13q4 4 10 4h4q10 -3 13 -13q14 -66 14 -165q0 -153 -37 -295q-14 -56 -37.5 -111.5t-59 -110.5t-86.5 -89.5t-108 -34.5q-40 0 -72.5 23.5t-52.5 57.5t-35 81t-21.5 82.5t-10.5 74.5
q-23 218 -27 287v-2q-2 36 -5.5 81.5t-4.5 53.5q-15 200 -55 313q-28 80 -95 80q-99 0 -284 -215q-77 -89 -158 -210.5t-154 -258t-120 -279t-47 -251.5q0 -87 32 -136zM891 1339h-8q-6 -6 -13 -6q-6 0 -10 4q-10 9 0 19q22 22 53 22q23 0 58 -30q36 -31 57 -31q29 0 55 26
q5 5 11 5h4q9 -3 12 -9q2 -5 -4 -14q-37 -37 -74 -37q-25 0 -61 31t-49 31t-31 -11z" />
    <glyph glyph-name="Ograve" unicode="&#xd2;" horiz-adv-x="1294" 
d="M496 565l-15 -2q-3 -6 -10 -6q-6 0 -8 2q-11 6 -8 16q89 162 205.5 237t300.5 75q77 0 138.5 -48.5t92.5 -119.5t31 -146q0 -280 -211 -473q-210 -192 -535 -192q-183 0 -303.5 124t-120.5 308q0 161 74.5 310t194.5 255t275.5 169t313.5 63q50 0 86 -4q10 0 13 -9
q3 -8 0 -14t-13 -6q-36 4 -79 4q-153 0 -302.5 -61t-265 -162.5t-187 -245.5t-71.5 -299q0 -171 114.5 -287t285.5 -116q312 0 514 184t202 450q0 68 -26 132t-80.5 108.5t-124.5 44.5q-172 0 -285 -68t-196 -223zM811 1346l-2 -3q-10 10 -4 19q6 6 16 6l146 -96q9 -6 2 -19
q-3 -8 -11 -8q-4 0 -6 2z" />
    <glyph glyph-name="Oacute" unicode="&#xd3;" horiz-adv-x="1294" 
d="M496 565l-15 -2q-3 -6 -10 -6q-6 0 -8 2q-11 6 -8 16q89 162 205.5 237t300.5 75q77 0 138.5 -48.5t92.5 -119.5t31 -146q0 -280 -211 -473q-210 -192 -535 -192q-183 0 -303.5 124t-120.5 308q0 161 74.5 310t194.5 255t275.5 169t313.5 63q50 0 86 -4q10 0 13 -9
q3 -8 0 -14t-13 -6q-36 4 -79 4q-153 0 -302.5 -61t-265 -162.5t-187 -245.5t-71.5 -299q0 -171 114.5 -287t285.5 -116q312 0 514 184t202 450q0 68 -26 132t-80.5 108.5t-124.5 44.5q-172 0 -285 -68t-196 -223zM807 1249l-2 -2h-17q-6 3 -6 13q0 9 6 12q101 80 146 119
q4 4 10 4t8 -4q10 -10 4 -19q-93 -79 -149 -123z" />
    <glyph glyph-name="Ocircumflex" unicode="&#xd4;" horiz-adv-x="1294" 
d="M496 565l-15 -2q-3 -6 -10 -6q-6 0 -8 2q-11 6 -8 16q89 162 205.5 237t300.5 75q77 0 138.5 -48.5t92.5 -119.5t31 -146q0 -280 -211 -473q-210 -192 -535 -192q-183 0 -303.5 124t-120.5 308q0 161 74.5 310t194.5 255t275.5 169t313.5 63q50 0 86 -4q10 0 13 -9
q3 -8 0 -14t-13 -6q-36 4 -79 4q-153 0 -302.5 -61t-265 -162.5t-187 -245.5t-71.5 -299q0 -171 114.5 -287t285.5 -116q312 0 514 184t202 450q0 68 -26 132t-80.5 108.5t-124.5 44.5q-172 0 -285 -68t-196 -223zM934 1323l-74 -72q-3 -6 -10 -2q-6 3 -10 11q-3 6 0 14
l78 69q11 11 16 11q6 0 14 -8l70 -80q10 -10 0 -17q-2 -2 -8 -2q-7 0 -11 4z" />
    <glyph glyph-name="Otilde" unicode="&#xd5;" horiz-adv-x="1294" 
d="M496 565l-15 -2q-3 -6 -10 -6q-6 0 -8 2q-11 6 -8 16q89 162 205.5 237t300.5 75q77 0 138.5 -48.5t92.5 -119.5t31 -146q0 -280 -211 -473q-210 -192 -535 -192q-183 0 -303.5 124t-120.5 308q0 161 74.5 310t194.5 255t275.5 169t313.5 63q50 0 86 -4q10 0 13 -9
q3 -8 0 -14t-13 -6q-36 4 -79 4q-153 0 -302.5 -61t-265 -162.5t-187 -245.5t-71.5 -299q0 -171 114.5 -287t285.5 -116q312 0 514 184t202 450q0 68 -26 132t-80.5 108.5t-124.5 44.5q-172 0 -285 -68t-196 -223zM774 1296h-8q-6 -6 -12 -6q-7 0 -11 4q-9 10 0 19
q22 22 54 22q23 0 57 -30q36 -31 57 -31q30 0 56 26q5 5 10 5h4q9 -3 12 -9q2 -5 -4 -14q-37 -37 -74 -37q-25 0 -61 31t-49 31t-31 -11z" />
    <glyph glyph-name="Odieresis" unicode="&#xd6;" horiz-adv-x="1294" 
d="M496 565l-15 -2q-3 -6 -10 -6q-6 0 -8 2q-11 6 -8 16q89 162 205.5 237t300.5 75q77 0 138.5 -48.5t92.5 -119.5t31 -146q0 -280 -211 -473q-210 -192 -535 -192q-183 0 -303.5 124t-120.5 308q0 161 74.5 310t194.5 255t275.5 169t313.5 63q50 0 86 -4q10 0 13 -9
q3 -8 0 -14t-13 -6q-36 4 -79 4q-153 0 -302.5 -61t-265 -162.5t-187 -245.5t-71.5 -299q0 -171 114.5 -287t285.5 -116q312 0 514 184t202 450q0 68 -26 132t-80.5 108.5t-124.5 44.5q-172 0 -285 -68t-196 -223zM850 1288l-41 -28q-10 0 -16 6q-6 10 2 18l39 27q6 3 12 0
t6 -11t-2 -12zM952 1288l-51 -31h-6q-5 0 -12 7q-6 8 4 18l47 29q2 2 6 2q6 0 12 -6q10 -9 0 -19z" />
    <glyph glyph-name="multiply" unicode="&#xd7;" horiz-adv-x="620" 
d="M233 190l58 52l-82 75q-4 4 0 11q3 7 10 10q6 3 12 0l82 -78l82 76q4 4 11 4q6 0 8 -4q9 -9 2 -19l-80 -75l72 -66q9 -9 -7 -18q-2 -2 -8 -2t-8 2l-74 67l-61 -57l-8 -4q-1 0 -3 1t-3 1q-7 4 -7 12t4 12z" />
    <glyph glyph-name="Oslash" unicode="&#xd8;" horiz-adv-x="1294" 
d="M145 -193l123 168q-98 57 -151.5 157t-53.5 216q0 161 74.5 310t195 255t276 169t313.5 63q50 0 86 -4q9 0 12 -8q3 -9 0 -15t-12 -6q-36 4 -80 4q-153 0 -302.5 -61t-265 -162.5t-187 -245.5t-71.5 -299q0 -108 51 -200.5t144 -147.5l674 862q-170 -4 -279.5 -74.5
t-191.5 -224.5q-3 -6 -11 -6q-6 0 -8 2q-11 6 -8 16q89 162 205.5 237t300.5 75h10l135 174q4 4 11 4q6 0 8 -4q9 -9 0 -19l-123 -157q102 -19 160.5 -107.5t58.5 -197.5q0 -281 -211 -474q-210 -192 -534 -192q-108 0 -197 47l-133 -172q-2 -4 -8 -4q-7 0 -11 4q-9 9 0 18z
M1206 578v-3q0 100 -58 186.5t-153 96.5l-684 -874q84 -41 178 -41q313 0 515 184t202 451z" />
    <glyph glyph-name="Ugrave" unicode="&#xd9;" horiz-adv-x="1525" 
d="M51 692v-2q0 -12 -14 -12t-14 12q0 32 65 141q36 59 81 123.5t108 139.5t125.5 133.5t133 97.5t130.5 39q88 0 88 -94q0 -58 -35 -147.5t-76 -161.5q-8 -13 -27 -46.5t-40.5 -70.5t-43.5 -74q-15 -27 -24 -39q-90 -157 -123 -217q-125 -234 -125 -352q0 -150 100 -150
q63 0 134.5 35.5t136 90t134.5 133t125.5 152.5t113 161.5t93 146t70.5 119.5q71 147 156 297q5 8 14 8q10 0 13 -6t0 -14q-59 -121 -142 -265q-225 -464 -225 -684q0 -80 45.5 -127t124.5 -47q197 0 430 109q4 2 8 2t6 -2q7 -3 7 -12t-7 -13q-233 -112 -442 -112
q-92 0 -146.5 54t-54.5 146q0 157 125 465q-422 -667 -714 -667q-129 0 -129 178q0 70 43 180q56 146 208 405q170 296 207 394q29 82 29 129q0 65 -59 65q-64 0 -148 -54t-145 -115t-109 -122q-62 -79 -136.5 -192.5t-74.5 -157.5zM936 1501l-2 -2q-10 10 -4 19q6 6 16 6
l146 -97q8 -5 2 -18q-3 -8 -11 -8q-4 0 -6 2q-131 92 -141 98z" />
    <glyph glyph-name="Uacute" unicode="&#xda;" horiz-adv-x="1525" 
d="M51 692v-2q0 -12 -14 -12t-14 12q0 32 65 141q36 59 81 123.5t108 139.5t125.5 133.5t133 97.5t130.5 39q88 0 88 -94q0 -58 -35 -147.5t-76 -161.5q-8 -13 -27 -46.5t-40.5 -70.5t-43.5 -74q-15 -27 -24 -39q-90 -157 -123 -217q-125 -234 -125 -352q0 -150 100 -150
q63 0 134.5 35.5t136 90t134.5 133t125.5 152.5t113 161.5t93 146t70.5 119.5q71 147 156 297q5 8 14 8q10 0 13 -6t0 -14q-59 -121 -142 -265q-225 -464 -225 -684q0 -80 45.5 -127t124.5 -47q197 0 430 109q4 2 8 2t6 -2q7 -3 7 -12t-7 -13q-233 -112 -442 -112
q-92 0 -146.5 54t-54.5 146q0 157 125 465q-422 -667 -714 -667q-129 0 -129 178q0 70 43 180q56 146 208 405q170 296 207 394q29 82 29 129q0 65 -59 65q-64 0 -148 -54t-145 -115t-109 -122q-62 -79 -136.5 -192.5t-74.5 -157.5zM1028 1374l-2 -2h-16q-6 3 -6 12
q0 10 6 13q91 72 145 119q4 4 10 4q7 0 9 -4q10 -10 4 -19q-82 -71 -150 -123z" />
    <glyph glyph-name="Ucircumflex" unicode="&#xdb;" horiz-adv-x="1525" 
d="M51 692v-2q0 -12 -14 -12t-14 12q0 32 65 141q36 59 81 123.5t108 139.5t125.5 133.5t133 97.5t130.5 39q88 0 88 -94q0 -58 -35 -147.5t-76 -161.5q-8 -13 -27 -46.5t-40.5 -70.5t-43.5 -74q-15 -27 -24 -39q-90 -157 -123 -217q-125 -234 -125 -352q0 -150 100 -150
q63 0 134.5 35.5t136 90t134.5 133t125.5 152.5t113 161.5t93 146t70.5 119.5q71 147 156 297q5 8 14 8q10 0 13 -6t0 -14q-59 -121 -142 -265q-225 -464 -225 -684q0 -80 45.5 -127t124.5 -47q197 0 430 109q4 2 8 2t6 -2q7 -3 7 -12t-7 -13q-233 -112 -442 -112
q-92 0 -146.5 54t-54.5 146q0 157 125 465q-422 -667 -714 -667q-129 0 -129 178q0 70 43 180q56 146 208 405q170 296 207 394q29 82 29 129q0 65 -59 65q-64 0 -148 -54t-145 -115t-109 -122q-62 -79 -136.5 -192.5t-74.5 -157.5zM1055 1466l-74 -71q-3 -6 -10 -2
q-7 3 -10 10q-3 6 0 14l77 70q10 10 17 10q6 0 14 -8l70 -80q10 -10 0 -16q-2 -2 -9 -2q-6 0 -10 4z" />
    <glyph glyph-name="Udieresis" unicode="&#xdc;" horiz-adv-x="1525" 
d="M51 692v-2q0 -12 -14 -12t-14 12q0 32 65 141q36 59 81 123.5t108 139.5t125.5 133.5t133 97.5t130.5 39q88 0 88 -94q0 -58 -35 -147.5t-76 -161.5q-8 -13 -27 -46.5t-40.5 -70.5t-43.5 -74q-15 -27 -24 -39q-90 -157 -123 -217q-125 -234 -125 -352q0 -150 100 -150
q63 0 134.5 35.5t136 90t134.5 133t125.5 152.5t113 161.5t93 146t70.5 119.5q71 147 156 297q5 8 14 8q10 0 13 -6t0 -14q-59 -121 -142 -265q-225 -464 -225 -684q0 -80 45.5 -127t124.5 -47q197 0 430 109q4 2 8 2t6 -2q7 -3 7 -12t-7 -13q-233 -112 -442 -112
q-92 0 -146.5 54t-54.5 146q0 157 125 465q-422 -667 -714 -667q-129 0 -129 178q0 70 43 180q56 146 208 405q170 296 207 394q29 82 29 129q0 65 -59 65q-64 0 -148 -54t-145 -115t-109 -122q-62 -79 -136.5 -192.5t-74.5 -157.5zM1014 1454l-41 -29q-10 0 -17 7
q-6 10 2 18l39 27q7 3 13 0t6 -11t-2 -12zM1116 1454l-51 -31h-6q-5 0 -12 7q-6 8 4 18l47 29q2 2 6 2q6 0 12 -6q10 -9 0 -19z" />
    <glyph glyph-name="Yacute" unicode="&#xdd;" horiz-adv-x="1040" 
d="M307 1210q4 4 8 4q5 0 9 -4q12 -9 6 -18q-99 -153 -171.5 -358.5t-72.5 -368.5q0 -35 9.5 -72.5t35 -69.5t62.5 -32q160 0 409 254q215 221 447 510q5 5 32 43q3 6 11 6q7 0 10 -6t0 -15q-398 -488 -451 -1278q0 -9 -6 -12t-12 0t-6 12q38 599 286 1041
q-226 -272 -403 -426q-178 -156 -313 -156q-46 0 -79 36t-46 81.5t-13 89.5q0 164 74 376t174 363zM807 1411q-83 -71 -150 -123l-2 -2h-16q-6 3 -6 12q0 10 6 13q91 72 145 119q4 4 11 4q6 0 8 -4q10 -10 4 -19z" />
    <glyph glyph-name="Thorn" unicode="&#xde;" horiz-adv-x="944" 
d="M74 338q0 36 14 57l2 2q6 6 12 6q8 0 13 -8q6 -10 -2 -18q-10 -17 -13 -37q-3 -18 11 -49q48 -108 211 -131q66 194 194 536q-111 -42 -250 -123q-1 0 -3.5 -1t-4.5 -1q-4 0 -9 6t-5 11q0 7 6 10q140 86 282 137q46 126 93 240q3 10 12 10q8 0 14 -6q7 -7 4 -14l-84 -213
q171 55 344 55q74 0 145 -27t122 -85.5t51 -135.5q0 -95 -60 -172t-151 -124t-205 -79t-215.5 -44.5t-189.5 -12.5q-54 0 -68 2q-53 -151 -63 -211q-3 -9 -13 -12q-10 0 -14 4q-6 7 -4 14q6 49 61 211q-60 8 -111 30t-88.5 67.5t-37.5 105.5zM911 776q-185 0 -356 -63h4
q-96 -251 -203 -555q12 -2 60 -2q79 0 172 10t204.5 38.5t200.5 71.5t149 116t60 165q0 67 -48 119t-113 76t-130 24z" />
    <glyph glyph-name="germandbls" unicode="&#xdf;" horiz-adv-x="741" 
d="M-113 -291h-6q-3 -9 -12 -12q-10 0 -14 4q-8 8 -5 16q30 133 148 326q35 57 87 127.5t122 153t145 137.5t131 55t56 -31q0 -37 -93 -147q-61 -70 -61 -86q6 -6 14 -6h9q21 4 47 12q59 16 86 16q16 0 22 -6q15 -9 15 -35q0 -32 -30 -76.5t-74.5 -85.5t-85.5 -73.5
t-73 -52.5q-2 -2 -8 -2t-8 2q-6 3 -6 12t8 12q40 24 94.5 66.5t105 100.5t50.5 95q0 10 -6 13q-2 2 -8 2q-9 0 -15 -2q-15 -3 -24 -6q-65 -21 -99 -21q-39 0 -39 31q0 28 70 104q94 126 57 135q-82 0 -215 -139q-121 -129 -236 -311.5t-149 -327.5z" />
    <glyph glyph-name="agrave" unicode="&#xe0;" horiz-adv-x="475" 
d="M207 111h-10q-3 -6 -9 -9t-12 0t-6 13q6 28 -20 28q-32 0 -69.5 -31.5t-37.5 -62.5q0 -8 8 -8q17 0 68 39q12 8 18 14q12 8 19 8q8 0 18 -10q49 -49 127 -49q98 0 223 76q4 2 8 2q10 0 13 -8q6 -11 -4 -21q-133 -80 -240 -80q-87 0 -149 56q-61 -58 -99 -58q-37 0 -37 37
q0 38 50 80.5t90 42.5q29 0 41 -18q13 -20 10 -41zM55 334l-2 -2q-10 10 -4 18q6 6 17 6l145 -96q8 -6 2 -18q-3 -9 -10 -9q-3 0 -6 3q-125 88 -142 98z" />
    <glyph glyph-name="aacute" unicode="&#xe1;" horiz-adv-x="475" 
d="M207 111h-10q-3 -6 -9 -9t-12 0t-6 13q6 28 -20 28q-32 0 -69.5 -31.5t-37.5 -62.5q0 -8 8 -8q17 0 68 39q12 8 18 14q12 8 19 8q8 0 18 -10q49 -49 127 -49q98 0 223 76q4 2 8 2q10 0 13 -8q6 -11 -4 -21q-133 -80 -240 -80q-87 0 -149 56q-61 -58 -99 -58q-37 0 -37 37
q0 38 50 80.5t90 42.5q29 0 41 -18q13 -20 10 -41zM135 225l-2 -2h-16q-6 3 -6 13q0 9 6 12q91 72 145 119q4 4 10 4q7 0 9 -4q10 -10 4 -19q-83 -70 -150 -123z" />
    <glyph glyph-name="acircumflex" unicode="&#xe2;" horiz-adv-x="475" 
d="M207 111h-10q-3 -6 -9 -9t-12 0t-6 13q6 28 -20 28q-32 0 -69.5 -31.5t-37.5 -62.5q0 -8 8 -8q17 0 68 39q12 8 18 14q12 8 19 8q8 0 18 -10q49 -49 127 -49q98 0 223 76q4 2 8 2q10 0 13 -8q6 -11 -4 -21q-133 -80 -240 -80q-87 0 -149 56q-61 -58 -99 -58q-37 0 -37 37
q0 38 50 80.5t90 42.5q29 0 41 -18q13 -20 10 -41zM156 301l-74 -72q-3 -6 -10 -2t-11 11q-3 6 0 14l78 70q10 10 17 10q6 0 14 -8l70 -80q10 -10 0 -17q-2 -2 -9 -2q-6 0 -10 4z" />
    <glyph glyph-name="atilde" unicode="&#xe3;" horiz-adv-x="475" 
d="M207 111h-10q-3 -6 -9 -9t-12 0t-6 13q6 28 -20 28q-32 0 -69.5 -31.5t-37.5 -62.5q0 -8 8 -8q17 0 68 39q12 8 18 14q12 8 19 8q8 0 18 -10q49 -49 127 -49q98 0 223 76q4 2 8 2q10 0 13 -8q6 -11 -4 -21q-133 -80 -240 -80q-87 0 -149 56q-61 -58 -99 -58q-37 0 -37 37
q0 38 50 80.5t90 42.5q29 0 41 -18q13 -20 10 -41zM82 260h-4q-6 -6 -12 -6q-7 0 -11 4q-9 9 0 18q23 23 54 23q21 0 57 -31q34 -30 57 -30q30 0 56 26q4 4 10 4h4q10 -3 12 -8t-4 -14q-37 -37 -74 -37q-24 0 -63 31q-37 30 -51 30t-31 -10z" />
    <glyph glyph-name="adieresis" unicode="&#xe4;" horiz-adv-x="475" 
d="M207 111h-10q-3 -6 -9 -9t-12 0t-6 13q6 28 -20 28q-32 0 -69.5 -31.5t-37.5 -62.5q0 -8 8 -8q17 0 68 39q12 8 18 14q12 8 19 8q8 0 18 -10q49 -49 127 -49q98 0 223 76q4 2 8 2q10 0 13 -8q6 -11 -4 -21q-133 -80 -240 -80q-87 0 -149 56q-61 -58 -99 -58q-37 0 -37 37
q0 38 50 80.5t90 42.5q29 0 41 -18q13 -20 10 -41zM145 236l-41 -29q-10 0 -16 6q-6 10 2 18l39 27q6 3 12 0t6 -10q0 -8 -2 -12zM248 236l-51 -31h-7q-6 0 -12 6q-6 8 4 18l47 29q2 2 7 2q6 0 12 -6q9 -9 0 -18z" />
    <glyph glyph-name="aring" unicode="&#xe5;" horiz-adv-x="475" 
d="M207 111h-10q-3 -6 -9 -9t-12 0t-6 13q6 28 -20 28q-32 0 -69.5 -31.5t-37.5 -62.5q0 -8 8 -8q17 0 68 39q12 8 18 14q12 8 19 8q8 0 18 -10q49 -49 127 -49q98 0 223 76q4 2 8 2q10 0 13 -8q6 -11 -4 -21q-133 -80 -240 -80q-87 0 -149 56q-61 -58 -99 -58q-37 0 -37 37
q0 38 50 80.5t90 42.5q29 0 41 -18q13 -20 10 -41zM217 322l-4 2q10 -16 -6 -19q21 -27 0 -67q-20 -39 -53 -39q-45 0 -45 51q0 33 24.5 59.5t56.5 26.5q19 0 27 -14zM180 291l2 -2q-9 9 0 18q-14 0 -31.5 -21.5t-17.5 -37.5q0 -23 17 -23q20 0 32 25q13 26 -2 41z" />
    <glyph glyph-name="ae" unicode="&#xe6;" horiz-adv-x="720" 
d="M367 188l-19 -2q12 0 12 -14t-12 -14q-33 0 -77 -14t-44 -40q0 -27 45 -36q9 -3 9 -15t-11 -12q-34 -3 -34 -18q0 -7 6 -13q9 -3 30 -6h17h22h29q88 0 223 35t199 80q2 2 6 2q7 0 12 -8q9 -12 0 -21q-66 -45 -207.5 -82t-230.5 -37h-23q-24 0 -61 9q-11 4 -25 12
q-47 21 -90 76q-61 -58 -98 -58t-37 37q0 39 49.5 81t89.5 42q29 0 41 -18q14 -21 11 -41q-3 -6 -9 -9t-12 0t-6 13q6 28 -20 28q-32 0 -69.5 -31.5t-37.5 -62.5q0 -8 8 -8q17 0 68 39q12 8 18 14q12 8 19 8q8 0 18 -10q33 -41 47 -55q5 10 29 20q-37 9 -37 47q0 26 30 46
t63.5 28t58.5 8z" />
    <glyph glyph-name="ccedilla" unicode="&#xe7;" 
d="M172 186h4q12 0 12 -12q0 -14 -14 -14q-40 -3 -75.5 -32t-35.5 -67q0 -31 33 -44t70 -13q179 0 317 117q7 3 13 0t6 -8q0 -9 -2 -13q-145 -125 -342 -125q5 -34 51 -34q23 0 37 -14.5t14 -37.5q0 -29 -20 -43t-50 -14q-12 0 -12 14q0 15 15 15q40 0 40 26q0 27 -51 27
q-23 0 -37 19.5t-14 43.5q-34 7 -57 21q-41 21 -41 65q0 50 44 85t95 38z" />
    <glyph glyph-name="egrave" unicode="&#xe8;" horiz-adv-x="552" 
d="M199 188l-6 7q12 0 12 -15q0 -14 -12 -14q-34 0 -77.5 -13.5t-43.5 -39.5q0 -28 45 -37q8 -3 8 -15t-10 -12q-35 -3 -35 -18q0 -23 102 -23q88 0 223 35t199 80q2 2 6 2q8 0 13 -8q9 -12 0 -21q-66 -45 -208 -82t-231 -37q-131 0 -131 52q0 21 31 30q-37 9 -37 47
q0 26 30 46t63.5 28t58.5 8zM104 369l-2 -2q-10 10 -4 18q6 6 17 6l145 -96q9 -6 2 -19q-3 -8 -10 -8q-4 0 -6 2q-135 95 -142 99z" />
    <glyph glyph-name="eacute" unicode="&#xe9;" horiz-adv-x="552" 
d="M199 188l-6 7q12 0 12 -15q0 -14 -12 -14q-34 0 -77.5 -13.5t-43.5 -39.5q0 -28 45 -37q8 -3 8 -15t-10 -12q-35 -3 -35 -18q0 -23 102 -23q88 0 223 35t199 80q2 2 6 2q8 0 13 -8q9 -12 0 -21q-66 -45 -208 -82t-231 -37q-131 0 -131 52q0 21 31 30q-37 9 -37 47
q0 26 30 46t63.5 28t58.5 8zM127 252l-2 -2h-16q-7 4 -7 12t7 12q91 72 145 119q4 4 10 4t8 -4q10 -10 4 -18q-93 -79 -149 -123z" />
    <glyph glyph-name="ecircumflex" unicode="&#xea;" horiz-adv-x="552" 
d="M199 188l-6 7q12 0 12 -15q0 -14 -12 -14q-34 0 -77.5 -13.5t-43.5 -39.5q0 -28 45 -37q8 -3 8 -15t-10 -12q-35 -3 -35 -18q0 -23 102 -23q88 0 223 35t199 80q2 2 6 2q8 0 13 -8q9 -12 0 -21q-66 -45 -208 -82t-231 -37q-131 0 -131 52q0 21 31 30q-37 9 -37 47
q0 26 30 46t63.5 28t58.5 8zM180 332l-74 -72q-3 -6 -10 -2q-7 3 -10 10q-3 6 0 15l78 69q10 10 16 10q7 0 15 -8l69 -80q10 -10 0 -16q-2 -2 -8 -2t-10 4z" />
    <glyph glyph-name="edieresis" unicode="&#xeb;" horiz-adv-x="552" 
d="M199 188l-6 7q12 0 12 -15q0 -14 -12 -14q-34 0 -77.5 -13.5t-43.5 -39.5q0 -28 45 -37q8 -3 8 -15t-10 -12q-35 -3 -35 -18q0 -23 102 -23q88 0 223 35t199 80q2 2 6 2q8 0 13 -8q9 -12 0 -21q-66 -45 -208 -82t-231 -37q-131 0 -131 52q0 21 31 30q-37 9 -37 47
q0 26 30 46t63.5 28t58.5 8zM160 276l-41 -28q-11 0 -17 6q-6 10 2 18l39 27q7 3 13 0t6 -10q0 -9 -2 -13zM262 276l-51 -30h-6q-6 0 -12 6q-6 8 4 18l47 29q2 2 6 2q6 0 12 -6q10 -9 0 -19z" />
    <glyph glyph-name="igrave" unicode="&#xec;" horiz-adv-x="452" 
d="M49 113l-4 -2q3 6 10 6h6q14 -4 11 -13q-12 -42 8 -65q22 -25 61 -25q79 0 185.5 32t179.5 75l8 4q4 0 12 -8q9 -12 -4 -21q-76 -47 -183.5 -78.5t-195.5 -31.5q-59 0 -86 34q-26 34 -8 93zM41 360l-2 -2q-10 10 -4 19q6 6 16 6l146 -96q9 -6 2 -19q-3 -8 -11 -8
q-4 0 -6 2q-131 92 -141 98z" />
    <glyph glyph-name="iacute" unicode="&#xed;" horiz-adv-x="452" 
d="M49 113l-4 -2q3 6 10 6h6q14 -4 11 -13q-12 -42 8 -65q22 -25 61 -25q79 0 185.5 32t179.5 75l8 4q4 0 12 -8q9 -12 -4 -21q-76 -47 -183.5 -78.5t-195.5 -31.5q-59 0 -86 34q-26 34 -8 93zM100 190l-2 -2h-16q-6 3 -6 13q0 9 6 12q91 72 145 119q4 4 11 4q6 0 8 -4
q10 -10 4 -19q-82 -71 -150 -123z" />
    <glyph glyph-name="icircumflex" unicode="&#xee;" horiz-adv-x="452" 
d="M49 113l-4 -2q3 6 10 6h6q14 -4 11 -13q-12 -42 8 -65q22 -25 61 -25q79 0 185.5 32t179.5 75l8 4q4 0 12 -8q9 -12 -4 -21q-76 -47 -183.5 -78.5t-195.5 -31.5q-59 0 -86 34q-26 34 -8 93zM133 303l-74 -72q-3 -6 -10 -2q-6 3 -10 11q-3 6 0 14l78 70q10 10 16 10t14 -8
l70 -80q10 -10 0 -17q-2 -2 -8 -2t-10 4z" />
    <glyph glyph-name="idieresis" unicode="&#xef;" horiz-adv-x="452" 
d="M49 113l-4 -2q3 6 10 6h6q14 -4 11 -13q-12 -42 8 -65q22 -25 61 -25q79 0 185.5 32t179.5 75l8 4q4 0 12 -8q9 -12 -4 -21q-76 -47 -183.5 -78.5t-195.5 -31.5q-59 0 -86 34q-26 34 -8 93zM137 291l-41 -29q-10 0 -16 6q-7 10 2 19l39 26q6 3 12 0t6 -10q0 -8 -2 -12z
M240 291l-52 -31h-6q-6 0 -12 6q-6 9 4 19l47 28q2 2 6 2q7 0 13 -6q9 -9 0 -18z" />
    <glyph glyph-name="eth" unicode="&#xf0;" horiz-adv-x="460" 
d="M76 252v8l-8 -4q-1 0 -3.5 1t-3.5 1q-6 3 -6 12t6 15q36 21 97 51q-67 67 -183 67q-8 3 -12 11q-3 6 0 12t12 6q131 0 209 -84q89 40 162 55h4q8 0 12 -4q6 -6 3 -14q-3 -9 -13 -12q-72 -20 -145 -49q31 -45 37 -103q31 0 55 -4q17 -3 14 -18q-3 -13 -18 -13q-46 4 -49 4
v-8q0 -74 -36.5 -132t-105.5 -58q-26 0 -44.5 18.5t-18.5 44.5q0 64 51.5 108t118.5 52q-6 50 -37 92q-50 -23 -98 -55zM104 27v2q55 0 84 49t29 108v7q-56 -8 -101.5 -44.5t-45.5 -89.5q0 -32 34 -32z" />
    <glyph glyph-name="ntilde" unicode="&#xf1;" horiz-adv-x="589" 
d="M37 14l4 95q3 8 10 12q7 3 12 -2q7 -7 7 -13l-11 -49q106 74 142 74q30 0 43 -22q3 -6 12 -21q21 -55 84 -55q91 0 297 90q12 0 18 -8q6 -12 -4 -19q-210 -94 -309 -94q-25 0 -54 9.5t-38 27.5q-14 28 -17 35q-9 28 -24 28q-33 0 -154 -92q-3 -6 -12 -6t-6 10zM180 295
q-6 -6 -12 -6t-10 4q-6 9 0 18q23 23 53 23q19 0 55 -31t56 -31q28 0 55 27q4 4 10 4h4q10 -3 12 -8t-4 -14q-37 -37 -73 -37q-26 0 -64 30q-39 31 -51 31q-14 0 -31 -10z" />
    <glyph glyph-name="ograve" unicode="&#xf2;" 
d="M84 141l4 -2h4q7 0 12 -6t5 -12q0 -9 -9 -12q-37 -15 -49 -70q-6 -37 12 -37q16 0 25 25q9 24 6 53q-3 11 4 18q4 4 13 4h4q66 -14 153 -14q133 0 221 33h7q7 0 10 -8q3 -13 -8 -19q-88 -33 -230 -33q-90 0 -143 9q3 -33 -16 -64t-50 -31q-50 0 -41 64q9 69 56 96
q2 2 10 6zM39 303v-2q-12 9 -6 18q7 7 16 7l160 -97q8 -5 2 -18q-3 -8 -10 -8q-6 0 -8 2q-135 89 -154 98z" />
    <glyph glyph-name="oacute" unicode="&#xf3;" 
d="M84 141l4 -2h4q7 0 12 -6t5 -12q0 -9 -9 -12q-37 -15 -49 -70q-6 -37 12 -37q16 0 25 25q9 24 6 53q-3 11 4 18q4 4 13 4h4q66 -14 153 -14q133 0 221 33h7q7 0 10 -8q3 -13 -8 -19q-88 -33 -230 -33q-90 0 -143 9q3 -33 -16 -64t-50 -31q-50 0 -41 64q9 69 56 96
q2 2 10 6zM106 195l-2 -2h-16q-6 3 -6 12t6 12q91 72 145 119q4 4 11 4q6 0 8 -4q10 -10 4 -19q-69 -59 -150 -122z" />
    <glyph glyph-name="ocircumflex" unicode="&#xf4;" 
d="M84 141l4 -2h4q7 0 12 -6t5 -12q0 -9 -9 -12q-37 -15 -49 -70q-6 -37 12 -37q16 0 25 25q9 24 6 53q-3 11 4 18q4 4 13 4h4q66 -14 153 -14q133 0 221 33h7q7 0 10 -8q3 -13 -8 -19q-88 -33 -230 -33q-90 0 -143 9q3 -33 -16 -64t-50 -31q-50 0 -41 64q9 69 56 96
q2 2 10 6zM129 266l-74 -71q-3 -6 -10 -2q-7 3 -10 10q-3 6 0 14l78 70q10 10 16 10t14 -8l70 -80q10 -10 0 -16q-3 -3 -8 -3t-10 5z" />
    <glyph glyph-name="otilde" unicode="&#xf5;" 
d="M84 141l4 -2h4q7 0 12 -6t5 -12q0 -9 -9 -12q-37 -15 -49 -70q-6 -37 12 -37q16 0 25 25q9 24 6 53q-3 11 4 18q4 4 13 4h4q66 -14 153 -14q133 0 221 33h7q7 0 10 -8q3 -13 -8 -19q-88 -33 -230 -33q-90 0 -143 9q3 -33 -16 -64t-50 -31q-50 0 -41 64q9 69 56 96
q2 2 10 6zM51 242h-8q-6 -6 -12 -6q-7 0 -11 4q-9 9 0 18q23 23 54 23q21 0 57 -31t57 -31q29 0 56 27q4 4 10 4h4q10 -3 12 -8q3 -5 -4 -15q-37 -37 -73 -37q-26 0 -62 31t-49 31q-14 0 -31 -10z" />
    <glyph glyph-name="odieresis" unicode="&#xf6;" 
d="M84 141l4 -2h4q7 0 12 -6t5 -12q0 -9 -9 -12q-37 -15 -49 -70q-6 -37 12 -37q16 0 25 25q9 24 6 53q-3 11 4 18q4 4 13 4h4q66 -14 153 -14q133 0 221 33h7q7 0 10 -8q3 -13 -8 -19q-88 -33 -230 -33q-90 0 -143 9q3 -33 -16 -64t-50 -31q-50 0 -41 64q9 69 56 96
q2 2 10 6zM104 217l-41 -27q-9 0 -16 7q-6 10 2 18l39 27l8 4q7 0 10 -10q4 -11 -2 -19zM207 219l-51 -31h-6q-6 0 -13 7q-6 8 4 18l47 29q2 2 7 2q6 0 12 -6q9 -10 0 -19z" />
    <glyph glyph-name="divide" unicode="&#xf7;" horiz-adv-x="389" 
d="M328 129h-222q-14 0 -14 14q0 15 12 15h224q12 0 12 -15q0 -14 -12 -14zM252 41l-45 -4q-9 0 -12 6t0 12t12 6l39 7h4q11 0 14 -13q3 -14 -12 -14zM227 242h-2l8 4q7 0 11 -8q6 -13 -2 -21q-17 -14 -58 -14q-10 0 -10 14t12 14q23 0 41 11z" />
    <glyph glyph-name="oslash" unicode="&#xf8;" horiz-adv-x="483" 
d="M47 -59l14 45q-32 19 -32 69q0 34 26.5 62t59.5 28l14 43q4 11 10 11t15 -6q7 -4 4 -13l-60 -178h2q24 0 37 23q12 21 6 55q-3 11 4 18q4 4 13 4h4q66 -14 153 -14q134 0 222 33h6q7 0 10 -8q3 -13 -8 -19q-88 -33 -230 -33q-91 0 -143 9q3 -41 -18 -68t-56 -27h-10
l-14 -45q-3 -8 -13 -8q-8 0 -14 6t-2 13zM59 55l-2 -2q0 -28 13 -41l34 103q-19 -3 -32 -21.5t-13 -38.5z" />
    <glyph glyph-name="ugrave" unicode="&#xf9;" horiz-adv-x="503" 
d="M66 150h-3q3 6 11 6q7 0 10 -6t0 -13q-15 -30 -21 -67q-6 -36 9 -45q60 0 121 88q7 10 16 10t14 -10q47 -68 111 -68q41 0 109.5 23.5t107.5 48.5q8 4 14 4h4q11 -4 11 -10t-9 -15q-36 -30 -111.5 -56t-123.5 -26q-76 0 -129 68q-21 -30 -60.5 -57t-70.5 -27
q-22 0 -31 18t-6 43q5 37 27 91zM57 322l-2 -3q-10 10 -4 19q6 6 17 6l145 -96q9 -6 2 -19q-3 -8 -10 -8q-4 0 -6 2q-135 95 -142 99z" />
    <glyph glyph-name="uacute" unicode="&#xfa;" horiz-adv-x="503" 
d="M66 150h-3q3 6 11 6q7 0 10 -6t0 -13q-15 -30 -21 -67q-6 -36 9 -45q60 0 121 88q7 10 16 10t14 -10q47 -68 111 -68q41 0 109.5 23.5t107.5 48.5q8 4 14 4h4q11 -4 11 -10t-9 -15q-36 -30 -111.5 -56t-123.5 -26q-76 0 -129 68q-21 -30 -60.5 -57t-70.5 -27
q-22 0 -31 18t-6 43q5 37 27 91zM145 209l-2 -2h-16q-6 3 -6 12t6 12q91 72 145 119q4 4 11 4q6 0 8 -4q10 -10 4 -18q-83 -70 -150 -123z" />
    <glyph glyph-name="ucircumflex" unicode="&#xfb;" horiz-adv-x="503" 
d="M66 150h-3q3 6 11 6q7 0 10 -6t0 -13q-15 -30 -21 -67q-6 -36 9 -45q60 0 121 88q7 10 16 10t14 -10q47 -68 111 -68q41 0 109.5 23.5t107.5 48.5q8 4 14 4h4q11 -4 11 -10t-9 -15q-36 -30 -111.5 -56t-123.5 -26q-76 0 -129 68q-21 -30 -60.5 -57t-70.5 -27
q-22 0 -31 18t-6 43q5 37 27 91zM199 295l-74 -72q-3 -6 -10 -2q-8 4 -11 10t0 15l78 69q11 11 17 11q5 0 14 -9l70 -79q10 -10 0 -17q-2 -2 -9 -2q-6 0 -10 4z" />
    <glyph glyph-name="udieresis" unicode="&#xfc;" horiz-adv-x="503" 
d="M66 150h-3q3 6 11 6q7 0 10 -6t0 -13q-15 -30 -21 -67q-6 -36 9 -45q60 0 121 88q7 10 16 10t14 -10q47 -68 111 -68q41 0 109.5 23.5t107.5 48.5q8 4 14 4h4q11 -4 11 -10t-9 -15q-36 -30 -111.5 -56t-123.5 -26q-76 0 -129 68q-21 -30 -60.5 -57t-70.5 -27
q-22 0 -31 18t-6 43q5 37 27 91zM186 256l-41 -29q-10 0 -16 6q-7 10 2 19l39 27q6 3 12 0t6 -11t-2 -12zM289 256l-51 -31h-7q-6 0 -12 6q-6 9 4 19l47 29q2 2 6 2q6 0 13 -7q9 -9 0 -18z" />
    <glyph glyph-name="yacute" unicode="&#xfd;" horiz-adv-x="655" 
d="M715 123l-4 -2h4q11 0 14 -10q4 -14 -8 -17q-226 -54 -383 -110v-17q0 -84 -35 -160.5t-103 -126t-153 -49.5q-39 0 -66.5 25.5t-27.5 64.5q0 152 354 281q-6 39 -28 39q-21 0 -68 -12q-50 -13 -74 -13q-103 0 -88 101q3 10 17 10q13 0 10 -14q-12 -68 59 -68q23 0 70 12
q50 13 74 13q40 0 55 -58q150 52 381 111zM45 -342v-2q114 0 188 95.5t74 213.5v6q-327 -119 -327 -252q0 -27 19 -44t46 -17zM231 195l-2 -2h-16q-6 3 -6 12t6 12q91 72 145 119q4 4 11 4q6 0 8 -4q10 -10 4 -19q-69 -59 -150 -122z" />
    <glyph glyph-name="thorn" unicode="&#xfe;" horiz-adv-x="509" 
d="M-29 -301l125 688q2 4 10 8q6 3 13 0q6 -3 6 -10l-113 -578q23 43 51.5 88.5t72 105t91.5 97t88 37.5q20 0 33.5 -11t13.5 -30q0 -36 -30 -53.5t-70 -17.5q-8 3 -12 10q-3 6 0 12t10 6q28 0 52 10t24 33q0 12 -19 12q-41 0 -92.5 -49.5t-100 -128t-77.5 -131.5t-53 -104
q-3 -6 -8 -6h-6q-12 3 -9 12z" />
    <glyph glyph-name="ydieresis" unicode="&#xff;" horiz-adv-x="655" 
d="M715 123l-4 -2h4q11 0 14 -10q4 -14 -8 -17q-226 -54 -383 -110v-17q0 -84 -35 -160.5t-103 -126t-153 -49.5q-39 0 -66.5 25.5t-27.5 64.5q0 152 354 281q-6 39 -28 39q-21 0 -68 -12q-50 -13 -74 -13q-103 0 -88 101q3 10 17 10q13 0 10 -14q-12 -68 59 -68q23 0 70 12
q50 13 74 13q40 0 55 -58q150 52 381 111zM45 -342v-2q114 0 188 95.5t74 213.5v6q-327 -119 -327 -252q0 -27 19 -44t46 -17zM217 174l-41 -27q-9 0 -16 7q-6 10 2 18l39 27l8 4q7 0 10 -10q4 -11 -2 -19zM319 176l-51 -31h-6q-5 0 -12 7q-6 8 4 18l47 29q2 2 6 2
q6 0 12 -6q9 -9 0 -19z" />
    <glyph glyph-name="Abreve" unicode="&#x102;" horiz-adv-x="1400" 
d="M1456 121l-2 -4q4 2 8 2q6 0 8 -2q7 -3 7 -13q0 -8 -7 -12q-107 -76 -264 -76q-129 0 -201.5 72t-86.5 203q-119 -72 -371 -254q-268 -197 -385 -197q-90 0 -90 90q0 65 63.5 179.5t158.5 237.5t173.5 215.5t140.5 158.5q43 46 119.5 124t184 182.5t199 177.5t124.5 73
q66 0 25 -86q-11 -26 -74 -137q-46 -81 -72.5 -130.5t-63.5 -129t-57.5 -140.5t-35.5 -137.5t-15 -148.5v-27q239 133 422 133q12 0 12 -14q0 -15 -14 -15q-177 0 -418 -137q27 -260 264 -260q144 0 248 72zM528 61h-2q272 201 383 263v41q0 272 244 704q85 152 82 174
q0 8 -10 8q-45 0 -226 -166q-104 -95 -242 -237.5t-293 -319.5t-260.5 -342.5t-105.5 -255.5q0 -61 62 -61q112 0 368 192zM1171 1432l-2 -5q0 6 6.5 12.5t12.5 6.5q7 0 10 -8q14 -39 68 -39q50 0 77 43q4 4 11 4q6 0 8 -2q10 -6 6 -17q-34 -55 -104 -55q-71 0 -93 60z" />
    <glyph glyph-name="abreve" unicode="&#x103;" horiz-adv-x="475" 
d="M207 111h-10q-3 -6 -9 -9t-12 0t-6 13q6 28 -20 28q-32 0 -69.5 -31.5t-37.5 -62.5q0 -8 8 -8q17 0 68 39q12 8 18 14q12 8 19 8q8 0 18 -10q49 -49 127 -49q98 0 223 76q4 2 8 2q10 0 13 -8q6 -11 -4 -21q-133 -80 -240 -80q-87 0 -149 56q-61 -58 -99 -58q-37 0 -37 37
q0 38 50 80.5t90 42.5q29 0 41 -18q13 -20 10 -41zM88 299l-2 -4q0 6 6 12t12 6q8 0 11 -8q14 -39 67 -39q51 0 78 43q4 4 10 4q7 0 9 -2q9 -6 6 -16q-34 -55 -105 -55t-92 59z" />
    <glyph glyph-name="Aogonek" unicode="&#x104;" horiz-adv-x="1400" 
d="M1208 49q144 0 248 72l-2 -4q4 2 8 2q6 0 8 -2q7 -3 7 -13q0 -8 -7 -12q-62 -45 -143 -63q21 -15 41.5 -39.5t20.5 -44.5q0 -45 -48 -51q-25 0 -37 6.5t-18 27.5q-4 14 14 17q12 0 15 -8q4 -13 24 -13q21 3 21 25q0 33 -68 74v-5q-1 0 -2 2t-2 3q-47 -7 -82 -7
q-129 0 -201.5 72t-86.5 203q-119 -72 -371 -254q-268 -197 -385 -197q-90 0 -90 90q0 74 74 202.5t183.5 264.5t241.5 280.5t241 252.5t189 180q186 168 234 168q66 0 25 -86q-11 -26 -74 -137q-52 -93 -87.5 -162.5t-75.5 -163.5t-60.5 -185t-20.5 -175v-27
q239 133 422 133q12 0 12 -14q0 -15 -14 -15q-177 0 -418 -137q27 -260 264 -260zM160 -131q112 0 368 192h-2q272 201 383 263v41q0 88 20 181t58.5 187t75.5 168.5t90 167.5q85 152 82 174q0 8 -10 8q-30 0 -119 -71.5t-193.5 -174.5t-179 -179t-115.5 -121
q-63 -68 -137.5 -156.5t-167.5 -209t-154 -232.5t-61 -177q0 -61 62 -61z" />
    <glyph glyph-name="aogonek" unicode="&#x105;" horiz-adv-x="475" 
d="M197 152q13 -20 10 -41h-10q-3 -6 -9 -9t-12 0t-6 13q6 28 -20 28q-32 0 -69.5 -31.5t-37.5 -62.5q0 -8 8 -8q17 0 68 39q12 8 18 14q12 8 19 8q8 0 18 -10q49 -49 127 -49q98 0 223 76q4 2 8 2q10 0 13 -8q6 -11 -4 -21q-133 -80 -240 -80q-21 0 -29 2q1 -1 3.5 -4
t3.5 -4q24 -27 24 -49q0 -45 -47 -51q-24 0 -36.5 6.5t-18.5 28.5q-3 9 12 12h6q9 0 12 -6q4 -13 25 -13q20 3 20 25q0 31 -55 68l-12 6l-2 -2q-30 15 -55 37q-61 -58 -99 -58q-37 0 -37 37q0 38 50 80.5t90 42.5q29 0 41 -18z" />
    <glyph glyph-name="Cacute" unicode="&#x106;" horiz-adv-x="1536" 
d="M2044 766l-6 -4q6 -6 6 -14q0 -10 -6 -13t-17 4q-157 121 -469 121q-296 0 -642.5 -147.5t-583.5 -356.5q-238 -209 -238 -370q0 -71 54 -122.5t123.5 -73t137.5 -21.5q253 0 600 105t584 243q4 2 10 2q7 0 9 -2q6 -3 6 -13q0 -9 -6 -12q-242 -139 -593.5 -245.5
t-606.5 -106.5q-56 0 -115 15.5t-112 45t-86.5 79t-33.5 110.5q0 129 148 289q152 164 384 305t489.5 225t473.5 84q322 0 490 -127zM1411 1112l-2 -2h-16q-7 4 -7 12q0 10 7 13q102 81 145 118q4 4 10 4t8 -4q10 -10 5 -18q-83 -71 -150 -123z" />
    <glyph glyph-name="cacute" unicode="&#x107;" 
d="M172 186h4q12 0 12 -12q0 -14 -14 -14q-40 -3 -75.5 -32t-35.5 -67q0 -31 33 -44t70 -13q179 0 317 117q7 3 13 0t6 -8q0 -9 -2 -13q-146 -125 -334 -125q-49 0 -91 21.5t-42 66.5q0 50 44 85t95 38zM127 227l-2 -2h-16q-7 3 -7 13q0 8 7 12q91 72 145 119q4 4 10 4t8 -4
q10 -10 4 -19q-93 -79 -149 -123z" />
    <glyph glyph-name="Ccaron" unicode="&#x10c;" horiz-adv-x="1536" 
d="M2044 766l-6 -4q6 -6 6 -14q0 -10 -6 -13t-17 4q-157 121 -469 121q-296 0 -642.5 -147.5t-583.5 -356.5q-238 -209 -238 -370q0 -71 54 -122.5t123.5 -73t137.5 -21.5q253 0 600 105t584 243q4 2 10 2q7 0 9 -2q6 -3 6 -13q0 -9 -6 -12q-242 -139 -593.5 -245.5
t-606.5 -106.5q-56 0 -115 15.5t-112 45t-86.5 79t-33.5 110.5q0 129 148 289q152 164 384 305t489.5 225t473.5 84q322 0 490 -127zM1493 1038l-31 52q-6 12 6 18q2 2 9 2t10 -8l22 -43l86 49q4 2 9 2q7 0 10 -14q3 -10 -6 -13l-90 -51q-8 -4 -11 -4q-7 0 -14 10z" />
    <glyph glyph-name="ccaron" unicode="&#x10d;" 
d="M172 186h4q12 0 12 -12q0 -14 -14 -14q-40 -3 -75.5 -32t-35.5 -67q0 -31 33 -44t70 -13q179 0 317 117q7 3 13 0t6 -8q0 -9 -2 -13q-146 -125 -334 -125q-49 0 -91 21.5t-42 66.5q0 50 44 85t95 38zM170 287l-31 51q-6 12 6 18q2 2 9 2t10 -8l22 -43l86 49q4 2 9 2
q7 0 10 -14q3 -9 -6 -12l-90 -51q-10 -5 -11 -5q-7 0 -14 11z" />
    <glyph glyph-name="Dcaron" unicode="&#x10e;" horiz-adv-x="1705" 
d="M647 686l-10 -2q6 6 14 6q11 -4 11 -10q0 -5 -3 -14q-73 -81 -191.5 -232.5t-233.5 -331.5t-115 -249q0 -32 14.5 -42t48.5 -10q218 0 493 89t503 212q70 38 141 85t150.5 113.5t140 134.5t100 150.5t39.5 159.5q0 79 -45.5 140t-113 96t-155.5 57t-161.5 29.5
t-143.5 7.5q-383 0 -745 -98q-56 -15 -119 -35.5t-145 -53t-156.5 -69.5t-149 -85t-128.5 -98.5t-87.5 -113t-33.5 -125.5q0 -69 53 -96q17 -6 6 -20q-7 -7 -18 -7q-70 37 -70 121q0 169 232 336q171 124 413.5 211t481.5 125.5t466 38.5q61 0 125.5 -6.5t141 -20.5
t143 -41.5t122 -65.5t88 -96.5t32.5 -130.5q0 -80 -40 -165t-101 -155.5t-142 -139t-153.5 -117t-145.5 -88.5q-234 -128 -510 -217.5t-502 -89.5q-48 0 -70 17.5t-22 64.5q0 71 116.5 254.5t239 340t195.5 236.5zM1118 1214l-31 52q-6 12 7 18q2 2 8 2q7 0 10 -8l23 -43
l86 49q4 2 8 2q7 0 10 -14q3 -9 -6 -12l-90 -52q-8 -4 -10 -4q-8 0 -15 10z" />
    <glyph glyph-name="dcaron" unicode="&#x10f;" horiz-adv-x="1001" 
d="M186 160l2 2q10 0 13 -6q4 -7 -2 -13t-13 -6q-56 0 -116 -31q-59 -30 -56 -61q0 -8 9 -8q56 0 115.5 39.5t107 100.5t82.5 119t59 112q3 8 12 8t15 -6q7 -7 4 -15q-29 -129 -29 -202q0 -154 92 -154t246 80q8 4 10 4q5 0 8 -10q4 -11 -6 -17q-162 -84 -258 -84
q-121 0 -121 183q0 37 7 98q-26 -46 -60 -92t-78 -92.5t-97 -75.5t-103 -29q-14 0 -26.5 10.5t-12.5 24.5q-3 40 61 80q65 41 135 41zM649 666l56 -203q3 -8 -3 -14q-7 -7 -14 -7q-8 0 -12 11l-53 200q-3 16 10 19h6q7 0 10 -6z" />
    <glyph glyph-name="Dcroat" unicode="&#x110;" horiz-adv-x="1705" 
d="M709 262l-351 23q-241 -332 -241 -435q0 -32 14.5 -41.5t48.5 -9.5q218 0 493 89t503 212q70 38 141 85t150.5 113.5t140 134.5t100 150.5t39.5 159.5q0 79 -45.5 140t-113 96t-155.5 57t-161.5 29.5t-143.5 7.5q-383 0 -745 -98q-56 -15 -119 -35.5t-145 -53
t-156.5 -69.5t-149 -85t-128.5 -98.5t-87.5 -113t-33.5 -125.5q0 -69 53 -96q17 -6 6 -20q-7 -7 -18 -7q-70 37 -70 121q0 169 232 336q171 124 413.5 211t481.5 125.5t466 38.5q61 0 125.5 -6.5t141 -20.5t143 -41.5t122 -65.5t88 -96.5t32.5 -130.5q0 -80 -40 -165
t-101 -155.5t-142 -139t-153.5 -117t-145.5 -88.5q-234 -128 -510 -217.5t-502 -89.5q-48 0 -70 17.5t-22 64.5q0 101 240 436l-60 6q-14 0 -14 14q0 15 12 15l78 -7q24 33 59.5 80t92.5 120.5t101.5 123t55.5 49.5q11 -4 11 -10q0 -8 -2 -14q-137 -152 -281 -351l322 -24
q12 0 12 -15q0 -14 -12 -14z" />
    <glyph glyph-name="dcroat" unicode="&#x111;" horiz-adv-x="675" 
d="M481 264h-88q-1 -15 -2 -33t-1.5 -28t-0.5 -15q0 -153 92 -153t246 80q8 4 10 4q5 0 8 -10q4 -11 -6 -17q-162 -84 -258 -84q-121 0 -121 182q0 58 2 76h-10q-26 -43 -59 -85t-75.5 -84.5t-93 -68.5t-97.5 -26q-14 0 -26.5 10.5t-12.5 24.5q-3 40 61 80q65 41 135 41
q10 0 13 -6q4 -7 -2 -13t-13 -6q-56 0 -116 -31q-59 -30 -56 -61q0 -8 8 -8q54 0 115 42.5t102 91t74 101.5h-55q-14 0 -14 15q0 14 12 14h74q34 58 55 104q3 9 12 9q8 0 15 -7q6 -7 4 -14q-9 -35 -21 -96h90q13 0 13 -14q0 -15 -13 -15z" />
    <glyph glyph-name="Eogonek" unicode="&#x118;" horiz-adv-x="1298" 
d="M1016 1180q53 0 67 -2l9 -9q9 0 12 -6q3 -7 -2 -12q-6 -6 -15 -6q-14 2 -63 2q-74 0 -157 -10.5t-174 -33t-177 -55.5t-163.5 -81.5t-135.5 -107t-92.5 -136t-34.5 -164.5q0 -58 26.5 -99.5t71 -63t92.5 -31t103 -9.5q203 0 371 86q6 3 12 0t6 -10t-8 -12
q-234 -176 -234 -375q0 -58 46 -92.5t106 -34.5q167 0 356.5 55t313.5 148q8 4 10 4q1 0 3 -1t3 -1q6 -3 6 -12t-6 -15q-111 -83 -285.5 -139.5t-324.5 -65.5q67 -48 67 -88q0 -45 -47 -51q-24 0 -36.5 6.5t-18.5 28.5q-3 5 4 12q6 6 14 6q10 0 13 -6q4 -12 24 -12
q21 3 21 25q0 32 -68 73l-2 -8q-6 3 -6 12h-43q-73 0 -126.5 43t-53.5 113q0 165 162 330q-130 -46 -271 -49q-64 0 -118.5 10.5t-106 34.5t-81.5 72t-30 116q0 103 46 194t123 157.5t175.5 119t207 85t212.5 49t197 16.5z" />
    <glyph glyph-name="eogonek" unicode="&#x119;" horiz-adv-x="552" 
d="M182 -27l-12 9q-123 3 -123 49q0 21 31 30q-37 9 -37 48q0 26 30 45.5t63.5 27.5t58.5 8q12 0 12 -14t-12 -14q-34 0 -77.5 -13.5t-43.5 -39.5q0 -28 45 -37q8 -3 8 -15t-10 -12q-35 -3 -35 -18q0 -23 102 -23q88 0 223 35t199 80q2 2 6 2q8 0 13 -8q9 -12 0 -21
q-62 -42 -183.5 -75t-214.5 -42q54 -45 54 -79q0 -46 -48 -52q-24 0 -36.5 6.5t-18.5 28.5q-4 14 14 17q12 0 15 -9q4 -12 24 -12q21 3 21 25q0 32 -68 73z" />
    <glyph glyph-name="Ecaron" unicode="&#x11a;" horiz-adv-x="1298" 
d="M1083 1178l9 -9q9 0 12 -6q3 -7 -2 -12q-6 -6 -15 -6q-14 2 -63 2q-90 0 -190.5 -15.5t-206 -45t-201 -79t-171.5 -112.5t-120.5 -150t-44.5 -186q0 -58 26.5 -99.5t71 -63t92.5 -31t103 -9.5q203 0 371 86q6 3 12 0t6 -10t-8 -12q-234 -176 -234 -375q0 -58 46 -92.5
t106 -34.5q167 0 356.5 55t313.5 148q8 4 10 4q1 0 3 -1t3 -1q6 -3 6 -12t-6 -15q-127 -95 -322 -151t-366 -56q-73 0 -126.5 43t-53.5 113q0 165 162 330q-130 -46 -271 -49q-64 0 -118.5 10.5t-106 34.5t-81.5 72t-30 116q0 90 35 171t94.5 142.5t139 113t168 87t182 60
t179.5 36t163 11.5q53 0 67 -2zM758 1243l-31 51q-6 13 6 19q2 2 8 2q8 0 11 -8l22 -43l86 49q4 2 8 2q8 0 11 -15q3 -9 -7 -12l-90 -51q-8 -4 -10 -4q-7 0 -14 10z" />
    <glyph glyph-name="ecaron" unicode="&#x11b;" horiz-adv-x="552" 
d="M199 188l-6 7q12 0 12 -15q0 -14 -12 -14q-34 0 -77.5 -13.5t-43.5 -39.5q0 -28 45 -37q8 -3 8 -15t-10 -12q-35 -3 -35 -18q0 -23 102 -23q88 0 223 35t199 80q2 2 6 2q8 0 13 -8q9 -12 0 -21q-66 -45 -208 -82t-231 -37q-131 0 -131 52q0 21 31 30q-37 9 -37 47
q0 26 30 46t63.5 28t58.5 8zM156 276l-31 52q-6 12 6 18q2 2 8 2q8 0 11 -8l22 -43l86 49q4 2 8 2q7 0 10 -14q3 -9 -6 -12l-90 -52q-8 -4 -10 -4q-7 0 -14 10z" />
    <glyph glyph-name="Itilde" unicode="&#x128;" horiz-adv-x="1550" 
d="M330 236l-6 4q9 0 12 -9q3 -8 0 -14t-12 -6q-96 13 -158 67t-62 146q0 108 123 240q206 221 545 367.5t639 146.5q98 0 163.5 -58.5t65.5 -154.5q0 -84 -43 -198.5t-113 -231.5t-163.5 -232t-189 -204t-194.5 -144t-177 -55q-182 0 -182 151q0 83 53 181t121 157q2 2 6 2
q6 0 8 -2q10 -3 12 -8q3 -5 -4 -12q-66 -61 -115 -150.5t-49 -167.5q0 -123 154 -123q64 0 144.5 41t155.5 105.5t134 125t105 117.5q70 86 136 189.5t121.5 233.5t55.5 221q0 85 -57.5 135.5t-143.5 50.5q-268 0 -572.5 -118.5t-510.5 -299.5q-197 -173 -197 -309
q0 -83 54.5 -128.5t140.5 -55.5zM1276 1323q-6 -6 -12 -6q-7 0 -11 4q-6 9 0 18q23 23 54 23q19 0 55 -31t55 -31q29 0 56 27q4 4 10 4h4q10 -3 12 -8t-4 -14q-37 -37 -74 -37q-24 0 -63 31q-38 30 -51 30q-14 0 -31 -10z" />
    <glyph glyph-name="itilde" unicode="&#x129;" horiz-adv-x="452" 
d="M49 113l-4 -2q3 6 10 6h6q14 -4 11 -13q-12 -42 8 -65q22 -25 61 -25q79 0 185.5 32t179.5 75l8 4q4 0 12 -8q9 -12 -4 -21q-76 -47 -183.5 -78.5t-195.5 -31.5q-59 0 -86 34q-26 34 -8 93zM-10 238q-7 -7 -13 -7q-5 0 -10 5q-6 9 0 18q22 22 53 22q21 0 56 -30
q36 -31 55 -31q28 0 55 27q4 4 11 4h4q10 -3 12 -8q3 -5 -4 -15q-37 -37 -74 -37q-24 0 -63 31t-52 31t-30 -10z" />
    <glyph glyph-name="dotlessi" unicode="&#x131;" horiz-adv-x="452" 
d="M49 113l-4 -2q3 6 10 6h6q14 -4 11 -13q-12 -42 8 -65q22 -25 61 -25q79 0 185.5 32t179.5 75l8 4q4 0 12 -8q9 -12 -4 -21q-76 -47 -183.5 -78.5t-195.5 -31.5q-59 0 -86 34q-26 34 -8 93z" />
    <glyph glyph-name="Lacute" unicode="&#x139;" horiz-adv-x="1566" 
d="M805 1194l-2 -4q3 15 16 12t10 -18q-68 -239 -174 -482t-257 -482.5t-316 -401.5q682 82 1038 153q351 70 504 148q4 2 8 2t6 -2q7 -3 7 -13q0 -9 -9 -12q-281 -163 -1575 -307q-26 0 -26 18q0 9 4 13q256 256 454.5 624t311.5 752zM952 1313l-2 -2h-16q-6 3 -6 12t6 12
q91 72 145 119q4 4 11 4q6 0 8 -4q10 -10 4 -18q-82 -70 -150 -123z" />
    <glyph glyph-name="lacute" unicode="&#x13a;" 
d="M365 416l2 4q0 -66 -52.5 -135t-118.5 -115t-130 -72q27 -73 129 -73q119 0 294 100q13 0 17 -8q6 -12 -4 -19q-180 -104 -307 -104q-78 0 -124 40.5t-46 117.5q0 133 88 237q89 105 178 105q74 0 74 -78zM55 154l2 2q0 -21 2 -27q43 17 89.5 45t90.5 66t72.5 86t28.5 94
q0 49 -45 49q-81 0 -160 -98q-80 -100 -80 -217zM268 602l-2 -2h-16q-6 3 -6 12q0 10 6 13q102 81 145 118q5 5 11 5t8 -5q10 -10 4 -18q-82 -71 -150 -123z" />
    <glyph glyph-name="Lcaron" unicode="&#x13d;" horiz-adv-x="1566" 
d="M805 1194l-2 -4q3 15 16 12t10 -18q-68 -239 -174 -482t-257 -482.5t-316 -401.5q682 82 1038 153q351 70 504 148q4 2 8 2t6 -2q7 -3 7 -13q0 -9 -9 -12q-281 -163 -1575 -307q-26 0 -26 18q0 9 4 13q256 256 454.5 624t311.5 752zM1094 1391l55 -203q3 -9 -2 -14
q-7 -7 -14 -7q-9 0 -13 11l-53 200q-3 16 10 19h6q8 0 11 -6z" />
    <glyph glyph-name="lcaron" unicode="&#x13e;" horiz-adv-x="702" 
d="M365 416l2 4q0 -66 -52.5 -135t-118.5 -115t-130 -72q27 -73 129 -73q119 0 294 100q13 0 17 -8q6 -12 -4 -19q-180 -104 -307 -104q-78 0 -124 40.5t-46 117.5q0 133 88 237q89 105 178 105q74 0 74 -78zM55 154l2 2q0 -21 2 -27q43 17 89.5 45t90.5 66t72.5 86t28.5 94
q0 49 -45 49q-81 0 -160 -98q-80 -100 -80 -217zM508 813l55 -203q3 -9 -2 -14q-6 -6 -14 -6q-9 0 -12 10l-54 201q-3 15 11 18h6q7 0 10 -6z" />
    <glyph glyph-name="Lslash" unicode="&#x141;" horiz-adv-x="1566" 
d="M834 473q3 -15 -13 -18l-336 -88q-205 -354 -401 -547q682 82 1038 153q351 70 504 148q4 2 8 2t6 -2q7 -3 7 -12q0 -10 -9 -13q-281 -163 -1575 -307q-26 0 -26 18q0 9 4 13q215 215 403 536l-153 -41q-19 0 -19 17q0 8 11 12l184 49q2 3 5 9.5t5 9.5q209 369 330 784
l-2 -4q3 15 16 12t10 -18q-123 -429 -323 -783l307 82h4q12 0 15 -12z" />
    <glyph glyph-name="lslash" unicode="&#x142;" 
d="M516 334l-203 -51q-86 -120 -245 -185q27 -73 129 -73q120 0 295 100q12 0 16 -8q6 -12 -4 -19q-180 -104 -307 -104q-78 0 -124 40.5t-46 117.5q0 31 4 55l-45 -12q-19 0 -19 16q0 9 10 12l60 17q25 93 97 174.5t159 81.5q74 0 74 -78q0 -44 -31 -101l174 48h4
q11 0 14 -13q3 -15 -12 -18zM295 469h2q-75 0 -137.5 -69t-87.5 -150l227 59q41 65 41 111q0 49 -45 49zM59 154q0 -21 2 -27q140 59 209 143l-204 -53q-7 -35 -7 -63z" />
    <glyph glyph-name="Nacute" unicode="&#x143;" horiz-adv-x="1470" 
d="M-72 -238l-12 -16q9 -12 -4 -18q-2 -2 -8 -2q-7 0 -13 6q-36 56 -36 153q0 111 54 265.5t120.5 280.5t140.5 237q27 41 64 92t93.5 119.5t109.5 123t110.5 92.5t99.5 38q37 0 66 -19q39 -27 65 -111t35 -155q22 -195 27 -266q6 -90 26 -275q12 -112 54 -213
q35 -88 112 -88q92 0 164 96q71 96 105 235.5t34 280.5q0 98 -14 164q-3 6 4 13q4 4 10 4h4q10 -3 13 -13q14 -66 14 -165q0 -153 -37 -295q-14 -56 -37.5 -111.5t-59 -110.5t-86.5 -89.5t-108 -34.5q-40 0 -72.5 23.5t-52.5 57.5t-35 81t-21.5 82.5t-10.5 74.5
q-23 218 -27 287v-2q-2 36 -5.5 81.5t-4.5 53.5q-15 200 -55 313q-28 80 -95 80q-99 0 -284 -215q-77 -89 -158 -210.5t-154 -258t-120 -279t-47 -251.5q0 -87 32 -136zM1075 1282l-2 -2h-16q-6 3 -6 12q0 10 6 13q102 81 145 118q4 4 10 4q7 0 9 -4q10 -10 4 -18
q-83 -71 -150 -123z" />
    <glyph glyph-name="nacute" unicode="&#x144;" horiz-adv-x="589" 
d="M37 14l4 95q3 8 10 12q7 3 12 -2q7 -7 7 -13l-11 -49q106 74 142 74q30 0 43 -22q3 -6 12 -21q21 -55 84 -55q91 0 297 90q12 0 18 -8q6 -12 -4 -19q-210 -94 -309 -94q-25 0 -54 9.5t-38 27.5q-14 28 -17 35q-9 28 -24 28q-33 0 -154 -92q-3 -6 -12 -6t-6 10zM174 227
l-2 -2h-16q-6 3 -6 13q0 9 6 12q91 72 145 119q4 4 10 4t8 -4q11 -11 5 -19q-82 -70 -150 -123z" />
    <glyph glyph-name="Ncaron" unicode="&#x147;" horiz-adv-x="1470" 
d="M-72 -238l-12 -16q9 -12 -4 -18q-2 -2 -8 -2q-7 0 -13 6q-36 56 -36 153q0 111 54 265.5t120.5 280.5t140.5 237q27 41 64 92t93.5 119.5t109.5 123t110.5 92.5t99.5 38q37 0 66 -19q39 -27 65 -111t35 -155q22 -195 27 -266q6 -90 26 -275q12 -112 54 -213
q35 -88 112 -88q92 0 164 96q71 96 105 235.5t34 280.5q0 98 -14 164q-3 6 4 13q4 4 10 4h4q10 -3 13 -13q14 -66 14 -165q0 -153 -37 -295q-14 -56 -37.5 -111.5t-59 -110.5t-86.5 -89.5t-108 -34.5q-40 0 -72.5 23.5t-52.5 57.5t-35 81t-21.5 82.5t-10.5 74.5
q-23 218 -27 287v-2q-2 36 -5.5 81.5t-4.5 53.5q-15 200 -55 313q-28 80 -95 80q-99 0 -284 -215q-77 -89 -158 -210.5t-154 -258t-120 -279t-47 -251.5q0 -87 32 -136zM809 1255l-31 52q-6 12 6 18q2 2 9 2t10 -8l22 -43l86 49q4 2 9 2q7 0 10 -14q3 -10 -6 -13l-90 -51
q-8 -4 -11 -4q-7 0 -14 10z" />
    <glyph glyph-name="ncaron" unicode="&#x148;" horiz-adv-x="589" 
d="M37 14l4 95q3 8 10 12q7 3 12 -2q7 -7 7 -13l-11 -49q106 74 142 74q30 0 43 -22q3 -6 12 -21q21 -55 84 -55q91 0 297 90q12 0 18 -8q6 -12 -4 -19q-210 -94 -309 -94q-25 0 -54 9.5t-38 27.5q-14 28 -17 35q-9 28 -24 28q-33 0 -154 -92q-3 -6 -12 -6t-6 10zM199 231
l-31 52q-6 12 6 18q2 2 8 2q8 0 11 -8l22 -43l86 49q4 2 8 2q7 0 10 -14q3 -10 -6 -13l-90 -51q-8 -4 -10 -4q-7 0 -14 10z" />
    <glyph glyph-name="Ohungarumlaut" unicode="&#x150;" horiz-adv-x="1294" 
d="M496 565l-15 -2q-3 -6 -10 -6q-6 0 -8 2q-11 6 -8 16q89 162 205.5 237t300.5 75q77 0 138.5 -48.5t92.5 -119.5t31 -146q0 -280 -211 -473q-210 -192 -535 -192q-183 0 -303.5 124t-120.5 308q0 161 74.5 310t194.5 255t275.5 169t313.5 63q50 0 86 -4q10 0 13 -9
q3 -8 0 -14t-13 -6q-36 4 -79 4q-153 0 -302.5 -61t-265 -162.5t-187 -245.5t-71.5 -299q0 -171 114.5 -287t285.5 -116q312 0 514 184t202 450q0 68 -26 132t-80.5 108.5t-124.5 44.5q-172 0 -285 -68t-196 -223zM819 1231l-2 2q-8 -4 -12 -4q-2 0 -10 4q-9 9 2 20
q107 99 149 148q6 3 12 0q9 -5 11 -8q3 -7 0 -13q-22 -27 -150 -149zM887 1208l4 -2q-4 -2 -10 -2q-10 0 -15 8q-9 12 6 21q68 47 121 115q4 4 11 4q6 0 8 -2q10 -7 4 -19q-52 -65 -129 -123z" />
    <glyph glyph-name="ohungarumlaut" unicode="&#x151;" 
d="M84 141l4 -2h4q7 0 12 -6t5 -12q0 -9 -9 -12q-37 -15 -49 -70q-6 -37 12 -37q16 0 25 25q9 24 6 53q-3 11 4 18q4 4 13 4h4q66 -14 153 -14q133 0 221 33h7q7 0 10 -8q3 -13 -8 -19q-88 -33 -230 -33q-90 0 -143 9q3 -33 -16 -64t-50 -31q-50 0 -41 64q9 69 56 96
q2 2 10 6zM113 197l-2 2q-8 -4 -13 -4q-2 0 -10 4q-9 9 2 20q112 103 150 148q6 3 12 0q7 -4 10 -9q3 -6 0 -12q-25 -31 -149 -149zM180 174l4 -4q-4 -2 -10 -2q-9 0 -14 8q-9 12 6 21q70 48 121 114q6 6 12 6q4 0 6 -2q10 -7 4 -18q-53 -65 -129 -123z" />
    <glyph glyph-name="OE" unicode="&#x152;" horiz-adv-x="1642" 
d="M891 999l-23 -2q5 -5 2 -14q-3 -8 -12 -8q-8 0 -14 6q-27 36 -79.5 61t-98.5 25q-112 0 -228.5 -73t-191.5 -173q-78 -105 -115 -252t-37 -297q0 -86 33 -168t101.5 -139t156.5 -57q153 0 264 194t111 467q0 246 -80 299q-8 3 -8 13q0 6 4 12t10 6q1 0 3 -1t3 -1
q211 -87 330 -115q63 -14 127 -14q138 0 281 57q4 2 8 2q7 0 10 -10q3 -15 -8 -20q-146 -58 -293 -58q-117 0 -260 47q-30 10 -137 50q41 -74 41 -271q0 -146 -35.5 -286t-110.5 -246q225 -117 451 -117q297 0 583 209q4 4 9 4q1 0 3 -1t3 -1q8 -3 8 -12t-6 -15
q-292 -213 -598 -213q-220 0 -469 123q-102 -135 -238 -135q-74 0 -135.5 36.5t-99.5 95t-59 127.5t-21 138q0 490 319 717q154 111 287 111q53 0 115 -30t94 -71zM825 395l-2 2q-9 0 -12 6q-3 7 0 13t12 6q245 0 473 -35q11 -4 13 -8q3 -7 -2 -12q-7 -7 -15 -7
q-224 35 -467 35z" />
    <glyph glyph-name="oe" unicode="&#x153;" horiz-adv-x="651" 
d="M297 188v-4q12 0 12 -14t-12 -14q-36 0 -73 -11t-50 -34v-7q0 -27 45 -36q8 -3 8 -15t-10 -12q-35 -3 -35 -18q0 -23 103 -23q88 0 223 35t199 80q2 2 6 2q7 0 12 -8q9 -12 0 -21q-66 -45 -207.5 -82t-230.5 -37q-131 0 -131 51q0 22 30 31q-33 6 -36 39q-9 -3 -9 -6
q6 -46 -12 -80q-17 -33 -49 -33q-35 0 -47 37t6 80q18 44 59 62h4q12 0 15 -15q3 -9 -6 -12q-26 -12 -39 -41q-12 -27 -9 -51q3 -25 19 -25q15 0 24 35q10 37 7 61q-3 10 12 19q13 7 37 18q46 49 135 49z" />
    <glyph glyph-name="Racute" unicode="&#x154;" horiz-adv-x="1730" 
d="M633 831l-2 5q3 6 10 6q6 0 8 -2q11 -6 8 -19q-103 -236 -204 -514q-94 -259 -111 -348q-3 -9 -12 -12q-2 -2 -8 -2q-5 0 -7 2q-7 3 -4 12q18 93 113 350q91 246 209 522zM-391 383l-6 -6q-3 -9 -13 -12q-10 0 -14 4q-7 7 -4 16q25 92 137 207q209 215 522.5 344
t614.5 129q40 0 85 -10t88 -29.5t71 -55t28 -79.5q0 -51 -37.5 -123t-79.5 -121q-9 -11 -25 -29.5t-43.5 -49.5t-51.5 -58l-40 -46t-39 -45t-28 -32q-37 -42 -72.5 -108t-35.5 -109q0 -80 88 -147q89 -68 282 -68q340 0 750 168q4 2 8 2q7 0 10 -12q3 -10 -12 -19
q-401 -168 -756 -168q-213 0 -307 76t-94 166q0 50 34.5 116.5t75.5 112.5q9 10 46.5 54.5t66.5 78.5q32 32 139 158q95 112 95 201q0 39 -25 69.5t-64 46t-78 23.5t-75 8q-212 0 -432.5 -64t-401.5 -177q-56 -35 -113.5 -78t-122 -99t-111.5 -118.5t-60 -116.5zM883 1161
l-2 -2h-17q-6 3 -6 12q0 10 6 13q101 80 146 119q4 4 10 4t8 -4q10 -10 4 -19q-93 -79 -149 -123z" />
    <glyph glyph-name="racute" unicode="&#x155;" horiz-adv-x="591" 
d="M647 121l-6 2q2 2 8 2q7 0 10 -8q6 -13 -2 -21q-90 -61 -223 -99t-246 -38q-32 0 -58 19.5t-26 50.5q0 21 17 67q-4 0 -11.5 -1t-11.5 -1q-25 0 -51 15q-29 19 -29 55q0 9 15 12h4q10 0 10 -12q0 -26 25 -35q16 -4 26 -4q18 0 39 6h6q10 0 13 -6q7 -10 -2 -19
q-21 -30 -21 -73q0 -19 20 -30t40 -11q108 0 238.5 36t215.5 93zM156 281l-2 -2h-17q-6 3 -6 12t6 12q101 80 146 119q4 4 10 4t8 -4q10 -10 4 -19q-80 -68 -149 -122z" />
    <glyph glyph-name="Rcaron" unicode="&#x158;" horiz-adv-x="1730" 
d="M633 831l-2 5q3 6 10 6q6 0 8 -2q11 -6 8 -19q-103 -236 -204 -514q-94 -259 -111 -348q-3 -9 -12 -12q-2 -2 -8 -2q-5 0 -7 2q-7 3 -4 12q18 93 113 350q91 246 209 522zM-391 383l-6 -6q-3 -9 -13 -12q-10 0 -14 4q-7 7 -4 16q25 92 137 207q209 215 522.5 344
t614.5 129q40 0 85 -10t88 -29.5t71 -55t28 -79.5q0 -51 -37.5 -123t-79.5 -121q-9 -11 -25 -29.5t-43.5 -49.5t-51.5 -58l-40 -46t-39 -45t-28 -32q-37 -42 -72.5 -108t-35.5 -109q0 -80 88 -147q89 -68 282 -68q340 0 750 168q4 2 8 2q7 0 10 -12q3 -10 -12 -19
q-401 -168 -756 -168q-213 0 -307 76t-94 166q0 50 34.5 116.5t75.5 112.5q9 10 46.5 54.5t66.5 78.5q32 32 139 158q95 112 95 201q0 39 -25 69.5t-64 46t-78 23.5t-75 8q-212 0 -432.5 -64t-401.5 -177q-56 -35 -113.5 -78t-122 -99t-111.5 -118.5t-60 -116.5zM844 1237
l-31 51q-6 13 6 19q2 2 8 2q8 0 11 -9l22 -43l86 50q4 2 8 2q8 0 11 -15q3 -9 -7 -12l-90 -51q-8 -4 -10 -4q-7 0 -14 10z" />
    <glyph glyph-name="rcaron" unicode="&#x159;" horiz-adv-x="591" 
d="M647 121l-6 2q2 2 8 2q7 0 10 -8q6 -13 -2 -21q-90 -61 -223 -99t-246 -38q-32 0 -58 19.5t-26 50.5q0 21 17 67q-4 0 -11.5 -1t-11.5 -1q-25 0 -51 15q-29 19 -29 55q0 9 15 12h4q10 0 10 -12q0 -26 25 -35q16 -4 26 -4q18 0 39 6h6q10 0 13 -6q7 -10 -2 -19
q-21 -30 -21 -73q0 -19 20 -30t40 -11q108 0 238.5 36t215.5 93zM115 266l-31 51q-6 13 6 19q2 2 8 2q8 0 11 -8l22 -43l86 49q4 2 8 2q8 0 11 -14q3 -10 -7 -13l-90 -51q-8 -4 -10 -4q-7 0 -14 10z" />
    <glyph glyph-name="Sacute" unicode="&#x15a;" horiz-adv-x="1390" 
d="M1606 975l-2 -10q2 -8 -5 -15q-4 -4 -8 -4q-1 0 -3 1t-3 1q-9 3 -12 13q-37 122 -130.5 191t-221.5 69q-162 0 -366.5 -55t-373.5 -134q-49 -23 -99 -52t-109.5 -72t-104.5 -87.5t-75 -99.5t-30 -107q0 -22 19 -41q42 -42 252 -65q22 -2 43.5 -3.5t43 -2.5t30.5 -2
l129 -6q132 -6 254 -15q133 -9 226 -29t179 -71q68 -41 68 -123q0 -90 -111 -201q-104 -104 -260.5 -183t-288.5 -79q-61 0 -96 32.5t-35 92.5q0 122 131 232q4 4 10 4q10 0 13 -11q3 -9 -6 -12q-119 -98 -119 -211q0 -46 27.5 -71t74.5 -25q76 0 184.5 40t208 100.5
t170 141.5t70.5 154q0 144 -319 184q-134 15 -375 23q-89 2 -269 14q-107 9 -198 41q-82 28 -82 94q0 150 207 304q195 145 470.5 241t510.5 96q137 0 241 -75.5t140 -206.5zM840 1294l-2 -2h-17q-6 3 -6 13q0 9 6 12q101 80 146 119q4 4 10 4t8 -4q10 -10 4 -19
q-93 -79 -149 -123z" />
    <glyph glyph-name="sacute" unicode="&#x15b;" horiz-adv-x="456" 
d="M57 96l-2 2q-9 3 -2 17q4 8 15 8q87 -43 141 -121q79 42 303 121h6q9 0 12 -8q3 -13 -6 -19q-222 -84 -301 -123q6 -15 6 -30q0 -37 -26 -60.5t-64 -23.5q-17 0 -29 12t-12 29q0 40 88 92q-43 63 -129 104zM201 -53l-2 -4q0 14 -2 18q-74 -41 -74 -61q0 -13 12 -13
q26 0 46 17.5t20 42.5zM90 233l-2 -2h-16q-6 3 -6 13q0 9 6 12q91 72 145 119q4 4 10 4q7 0 9 -4q10 -10 4 -19q-82 -70 -150 -123z" />
    <glyph glyph-name="Scaron" unicode="&#x160;" horiz-adv-x="1390" 
d="M1606 975l-2 -10q2 -8 -5 -15q-4 -4 -8 -4q-1 0 -3 1t-3 1q-9 3 -12 13q-37 122 -130.5 191t-221.5 69q-162 0 -366.5 -55t-373.5 -134q-49 -23 -99 -52t-109.5 -72t-104.5 -87.5t-75 -99.5t-30 -107q0 -22 19 -41q42 -42 252 -65q22 -2 43.5 -3.5t43 -2.5t30.5 -2
l129 -6q132 -6 254 -15q133 -9 226 -29t179 -71q68 -41 68 -123q0 -90 -111 -201q-104 -104 -260.5 -183t-288.5 -79q-61 0 -96 32.5t-35 92.5q0 122 131 232q4 4 10 4q10 0 13 -11q3 -9 -6 -12q-119 -98 -119 -211q0 -46 27.5 -71t74.5 -25q76 0 184.5 40t208 100.5
t170 141.5t70.5 154q0 144 -319 184q-134 15 -375 23q-89 2 -269 14q-107 9 -198 41q-82 28 -82 94q0 150 207 304q195 145 470.5 241t510.5 96q137 0 241 -75.5t140 -206.5zM936 1313l-31 51q-6 12 6 18q2 2 9 2t10 -8l22 -43l86 49q4 2 9 2q7 0 10 -14q3 -9 -6 -12
l-90 -51q-8 -4 -11 -4q-7 0 -14 10z" />
    <glyph glyph-name="scaron" unicode="&#x161;" horiz-adv-x="456" 
d="M57 96l-2 2q-9 3 -2 17q4 8 15 8q87 -43 141 -121q79 42 303 121h6q9 0 12 -8q3 -13 -6 -19q-222 -84 -301 -123q6 -15 6 -30q0 -37 -26 -60.5t-64 -23.5q-17 0 -29 12t-12 29q0 40 88 92q-43 63 -129 104zM201 -53l-2 -4q0 14 -2 18q-74 -41 -74 -61q0 -13 12 -13
q26 0 46 17.5t20 42.5zM119 221l-31 51q-6 13 6 19q2 2 8 2q8 0 11 -8l22 -43l86 49q4 2 8 2q8 0 11 -14q3 -10 -7 -13l-90 -51q-8 -4 -10 -4q-7 0 -14 10z" />
    <glyph glyph-name="uni0162" unicode="&#x162;" horiz-adv-x="1212" 
d="M47 387h-10q15 0 12 -14q-3 -15 -12 -15q-43 0 -73 26t-30 69q0 205 619 364q387 93 815.5 124.5t955.5 31.5q15 0 15 -15q0 -14 -12 -14q-436 0 -795.5 -20t-697.5 -76q-65 -11 -138 -26.5t-177.5 -41t-195.5 -59t-173.5 -73.5t-130.5 -90.5t-48 -104.5q0 -31 22 -48.5
t54 -17.5zM928 756l2 6q3 6 10 6q6 0 12 -6q5 -5 2 -12q-90 -167 -158 -393.5t-94 -426.5q0 -9 -8 -12q-2 -2 -8 -2q-4 0 -6 2q-7 3 -4 12q25 199 93.5 425t158.5 401zM723 -162l4 4q3 6 10 6h6q14 -3 11 -18q-27 -73 -86 -135q-2 -4 -9 -4q-6 0 -10 4q-9 9 0 20
q47 53 74 123z" />
    <glyph glyph-name="uni0163" unicode="&#x163;" horiz-adv-x="350" 
d="M72 352l-9 -6q3 9 13 12q1 0 3 1t3 1q4 0 8 -4q6 -6 4 -14l-6 -25q343 71 662 80q9 0 12 -6t0 -12t-12 -6q-327 -15 -670 -82q-12 -73 -12 -117q0 -201 157 -219q12 0 15 -8q3 -10 -2 -15q-6 -6 -15 -6q-182 21 -182 246q0 46 10 111q-205 -46 -227 -50q-2 -2 -6 -2
q-10 0 -13 13q-3 15 13 18l241 53q5 9 7 19q3 12 6 18zM156 -121l4 4q3 6 10 6h6q13 -3 10 -18q-27 -73 -86 -135q-2 -4 -8 -4t-10 4q-9 9 0 20q47 53 74 123z" />
    <glyph glyph-name="Tcaron" unicode="&#x164;" horiz-adv-x="1212" 
d="M47 387h-10q15 0 12 -14q-3 -15 -12 -15q-43 0 -73 26t-30 69q0 205 619 364q387 93 815.5 124.5t955.5 31.5q15 0 15 -15q0 -14 -12 -14q-436 0 -795.5 -20t-697.5 -76q-65 -11 -138 -26.5t-177.5 -41t-195.5 -59t-173.5 -73.5t-130.5 -90.5t-48 -104.5q0 -31 22 -48.5
t54 -17.5zM928 756l2 6q3 6 10 6q6 0 12 -6q5 -5 2 -12q-90 -167 -158 -393.5t-94 -426.5q0 -9 -8 -12q-2 -2 -8 -2q-4 0 -6 2q-7 3 -4 12q25 199 93.5 425t158.5 401zM1063 1026l-31 51q-6 13 6 19q2 2 9 2t10 -8l22 -43l86 49q4 2 9 2q7 0 10 -15q3 -9 -6 -12l-91 -51
q-8 -4 -10 -4q-7 0 -14 10z" />
    <glyph glyph-name="tcaron" unicode="&#x165;" horiz-adv-x="866" 
d="M72 352l-9 -6q3 9 13 12q1 0 3 1t3 1q4 0 8 -4q6 -6 4 -14l-6 -25q343 71 662 80q9 0 12 -6t0 -12t-12 -6q-327 -15 -670 -82q-12 -73 -12 -117q0 -201 157 -219q12 0 15 -8q3 -10 -2 -15q-6 -6 -15 -6q-182 21 -182 246q0 46 10 111q-205 -46 -227 -50q-2 -2 -6 -2
q-10 0 -13 13q-3 15 13 18l241 53q5 9 7 19q3 12 6 18zM815 512l55 -203q3 -9 -2 -14q-6 -6 -14 -6q-9 0 -12 10l-54 201q-3 15 11 18h6q7 0 10 -6z" />
    <glyph glyph-name="Utilde" unicode="&#x168;" horiz-adv-x="1525" 
d="M51 692v-2q0 -12 -14 -12t-14 12q0 32 65 141q36 59 81 123.5t108 139.5t125.5 133.5t133 97.5t130.5 39q88 0 88 -94q0 -58 -35 -147.5t-76 -161.5q-8 -13 -27 -46.5t-40.5 -70.5t-43.5 -74q-15 -27 -24 -39q-90 -157 -123 -217q-125 -234 -125 -352q0 -150 100 -150
q63 0 134.5 35.5t136 90t134.5 133t125.5 152.5t113 161.5t93 146t70.5 119.5q71 147 156 297q5 8 14 8q10 0 13 -6t0 -14q-59 -121 -142 -265q-225 -464 -225 -684q0 -80 45.5 -127t124.5 -47q197 0 430 109q4 2 8 2t6 -2q7 -3 7 -12t-7 -13q-233 -112 -442 -112
q-92 0 -146.5 54t-54.5 146q0 157 125 465q-422 -667 -714 -667q-129 0 -129 178q0 70 43 180q56 146 208 405q170 296 207 394q29 82 29 129q0 65 -59 65q-64 0 -148 -54t-145 -115t-109 -122q-62 -79 -136.5 -192.5t-74.5 -157.5zM1010 1421q-6 -6 -13 -6q-6 0 -10 4
q-6 9 0 19q22 22 53 22q22 0 56 -30q36 -31 55 -31q29 0 55 26q5 5 11 5h4q9 -3 12 -9q2 -5 -4 -14q-37 -37 -74 -37q-24 0 -63 31t-52 31q-12 0 -30 -11z" />
    <glyph glyph-name="utilde" unicode="&#x169;" horiz-adv-x="503" 
d="M66 150h-3q3 6 11 6q7 0 10 -6t0 -13q-15 -30 -21 -67q-6 -36 9 -45q60 0 121 88q7 10 16 10t14 -10q47 -68 111 -68q41 0 109.5 23.5t107.5 48.5q8 4 14 4h4q11 -4 11 -10t-9 -15q-36 -30 -111.5 -56t-123.5 -26q-76 0 -129 68q-21 -30 -60.5 -57t-70.5 -27
q-22 0 -31 18t-6 43q5 37 27 91zM90 256q-6 -6 -12 -6t-10 4q-6 9 0 18q23 23 53 23q19 0 55 -31t55 -31q29 0 56 27q4 4 10 4h4q10 -3 12 -8t-4 -14q-37 -37 -73 -37q-25 0 -64 31q-37 30 -51 30t-31 -10z" />
    <glyph glyph-name="Uring" unicode="&#x16e;" horiz-adv-x="1525" 
d="M51 692v-2q0 -12 -14 -12t-14 12q0 32 65 141q36 59 81 123.5t108 139.5t125.5 133.5t133 97.5t130.5 39q88 0 88 -94q0 -58 -35 -147.5t-76 -161.5q-8 -13 -27 -46.5t-40.5 -70.5t-43.5 -74q-15 -27 -24 -39q-90 -157 -123 -217q-125 -234 -125 -352q0 -150 100 -150
q63 0 134.5 35.5t136 90t134.5 133t125.5 152.5t113 161.5t93 146t70.5 119.5q71 147 156 297q5 8 14 8q10 0 13 -6t0 -14q-59 -121 -142 -265q-225 -464 -225 -684q0 -80 45.5 -127t124.5 -47q197 0 430 109q4 2 8 2t6 -2q7 -3 7 -12t-7 -13q-233 -112 -442 -112
q-92 0 -146.5 54t-54.5 146q0 157 125 465q-422 -667 -714 -667q-129 0 -129 178q0 70 43 180q56 146 208 405q170 296 207 394q29 82 29 129q0 65 -59 65q-64 0 -148 -54t-145 -115t-109 -122q-62 -79 -136.5 -192.5t-74.5 -157.5zM1026 1554l-8 -4q9 -9 0 -18q-4 -4 -8 -4
q-3 0 -11 4q-12 6 -32 6q-22 -4 -39 -29.5t-17 -48.5q0 -22 27 -22q22 0 43 18t18 49q-3 10 13 13h6q8 0 12 -7q6 -49 -24 -73q-31 -25 -64 -25q-42 0 -51 37l-2 12q0 40 30 74.5t70 34.5q20 0 37 -17z" />
    <glyph glyph-name="uring" unicode="&#x16f;" horiz-adv-x="503" 
d="M66 150h-3q3 6 11 6q7 0 10 -6t0 -13q-15 -30 -21 -67q-6 -36 9 -45q60 0 121 88q7 10 16 10t14 -10q47 -68 111 -68q41 0 109.5 23.5t107.5 48.5q8 4 14 4h4q11 -4 11 -10t-9 -15q-36 -30 -111.5 -56t-123.5 -26q-76 0 -129 68q-21 -30 -60.5 -57t-70.5 -27
q-22 0 -31 18t-6 43q5 37 27 91zM254 377l-8 -4q10 -9 0 -19q-4 -4 -8 -4q-3 0 -11 4q-12 6 -32 6q-22 -4 -39 -29t-17 -48t27 -23q21 0 43 19q21 18 18 49q-1 4 2 7t11 5h6q9 0 12 -6q6 -49 -25 -74q-30 -24 -63 -24q-42 0 -51 36l-2 13q0 40 30 74t70 34q21 0 37 -16z" />
    <glyph glyph-name="Uhungarumlaut" unicode="&#x170;" horiz-adv-x="1525" 
d="M51 692v-2q0 -12 -14 -12t-14 12q0 32 65 141q36 59 81 123.5t108 139.5t125.5 133.5t133 97.5t130.5 39q88 0 88 -94q0 -58 -35 -147.5t-76 -161.5q-8 -13 -27 -46.5t-40.5 -70.5t-43.5 -74q-15 -27 -24 -39q-90 -157 -123 -217q-125 -234 -125 -352q0 -150 100 -150
q63 0 134.5 35.5t136 90t134.5 133t125.5 152.5t113 161.5t93 146t70.5 119.5q71 147 156 297q5 8 14 8q10 0 13 -6t0 -14q-59 -121 -142 -265q-225 -464 -225 -684q0 -80 45.5 -127t124.5 -47q197 0 430 109q4 2 8 2t6 -2q7 -3 7 -12t-7 -13q-233 -112 -442 -112
q-92 0 -146.5 54t-54.5 146q0 157 125 465q-422 -667 -714 -667q-129 0 -129 178q0 70 43 180q56 146 208 405q170 296 207 394q29 82 29 129q0 65 -59 65q-64 0 -148 -54t-145 -115t-109 -122q-62 -79 -136.5 -192.5t-74.5 -157.5zM1024 1376l-2 2q-8 -4 -12 -4q-3 0 -11 4
q-9 10 2 21q116 107 150 147q6 3 12 0q9 -5 11 -8q3 -6 0 -12q-25 -31 -150 -150zM1092 1354l4 -4q-4 -2 -11 -2q-9 0 -14 8q-8 11 6 20q68 47 121 115q6 6 12 6q5 0 7 -2q10 -7 4 -18q-53 -65 -129 -123z" />
    <glyph glyph-name="uhungarumlaut" unicode="&#x171;" horiz-adv-x="503" 
d="M66 150h-3q3 6 11 6q7 0 10 -6t0 -13q-15 -30 -21 -67q-6 -36 9 -45q60 0 121 88q7 10 16 10t14 -10q47 -68 111 -68q41 0 109.5 23.5t107.5 48.5q8 4 14 4h4q11 -4 11 -10t-9 -15q-36 -30 -111.5 -56t-123.5 -26q-76 0 -129 68q-21 -30 -60.5 -57t-70.5 -27
q-22 0 -31 18t-6 43q5 37 27 91zM156 254l-2 2q-8 -4 -13 -4q-2 0 -10 4q-9 9 2 20q112 103 150 148q6 3 12 0q8 -4 10 -8q3 -6 0 -13q-25 -31 -149 -149zM223 231l4 -2q-4 -2 -10 -2q-8 0 -14 9q-8 11 6 20q68 47 121 115q4 4 10 4t8 -2q10 -7 4 -19q-52 -64 -129 -123z
" />
    <glyph glyph-name="Zacute" unicode="&#x179;" horiz-adv-x="1785" 
d="M-27 317l-2 5q6 -3 6 -13q0 -9 -6 -12h-14q-115 50 -115 141q0 38 25 84t66.5 89.5t76 74.5t70.5 59q492 385 1268 385q84 0 96 -2q9 0 12 -10q3 -9 -4 -12q-133 -79 -284.5 -250.5t-272.5 -347.5q-283 -413 -416 -668q337 183 682 183q246 0 547 -91q8 -3 8 -12
q0 -8 -6 -14q-7 -7 -12 -4q-297 90 -541 90q-341 0 -698 -195q-8 -4 -13 -4q-2 0 -10 4q-10 7 -4 19q53 104 160 278q487 800 803 1008h-43q-170 0 -347.5 -24t-356 -73.5t-341 -135t-274.5 -197.5q-158 -158 -158 -238q0 -74 98 -117zM1085 1284l-2 -2h-16q-6 3 -6 12
q0 10 6 13q102 81 145 118q5 5 11 5q5 0 8 -5q10 -10 4 -18q-83 -71 -150 -123z" />
    <glyph glyph-name="zacute" unicode="&#x17a;" horiz-adv-x="532" 
d="M592 121l2 -6q11 0 18 -9q6 -12 -4 -18q-133 -56 -157 -65q-171 -68 -320 -68q-120 0 -12 102q10 13 28 27h-20q-34 0 -64 6q-9 0 -12 8q-3 9 0 15t12 6q30 -6 60 -6q45 0 94 18q12 0 16 -8q7 -13 -4 -17q-64 -27 -110 -79q-29 -39 8 -39q153 0 311 67q11 5 62 27t92 39z
M178 227l-2 -2h-16q-6 3 -6 13q0 9 6 12q91 72 145 119q4 4 10 4q7 0 9 -4q10 -10 4 -19q-82 -70 -150 -123z" />
    <glyph glyph-name="Zdotaccent" unicode="&#x17b;" horiz-adv-x="1785" 
d="M-27 317l-2 5q6 -3 6 -13q0 -9 -6 -12h-14q-115 50 -115 141q0 38 25 84t66.5 89.5t76 74.5t70.5 59q492 385 1268 385q84 0 96 -2q9 0 12 -10q3 -9 -4 -12q-133 -79 -284.5 -250.5t-272.5 -347.5q-283 -413 -416 -668q337 183 682 183q246 0 547 -91q8 -3 8 -12
q0 -8 -6 -14q-7 -7 -12 -4q-297 90 -541 90q-341 0 -698 -195q-8 -4 -13 -4q-2 0 -10 4q-10 7 -4 19q53 104 160 278q487 800 803 1008h-43q-170 0 -347.5 -24t-356 -73.5t-341 -135t-274.5 -197.5q-158 -158 -158 -238q0 -74 98 -117zM1114 1323l-57 -16q-21 0 -21 18
q0 8 11 12l59 15q10 0 14 -2.5t4 -12.5q3 -11 -10 -14z" />
    <glyph glyph-name="zdotaccent" unicode="&#x17c;" horiz-adv-x="532" 
d="M592 121l2 -6q11 0 18 -9q6 -12 -4 -18q-133 -56 -157 -65q-171 -68 -320 -68q-120 0 -12 102q10 13 28 27h-20q-34 0 -64 6q-9 0 -12 8q-3 9 0 15t12 6q30 -6 60 -6q45 0 94 18q12 0 16 -8q7 -13 -4 -17q-64 -27 -110 -79q-29 -39 8 -39q153 0 311 67q11 5 62 27t92 39z
M223 209l-57 -16q-21 0 -21 18q0 8 11 12l59 15q10 0 14 -2.5t4 -12.5q3 -11 -10 -14z" />
    <glyph glyph-name="Zcaron" unicode="&#x17d;" horiz-adv-x="1785" 
d="M-27 317l-2 5q6 -3 6 -13q0 -9 -6 -12h-14q-115 50 -115 141q0 38 25 84t66.5 89.5t76 74.5t70.5 59q492 385 1268 385q84 0 96 -2q9 0 12 -10q3 -9 -4 -12q-133 -79 -284.5 -250.5t-272.5 -347.5q-283 -413 -416 -668q337 183 682 183q246 0 547 -91q8 -3 8 -12
q0 -8 -6 -14q-7 -7 -12 -4q-297 90 -541 90q-341 0 -698 -195q-8 -4 -13 -4q-2 0 -10 4q-10 7 -4 19q53 104 160 278q487 800 803 1008h-43q-170 0 -347.5 -24t-356 -73.5t-341 -135t-274.5 -197.5q-158 -158 -158 -238q0 -74 98 -117zM1165 1280l-30 51q-6 13 6 19q2 2 8 2
q7 0 10 -9l23 -43l86 50q4 2 8 2q7 0 10 -15q3 -9 -6 -12l-90 -51q-8 -4 -10 -4q-8 0 -15 10z" />
    <glyph glyph-name="zcaron" unicode="&#x17e;" horiz-adv-x="532" 
d="M592 121l2 -6q11 0 18 -9q6 -12 -4 -18q-133 -56 -157 -65q-171 -68 -320 -68q-120 0 -12 102q10 13 28 27h-20q-34 0 -64 6q-9 0 -12 8q-3 9 0 15t12 6q30 -6 60 -6q45 0 94 18q12 0 16 -8q7 -13 -4 -17q-64 -27 -110 -79q-29 -39 8 -39q153 0 311 67q11 5 62 27t92 39z
M176 188l-31 52q-6 12 7 18q2 2 8 2q7 0 10 -8l23 -43l86 49q4 2 8 2q7 0 10 -14q0 -10 -6 -13l-90 -51q-8 -4 -11 -4q-7 0 -14 10z" />
    <glyph glyph-name="Ohorn" unicode="&#x1a0;" horiz-adv-x="1294" 
d="M1225 791q-8 -35 -45 -46q43 -73 43 -172q0 -280 -211 -473q-210 -192 -535 -192q-183 0 -303.5 124t-120.5 308q0 161 74.5 310t194.5 255t275.5 169t313.5 63q50 0 86 -4q10 0 13 -9q3 -8 0 -14t-13 -6q-36 4 -79 4q-153 0 -302.5 -61t-265 -162.5t-187 -245.5
t-71.5 -299q0 -171 114.5 -287t285.5 -116q312 0 514 184t202 450q0 68 -26 132t-80.5 108.5t-124.5 44.5q-172 0 -285 -68t-196 -223l-15 -2q-3 -6 -10 -6q-6 0 -8 2q-11 6 -8 16q89 162 205.5 237t300.5 75q107 0 184 -92q7 -7 20 -29q24 10 29 33q7 20 -12 41q-3 13 8 24
q6 6 14 6q2 0 6 -4q27 -30 15 -75z" />
    <glyph glyph-name="ohorn" unicode="&#x1a1;" 
d="M506 113q3 -13 -8 -19q-88 -33 -230 -33q-90 0 -143 9q3 -33 -16 -64t-50 -31q-50 0 -41 64q9 69 56 96l10 6l4 -2h4q7 0 12 -6t5 -12q0 -9 -9 -12q-37 -15 -49 -70q-6 -37 12 -37q16 0 25 25q9 24 6 53q-3 11 4 18q4 4 13 4h4q18 6 26 27q4 18 -10 37q-3 11 8 22
q5 5 11 5q3 0 6 -3q25 -28 12 -67q-6 -17 -16 -27q49 -8 116 -8q133 0 221 33h7q7 0 10 -8z" />
    <glyph glyph-name="Uhorn" unicode="&#x1af;" horiz-adv-x="1525" 
d="M1597 121q7 -3 7 -12t-7 -13q-233 -112 -442 -112q-92 0 -146.5 54t-54.5 146q0 157 125 465q-422 -667 -714 -667q-129 0 -129 178q0 70 43 180q56 146 208 405q170 296 207 394q29 82 29 129q0 65 -59 65q-64 0 -148 -54t-145 -115t-109 -122q-62 -79 -136.5 -192.5
t-74.5 -157.5v-2q0 -12 -14 -12t-14 12q0 32 65 141q36 59 81 123.5t108 139.5t125.5 133.5t133 97.5t130.5 39q88 0 88 -94q0 -58 -35 -147.5t-76 -161.5l-111 -191q-15 -27 -24 -39q-90 -157 -123 -217q-125 -234 -125 -352q0 -150 100 -150q63 0 134.5 35.5t136 90
t134.5 133t125.5 152.5t113 161.5t93 146t70.5 119.5q71 147 156 297q5 8 14 8h9q14 6 20 29q7 20 -12 41q-3 13 8 24q6 6 14 6q2 0 6 -4q27 -30 15 -75q-12 -40 -49 -46q-74 -147 -140 -260q-225 -464 -225 -684q0 -80 45.5 -127t124.5 -47q197 0 430 109q4 2 8 2t6 -2z
" />
    <glyph glyph-name="uhorn" unicode="&#x1b0;" horiz-adv-x="503" 
d="M569 121q11 -4 11 -10t-9 -15q-36 -30 -111.5 -56t-123.5 -26q-76 0 -129 68q-21 -30 -60.5 -57t-70.5 -27q-22 0 -31 18t-6 43q5 37 27 91h-3q3 6 11 6q7 0 10 -6t0 -13q-15 -30 -21 -67q-6 -36 9 -45q60 0 121 88q9 12 16 12q18 3 24 27q6 15 -10 36q-3 13 8 21
q6 6 13 6q2 0 6 -4q23 -25 10 -68q-9 -28 -33 -34q48 -64 107 -64q41 0 109.5 23.5t107.5 48.5q8 4 14 4h4z" />
    <glyph glyph-name="uni0218" unicode="&#x218;" horiz-adv-x="1390" 
d="M1606 975l-2 -10q2 -8 -5 -15q-4 -4 -8 -4q-1 0 -3 1t-3 1q-9 3 -12 13q-37 122 -130.5 191t-221.5 69q-162 0 -366.5 -55t-373.5 -134q-49 -23 -99 -52t-109.5 -72t-104.5 -87.5t-75 -99.5t-30 -107q0 -22 19 -41q42 -42 252 -65q22 -2 43.5 -3.5t43 -2.5t30.5 -2
l129 -6q132 -6 254 -15q133 -9 226 -29t179 -71q68 -41 68 -123q0 -90 -111 -201q-104 -104 -260.5 -183t-288.5 -79q-61 0 -96 32.5t-35 92.5q0 122 131 232q4 4 10 4q10 0 13 -11q3 -9 -6 -12q-119 -98 -119 -211q0 -46 27.5 -71t74.5 -25q76 0 184.5 40t208 100.5
t170 141.5t70.5 154q0 144 -319 184q-134 15 -375 23q-89 2 -269 14q-107 9 -198 41q-82 28 -82 94q0 150 207 304q195 145 470.5 241t510.5 96q137 0 241 -75.5t140 -206.5zM670 -276l4 4q3 6 10 6h6q13 -3 10 -19q-27 -73 -86 -135q-2 -4 -8 -4t-10 4q-9 9 0 21
q47 53 74 123z" />
    <glyph glyph-name="uni0219" unicode="&#x219;" horiz-adv-x="456" 
d="M57 96l-2 2q-9 3 -2 17q4 8 15 8q87 -43 141 -121q79 42 303 121h6q9 0 12 -8q3 -13 -6 -19q-222 -84 -301 -123q6 -15 6 -30q0 -37 -26 -60.5t-64 -23.5q-17 0 -29 12t-12 29q0 40 88 92q-43 63 -129 104zM201 -53l-2 -4q0 14 -2 18q-74 -41 -74 -61q0 -13 12 -13
q26 0 46 17.5t20 42.5zM135 -170l4 4q3 6 11 6h6q13 -3 10 -18q-27 -73 -86 -135q-2 -4 -8 -4q-7 0 -11 4q-9 9 0 20q47 53 74 123z" />
    <glyph glyph-name="circumflex" unicode="&#x2c6;" horiz-adv-x="317" 
d="M184 287l-73 -72q-3 -6 -11 -2q-7 3 -10 10q-3 6 0 15l78 69q10 10 16 10q7 0 15 -8l69 -80q10 -10 0 -16q-2 -2 -8 -2t-10 4z" />
    <glyph glyph-name="caron" unicode="&#x2c7;" horiz-adv-x="552" 
d="M225 358l-30 52q-6 12 6 18q2 2 8 2q7 0 10 -8l23 -43l86 49q4 2 8 2q7 0 10 -14q3 -10 -6 -13l-90 -51q-8 -4 -10 -4q-8 0 -15 10z" />
    <glyph glyph-name="breve" unicode="&#x2d8;" horiz-adv-x="403" 
d="M88 299l-6 -4q0 6 6 12t12 6q8 0 11 -8q14 -39 67 -39t80 43q4 4 10 4t8 -2q10 -7 7 -16q-34 -55 -103 -55q-71 0 -92 59z" />
    <glyph glyph-name="dotaccent" unicode="&#x2d9;" horiz-adv-x="372" 
d="M205 297l-58 -16q-20 0 -20 18q0 9 10 12l60 15q10 0 14 -2.5t4 -12.5q3 -11 -10 -14z" />
    <glyph glyph-name="ring" unicode="&#x2da;" horiz-adv-x="454" 
d="M287 438l-6 -4q9 -9 0 -18q-4 -4 -9 -4q-2 0 -10 4q-12 6 -33 6q-22 -4 -38.5 -29.5t-16.5 -48.5q0 -22 27 -22q22 0 43 18t18 49q-3 9 12 12h7q9 0 12 -6q6 -48 -25 -73t-63 -25q-18 0 -35.5 10t-17.5 27l-2 12q0 40 30 74.5t70 34.5q20 0 37 -17z" />
    <glyph glyph-name="ogonek" unicode="&#x2db;" horiz-adv-x="389" 
d="M137 4l-2 -2q-6 3 -6 10q0 5 4 11t10 6q1 0 3.5 -1t3.5 -1q29 -19 55 -47t26 -52q0 -45 -47 -51q-24 0 -36.5 6.5t-18.5 28.5q-3 9 12 12h6q10 0 13 -6q4 -12 24 -12q21 3 21 24q0 33 -68 74z" />
    <glyph glyph-name="tilde" unicode="&#x2dc;" horiz-adv-x="466" 
d="M152 375q-6 -6 -13 -6q-6 0 -10 4q-6 9 0 18q23 23 53 23q20 0 56 -31t55 -31q28 0 55 27q4 4 10 4h4q11 -4 13 -8q3 -5 -4 -15q-36 -36 -74 -36q-27 0 -64 30q-39 31 -51 31q-13 0 -30 -10z" />
    <glyph glyph-name="hungarumlaut" unicode="&#x2dd;" horiz-adv-x="507" 
d="M203 303q-8 -4 -13 -4q-2 0 -10 4q-10 9 2 21q116 107 150 147l8 4q5 0 12 -10q3 -6 0 -12q-28 -35 -149 -150zM272 279l4 -3q-4 -2 -10 -2q-8 0 -14 9q-8 11 6 20q68 47 121 115q4 4 10 4t8 -2q10 -7 4 -19q-50 -62 -129 -122z" />
    <glyph glyph-name="gravecomb" unicode="&#x300;" horiz-adv-x="368" 
d="M88 303l-2 -2q-10 10 -4 18q7 7 16 7l146 -97q8 -5 2 -18q-3 -8 -10 -8q-5 0 -7 2q-131 92 -141 98z" />
    <glyph glyph-name="acutecomb" unicode="&#x301;" horiz-adv-x="454" 
d="M176 195l-2 -2h-16q-6 3 -6 12t6 12q91 72 145 119q4 4 10 4q7 0 9 -4q10 -10 4 -19q-69 -59 -150 -122z" />
    <glyph glyph-name="tildecomb" unicode="&#x303;" horiz-adv-x="466" 
d="M152 242q-6 -6 -13 -6q-6 0 -10 4q-6 9 0 18q23 23 53 23q20 0 56 -31t55 -31q28 0 55 27q4 4 10 4h4q11 -4 13 -8q3 -5 -4 -15q-37 -37 -74 -37q-25 0 -64 31t-51 31q-13 0 -30 -10z" />
    <glyph glyph-name="hookabovecomb" unicode="&#x309;" horiz-adv-x="178" 
d="M43 217l2 -2q72 44 72 80q0 21 -21 24h-8q-15 0 -18 -12q-3 -6 -13 -6h-8q-15 3 -12 12q6 23 19.5 30t39.5 7q49 -6 49 -53q0 -26 -28.5 -56t-57.5 -48q-2 0 -4.5 -1.5t-3.5 -1.5q-6 0 -10 6t-4 11q0 7 6 10z" />
    <glyph glyph-name="dotbelowcomb" unicode="&#x323;" horiz-adv-x="372" 
d="M205 -63l-58 -17q-20 0 -20 19q0 9 10 12l60 14q11 0 14.5 -2t3.5 -12q3 -11 -10 -14z" />
    <glyph glyph-name="uni1EA0" unicode="&#x1ea0;" horiz-adv-x="1400" 
d="M1456 121l-2 -4q4 2 8 2q6 0 8 -2q7 -3 7 -13q0 -8 -7 -12q-107 -76 -264 -76q-129 0 -201.5 72t-86.5 203q-119 -72 -371 -254q-268 -197 -385 -197q-90 0 -90 90q0 65 63.5 179.5t158.5 237.5t173.5 215.5t140.5 158.5q43 46 119.5 124t184 182.5t199 177.5t124.5 73
q66 0 25 -86q-11 -26 -74 -137q-46 -81 -72.5 -130.5t-63.5 -129t-57.5 -140.5t-35.5 -137.5t-15 -148.5v-27q239 133 422 133q12 0 12 -14q0 -15 -14 -15q-177 0 -418 -137q27 -260 264 -260q144 0 248 72zM528 61h-2q272 201 383 263v41q0 272 244 704q85 152 82 174
q0 8 -10 8q-45 0 -226 -166q-104 -95 -242 -237.5t-293 -319.5t-260.5 -342.5t-105.5 -255.5q0 -61 62 -61q112 0 368 192zM684 -63l-57 -17q-21 0 -21 19q0 9 10 12l60 14q10 0 14 -2t4 -12q3 -11 -10 -14z" />
    <glyph glyph-name="uni1EA1" unicode="&#x1ea1;" horiz-adv-x="475" 
d="M207 111h-10q-3 -6 -9 -9t-12 0t-6 13q6 28 -20 28q-32 0 -69.5 -31.5t-37.5 -62.5q0 -8 8 -8q17 0 68 39q12 8 18 14q12 8 19 8q8 0 18 -10q49 -49 127 -49q98 0 223 76q4 2 8 2q10 0 13 -8q6 -11 -4 -21q-133 -80 -240 -80q-87 0 -149 56q-61 -58 -99 -58q-37 0 -37 37
q0 38 50 80.5t90 42.5q29 0 41 -18q13 -20 10 -41zM121 -63l-58 -17q-20 0 -20 19q0 9 10 12l60 14q11 0 14.5 -2t3.5 -12q3 -11 -10 -14z" />
    <glyph glyph-name="uni1EA2" unicode="&#x1ea2;" horiz-adv-x="1400" 
d="M1456 121l-2 -4q4 2 8 2q6 0 8 -2q7 -3 7 -13q0 -8 -7 -12q-107 -76 -264 -76q-129 0 -201.5 72t-86.5 203q-119 -72 -371 -254q-268 -197 -385 -197q-90 0 -90 90q0 65 63.5 179.5t158.5 237.5t173.5 215.5t140.5 158.5q43 46 119.5 124t184 182.5t199 177.5t124.5 73
q66 0 25 -86q-11 -26 -74 -137q-46 -81 -72.5 -130.5t-63.5 -129t-57.5 -140.5t-35.5 -137.5t-15 -148.5v-27q239 133 422 133q12 0 12 -14q0 -15 -14 -15q-177 0 -418 -137q27 -260 264 -260q144 0 248 72zM528 61h-2q272 201 383 263v41q0 272 244 704q85 152 82 174
q0 8 -10 8q-45 0 -226 -166q-104 -95 -242 -237.5t-293 -319.5t-260.5 -342.5t-105.5 -255.5q0 -61 62 -61q112 0 368 192zM1282 1391l2 -2q72 44 72 79q0 22 -21 25h-8q-15 0 -18 -12q-3 -6 -13 -6h-8q-15 3 -12 12q6 23 19.5 30t39.5 7q49 -6 49 -54q0 -26 -28.5 -56
t-57.5 -48q-2 0 -4.5 -1t-3.5 -1q-6 0 -10 5.5t-4 10.5q0 8 6 11z" />
    <glyph glyph-name="uni1EA3" unicode="&#x1ea3;" horiz-adv-x="475" 
d="M207 111h-10q-3 -6 -9 -9t-12 0t-6 13q6 28 -20 28q-32 0 -69.5 -31.5t-37.5 -62.5q0 -8 8 -8q17 0 68 39q12 8 18 14q12 8 19 8q8 0 18 -10q49 -49 127 -49q98 0 223 76q4 2 8 2q10 0 13 -8q6 -11 -4 -21q-133 -80 -240 -80q-87 0 -149 56q-61 -58 -99 -58q-37 0 -37 37
q0 38 50 80.5t90 42.5q29 0 41 -18q13 -20 10 -41zM150 248l2 -2q71 44 71 80q0 21 -20 24h-8q-16 0 -19 -12q-3 -6 -12 -6h-8q-8 2 -11 5t-2 7q6 23 19.5 30t40.5 7q49 -6 49 -53q0 -26 -28.5 -56.5t-57.5 -48.5q-2 0 -4.5 -1t-3.5 -1q-6 0 -10.5 6t-4.5 11q0 6 7 10z" />
    <glyph glyph-name="uni1EA4" unicode="&#x1ea4;" horiz-adv-x="1400" 
d="M1456 121l-2 -4q4 2 8 2q6 0 8 -2q7 -3 7 -13q0 -8 -7 -12q-107 -76 -264 -76q-129 0 -201.5 72t-86.5 203q-119 -72 -371 -254q-268 -197 -385 -197q-90 0 -90 90q0 65 63.5 179.5t158.5 237.5t173.5 215.5t140.5 158.5q43 46 119.5 124t184 182.5t199 177.5t124.5 73
q66 0 25 -86q-11 -26 -74 -137q-46 -81 -72.5 -130.5t-63.5 -129t-57.5 -140.5t-35.5 -137.5t-15 -148.5v-27q239 133 422 133q12 0 12 -14q0 -15 -14 -15q-177 0 -418 -137q27 -260 264 -260q144 0 248 72zM528 61h-2q272 201 383 263v41q0 272 244 704q85 152 82 174
q0 8 -10 8q-45 0 -226 -166q-104 -95 -242 -237.5t-293 -319.5t-260.5 -342.5t-105.5 -255.5q0 -61 62 -61q112 0 368 192zM1257 1425l-73 -71q-3 -6 -10 -2q-8 4 -11 10t0 14l78 70q10 10 16 10q7 0 15 -8l69 -80q10 -10 0 -16q-2 -2 -8 -2t-10 4zM1376 1430l-2 -3h-16
q-6 3 -6 13q0 9 6 12q91 72 145 119q4 4 10 4q7 0 9 -4q10 -10 4 -19q-69 -59 -150 -122z" />
    <glyph glyph-name="uni1EA5" unicode="&#x1ea5;" horiz-adv-x="475" 
d="M207 111h-10q-3 -6 -9 -9t-12 0t-6 13q6 28 -20 28q-32 0 -69.5 -31.5t-37.5 -62.5q0 -8 8 -8q17 0 68 39q12 8 18 14q12 8 19 8q8 0 18 -10q49 -49 127 -49q98 0 223 76q4 2 8 2q10 0 13 -8q6 -11 -4 -21q-133 -80 -240 -80q-87 0 -149 56q-61 -58 -99 -58q-37 0 -37 37
q0 38 50 80.5t90 42.5q29 0 41 -18q13 -20 10 -41zM156 301l-74 -72q-3 -6 -10 -2t-11 11q-3 6 0 14l78 70q10 10 17 10q6 0 14 -8l70 -80q10 -10 0 -17q-2 -2 -9 -2q-6 0 -10 4zM274 305l-2 -2h-16q-6 3 -6 12q0 10 6 13q102 81 145 118q5 5 11 5t8 -5q10 -10 4 -18
q-82 -70 -150 -123z" />
    <glyph glyph-name="uni1EA6" unicode="&#x1ea6;" horiz-adv-x="1400" 
d="M1456 121l-2 -4q4 2 8 2q6 0 8 -2q7 -3 7 -13q0 -8 -7 -12q-107 -76 -264 -76q-129 0 -201.5 72t-86.5 203q-119 -72 -371 -254q-268 -197 -385 -197q-90 0 -90 90q0 65 63.5 179.5t158.5 237.5t173.5 215.5t140.5 158.5q43 46 119.5 124t184 182.5t199 177.5t124.5 73
q66 0 25 -86q-11 -26 -74 -137q-46 -81 -72.5 -130.5t-63.5 -129t-57.5 -140.5t-35.5 -137.5t-15 -148.5v-27q239 133 422 133q12 0 12 -14q0 -15 -14 -15q-177 0 -418 -137q27 -260 264 -260q144 0 248 72zM528 61h-2q272 201 383 263v41q0 272 244 704q85 152 82 174
q0 8 -10 8q-45 0 -226 -166q-104 -95 -242 -237.5t-293 -319.5t-260.5 -342.5t-105.5 -255.5q0 -61 62 -61q112 0 368 192zM1257 1425l-73 -71q-3 -6 -10 -2q-8 4 -11 10t0 14l78 70q10 10 16 10q7 0 15 -8l69 -80q10 -10 0 -16q-2 -2 -8 -2t-10 4zM1249 1528l-2 -2
q-10 10 -4 18q6 6 17 6l145 -96q8 -6 2 -18q-3 -9 -10 -9q-3 0 -6 3q-125 88 -142 98z" />
    <glyph glyph-name="uni1EA7" unicode="&#x1ea7;" horiz-adv-x="475" 
d="M207 111h-10q-3 -6 -9 -9t-12 0t-6 13q6 28 -20 28q-32 0 -69.5 -31.5t-37.5 -62.5q0 -8 8 -8q17 0 68 39q12 8 18 14q12 8 19 8q8 0 18 -10q49 -49 127 -49q98 0 223 76q4 2 8 2q10 0 13 -8q6 -11 -4 -21q-133 -80 -240 -80q-87 0 -149 56q-61 -58 -99 -58q-37 0 -37 37
q0 38 50 80.5t90 42.5q29 0 41 -18q13 -20 10 -41zM156 301l-74 -72q-3 -6 -10 -2t-11 11q-3 6 0 14l78 70q10 10 17 10q6 0 14 -8l70 -80q10 -10 0 -17q-2 -2 -9 -2q-6 0 -10 4zM139 403l-2 -2q-10 10 -4 19q6 6 17 6l145 -96q9 -6 2 -19q-3 -8 -10 -8q-4 0 -6 2
q-125 88 -142 98z" />
    <glyph glyph-name="uni1EA8" unicode="&#x1ea8;" horiz-adv-x="1400" 
d="M1456 121l-2 -4q4 2 8 2q6 0 8 -2q7 -3 7 -13q0 -8 -7 -12q-107 -76 -264 -76q-129 0 -201.5 72t-86.5 203q-119 -72 -371 -254q-268 -197 -385 -197q-90 0 -90 90q0 65 63.5 179.5t158.5 237.5t173.5 215.5t140.5 158.5q43 46 119.5 124t184 182.5t199 177.5t124.5 73
q66 0 25 -86q-11 -26 -74 -137q-46 -81 -72.5 -130.5t-63.5 -129t-57.5 -140.5t-35.5 -137.5t-15 -148.5v-27q239 133 422 133q12 0 12 -14q0 -15 -14 -15q-177 0 -418 -137q27 -260 264 -260q144 0 248 72zM528 61h-2q272 201 383 263v41q0 272 244 704q85 152 82 174
q0 8 -10 8q-45 0 -226 -166q-104 -95 -242 -237.5t-293 -319.5t-260.5 -342.5t-105.5 -255.5q0 -61 62 -61q112 0 368 192zM1257 1425l-73 -71q-3 -6 -10 -2q-8 4 -11 10t0 14l78 70q10 10 16 10q7 0 15 -8l69 -80q10 -10 0 -16q-2 -2 -8 -2t-10 4zM1346 1452l2 -2
q71 44 71 80q0 21 -20 24h-8q-16 0 -19 -12q-3 -6 -12 -6h-8q-8 2 -11 5t-2 7q6 23 19.5 30t40.5 7q49 -6 49 -53q0 -26 -28.5 -56.5t-57.5 -48.5q-2 0 -4.5 -1t-3.5 -1q-6 0 -10.5 6t-4.5 11q0 6 7 10z" />
    <glyph glyph-name="uni1EA9" unicode="&#x1ea9;" horiz-adv-x="475" 
d="M207 111h-10q-3 -6 -9 -9t-12 0t-6 13q6 28 -20 28q-32 0 -69.5 -31.5t-37.5 -62.5q0 -8 8 -8q17 0 68 39q12 8 18 14q12 8 19 8q8 0 18 -10q49 -49 127 -49q98 0 223 76q4 2 8 2q10 0 13 -8q6 -11 -4 -21q-133 -80 -240 -80q-87 0 -149 56q-61 -58 -99 -58q-37 0 -37 37
q0 38 50 80.5t90 42.5q29 0 41 -18q13 -20 10 -41zM156 301l-74 -72q-3 -6 -10 -2t-11 11q-3 6 0 14l78 70q10 10 17 10q6 0 14 -8l70 -80q10 -10 0 -17q-2 -2 -9 -2q-6 0 -10 4zM242 328l2 -2q71 44 71 80q0 21 -20 24h-8q-16 0 -19 -12q-3 -6 -12 -6h-8q-15 3 -12 12
q6 23 19.5 30t39.5 7q49 -6 49 -53q0 -26 -28.5 -56.5t-57.5 -48.5q-2 0 -4.5 -1t-3.5 -1q-6 0 -10 5.5t-4 10.5q0 8 6 11z" />
    <glyph glyph-name="uni1EAA" unicode="&#x1eaa;" horiz-adv-x="1400" 
d="M1456 121l-2 -4q4 2 8 2q6 0 8 -2q7 -3 7 -13q0 -8 -7 -12q-107 -76 -264 -76q-129 0 -201.5 72t-86.5 203q-119 -72 -371 -254q-268 -197 -385 -197q-90 0 -90 90q0 65 63.5 179.5t158.5 237.5t173.5 215.5t140.5 158.5q43 46 119.5 124t184 182.5t199 177.5t124.5 73
q66 0 25 -86q-11 -26 -74 -137q-46 -81 -72.5 -130.5t-63.5 -129t-57.5 -140.5t-35.5 -137.5t-15 -148.5v-27q239 133 422 133q12 0 12 -14q0 -15 -14 -15q-177 0 -418 -137q27 -260 264 -260q144 0 248 72zM528 61h-2q272 201 383 263v41q0 272 244 704q85 152 82 174
q0 8 -10 8q-45 0 -226 -166q-104 -95 -242 -237.5t-293 -319.5t-260.5 -342.5t-105.5 -255.5q0 -61 62 -61q112 0 368 192zM1257 1425l-73 -71q-3 -6 -10 -2q-8 4 -11 10t0 14l78 70q10 10 16 10q7 0 15 -8l69 -80q10 -10 0 -16q-2 -2 -8 -2t-10 4zM1165 1534q-6 -6 -12 -6
t-10 4q-6 9 0 18q23 23 53 23q19 0 55 -31t56 -31q28 0 55 27q4 4 10 4h4q11 -4 13 -8t-5 -14q-37 -37 -73 -37q-27 0 -64 30q-39 31 -51 31q-14 0 -31 -10z" />
    <glyph glyph-name="uni1EAB" unicode="&#x1eab;" horiz-adv-x="475" 
d="M207 111h-10q-3 -6 -9 -9t-12 0t-6 13q6 28 -20 28q-32 0 -69.5 -31.5t-37.5 -62.5q0 -8 8 -8q17 0 68 39q12 8 18 14q12 8 19 8q8 0 18 -10q49 -49 127 -49q98 0 223 76q4 2 8 2q10 0 13 -8q6 -11 -4 -21q-133 -80 -240 -80q-87 0 -149 56q-61 -58 -99 -58q-37 0 -37 37
q0 38 50 80.5t90 42.5q29 0 41 -18q13 -20 10 -41zM156 301l-74 -72q-3 -6 -10 -2t-11 11q-3 6 0 14l78 70q10 10 17 10q6 0 14 -8l70 -80q10 -10 0 -17q-2 -2 -9 -2q-6 0 -10 4zM63 416q-6 -6 -12 -6t-10 4q-6 9 0 18q23 23 53 23q20 0 56 -31t55 -31q28 0 55 27q4 4 10 4
h4q11 -4 13 -8q3 -5 -4 -15q-36 -36 -74 -36q-27 0 -64 30q-39 31 -51 31q-14 0 -31 -10z" />
    <glyph glyph-name="uni1EAC" unicode="&#x1eac;" horiz-adv-x="1400" 
d="M684 -63l-57 -17q-21 0 -21 19q0 9 10 12l60 14q10 0 14 -2t4 -12q3 -11 -10 -14zM1456 121l-2 -4q4 2 8 2q6 0 8 -2q7 -3 7 -13q0 -8 -7 -12q-107 -76 -264 -76q-129 0 -201.5 72t-86.5 203q-119 -72 -371 -254q-268 -197 -385 -197q-90 0 -90 90q0 65 63.5 179.5
t158.5 237.5t173.5 215.5t140.5 158.5q43 46 119.5 124t184 182.5t199 177.5t124.5 73q66 0 25 -86q-11 -26 -74 -137q-46 -81 -72.5 -130.5t-63.5 -129t-57.5 -140.5t-35.5 -137.5t-15 -148.5v-27q239 133 422 133q12 0 12 -14q0 -15 -14 -15q-177 0 -418 -137
q27 -260 264 -260q144 0 248 72zM528 61h-2q272 201 383 263v41q0 272 244 704q85 152 82 174q0 8 -10 8q-45 0 -226 -166q-104 -95 -242 -237.5t-293 -319.5t-260.5 -342.5t-105.5 -255.5q0 -61 62 -61q112 0 368 192zM1257 1425l-73 -71q-3 -6 -10 -2q-8 4 -11 10t0 14
l78 70q10 10 16 10q7 0 15 -8l69 -80q10 -10 0 -16q-2 -2 -8 -2t-10 4z" />
    <glyph glyph-name="uni1EAD" unicode="&#x1ead;" horiz-adv-x="475" 
d="M121 -63l-58 -17q-20 0 -20 19q0 9 10 12l60 14q11 0 14.5 -2t3.5 -12q3 -11 -10 -14zM207 111h-10q-3 -6 -9 -9t-12 0t-6 13q6 28 -20 28q-32 0 -69.5 -31.5t-37.5 -62.5q0 -8 8 -8q17 0 68 39q12 8 18 14q12 8 19 8q8 0 18 -10q49 -49 127 -49q98 0 223 76q4 2 8 2
q10 0 13 -8q6 -11 -4 -21q-133 -80 -240 -80q-87 0 -149 56q-61 -58 -99 -58q-37 0 -37 37q0 38 50 80.5t90 42.5q29 0 41 -18q13 -20 10 -41zM156 301l-74 -72q-3 -6 -10 -2t-11 11q-3 6 0 14l78 70q10 10 17 10q6 0 14 -8l70 -80q10 -10 0 -17q-2 -2 -9 -2q-6 0 -10 4z
" />
    <glyph glyph-name="uni1EAE" unicode="&#x1eae;" horiz-adv-x="1400" 
d="M1456 121l-2 -4q4 2 8 2q6 0 8 -2q7 -3 7 -13q0 -8 -7 -12q-107 -76 -264 -76q-129 0 -201.5 72t-86.5 203q-119 -72 -371 -254q-268 -197 -385 -197q-90 0 -90 90q0 65 63.5 179.5t158.5 237.5t173.5 215.5t140.5 158.5q43 46 119.5 124t184 182.5t199 177.5t124.5 73
q66 0 25 -86q-11 -26 -74 -137q-46 -81 -72.5 -130.5t-63.5 -129t-57.5 -140.5t-35.5 -137.5t-15 -148.5v-27q239 133 422 133q12 0 12 -14q0 -15 -14 -15q-177 0 -418 -137q27 -260 264 -260q144 0 248 72zM528 61h-2q272 201 383 263v41q0 272 244 704q85 152 82 174
q0 8 -10 8q-45 0 -226 -166q-104 -95 -242 -237.5t-293 -319.5t-260.5 -342.5t-105.5 -255.5q0 -61 62 -61q112 0 368 192zM1171 1432l-2 -5q0 6 6.5 12.5t12.5 6.5q7 0 10 -8q14 -39 68 -39q50 0 77 43q4 4 11 4q6 0 8 -2q10 -6 6 -17q-34 -55 -104 -55q-71 0 -93 60z
M1276 1479l-2 -2h-17q-6 3 -6 12t6 12q101 80 146 119q4 4 10 4t8 -4q10 -10 4 -18q-93 -79 -149 -123z" />
    <glyph glyph-name="uni1EAF" unicode="&#x1eaf;" horiz-adv-x="475" 
d="M207 111h-10q-3 -6 -9 -9t-12 0t-6 13q6 28 -20 28q-32 0 -69.5 -31.5t-37.5 -62.5q0 -8 8 -8q17 0 68 39q12 8 18 14q12 8 19 8q8 0 18 -10q49 -49 127 -49q98 0 223 76q4 2 8 2q10 0 13 -8q6 -11 -4 -21q-133 -80 -240 -80q-87 0 -149 56q-61 -58 -99 -58q-37 0 -37 37
q0 38 50 80.5t90 42.5q29 0 41 -18q13 -20 10 -41zM88 299l-2 -4q0 6 6 12t12 6q8 0 11 -8q14 -39 67 -39q51 0 78 43q4 4 10 4q7 0 9 -2q9 -6 6 -16q-34 -55 -105 -55t-92 59zM188 342l-2 -2h-16q-6 3 -6 12q0 10 6 13q102 81 145 118q4 4 11 4q6 0 8 -4q10 -10 4 -18
q-82 -71 -150 -123z" />
    <glyph glyph-name="uni1EB0" unicode="&#x1eb0;" horiz-adv-x="1400" 
d="M1456 121l-2 -4q4 2 8 2q6 0 8 -2q7 -3 7 -13q0 -8 -7 -12q-107 -76 -264 -76q-129 0 -201.5 72t-86.5 203q-119 -72 -371 -254q-268 -197 -385 -197q-90 0 -90 90q0 65 63.5 179.5t158.5 237.5t173.5 215.5t140.5 158.5q43 46 119.5 124t184 182.5t199 177.5t124.5 73
q66 0 25 -86q-11 -26 -74 -137q-46 -81 -72.5 -130.5t-63.5 -129t-57.5 -140.5t-35.5 -137.5t-15 -148.5v-27q239 133 422 133q12 0 12 -14q0 -15 -14 -15q-177 0 -418 -137q27 -260 264 -260q144 0 248 72zM528 61h-2q272 201 383 263v41q0 272 244 704q85 152 82 174
q0 8 -10 8q-45 0 -226 -166q-104 -95 -242 -237.5t-293 -319.5t-260.5 -342.5t-105.5 -255.5q0 -61 62 -61q112 0 368 192zM1171 1432l-2 -5q0 6 6.5 12.5t12.5 6.5q7 0 10 -8q14 -39 68 -39q50 0 77 43q4 4 11 4q6 0 8 -2q10 -6 6 -17q-34 -55 -104 -55q-71 0 -93 60z
M1147 1577l-2 -2q-10 10 -4 18q6 6 16 6l146 -96q8 -5 2 -18q-3 -8 -11 -8q-4 0 -6 2q-131 92 -141 98z" />
    <glyph glyph-name="uni1EB1" unicode="&#x1eb1;" horiz-adv-x="475" 
d="M207 111h-10q-3 -6 -9 -9t-12 0t-6 13q6 28 -20 28q-32 0 -69.5 -31.5t-37.5 -62.5q0 -8 8 -8q17 0 68 39q12 8 18 14q12 8 19 8q8 0 18 -10q49 -49 127 -49q98 0 223 76q4 2 8 2q10 0 13 -8q6 -11 -4 -21q-133 -80 -240 -80q-87 0 -149 56q-61 -58 -99 -58q-37 0 -37 37
q0 38 50 80.5t90 42.5q29 0 41 -18q13 -20 10 -41zM88 299l-2 -4q0 6 6 12t12 6q8 0 11 -8q14 -39 67 -39q51 0 78 43q4 4 10 4q7 0 9 -2q9 -6 6 -16q-34 -55 -105 -55t-92 59zM61 440l-2 -2q-10 10 -4 19q6 6 17 6l145 -96q9 -6 2 -19q-3 -8 -10 -8q-4 0 -6 2
q-125 88 -142 98z" />
    <glyph glyph-name="uni1EB2" unicode="&#x1eb2;" horiz-adv-x="1400" 
d="M1456 121l-2 -4q4 2 8 2q6 0 8 -2q7 -3 7 -13q0 -8 -7 -12q-107 -76 -264 -76q-129 0 -201.5 72t-86.5 203q-119 -72 -371 -254q-268 -197 -385 -197q-90 0 -90 90q0 65 63.5 179.5t158.5 237.5t173.5 215.5t140.5 158.5q43 46 119.5 124t184 182.5t199 177.5t124.5 73
q66 0 25 -86q-11 -26 -74 -137q-46 -81 -72.5 -130.5t-63.5 -129t-57.5 -140.5t-35.5 -137.5t-15 -148.5v-27q239 133 422 133q12 0 12 -14q0 -15 -14 -15q-177 0 -418 -137q27 -260 264 -260q144 0 248 72zM528 61h-2q272 201 383 263v41q0 272 244 704q85 152 82 174
q0 8 -10 8q-45 0 -226 -166q-104 -95 -242 -237.5t-293 -319.5t-260.5 -342.5t-105.5 -255.5q0 -61 62 -61q112 0 368 192zM1171 1432l-2 -5q0 6 6.5 12.5t12.5 6.5q7 0 10 -8q14 -39 68 -39q50 0 77 43q4 4 11 4q6 0 8 -2q10 -6 6 -17q-34 -55 -104 -55q-71 0 -93 60z
M1272 1501l2 -2q72 44 72 80q0 22 -21 25h-8q-16 0 -19 -13q-3 -6 -12 -6h-8q-15 3 -12 12q6 23 19.5 30t39.5 7q49 -6 49 -53q0 -26 -28.5 -56t-57.5 -48q-2 0 -4.5 -1t-3.5 -1q-6 0 -10 5.5t-4 10.5q0 7 6 10z" />
    <glyph glyph-name="uni1EB3" unicode="&#x1eb3;" horiz-adv-x="475" 
d="M207 111h-10q-3 -6 -9 -9t-12 0t-6 13q6 28 -20 28q-32 0 -69.5 -31.5t-37.5 -62.5q0 -8 8 -8q17 0 68 39q12 8 18 14q12 8 19 8q8 0 18 -10q49 -49 127 -49q98 0 223 76q4 2 8 2q10 0 13 -8q6 -11 -4 -21q-133 -80 -240 -80q-87 0 -149 56q-61 -58 -99 -58q-37 0 -37 37
q0 38 50 80.5t90 42.5q29 0 41 -18q13 -20 10 -41zM88 299l-2 -4q0 6 6 12t12 6q8 0 11 -8q14 -39 67 -39q51 0 78 43q4 4 10 4q7 0 9 -2q9 -6 6 -16q-34 -55 -105 -55t-92 59zM174 365l2 -3q72 44 72 80q0 22 -21 25h-8q-15 0 -18 -12q-3 -6 -13 -6h-8q-15 3 -12 12
q6 23 19.5 30t39.5 7q49 -6 49 -54q0 -26 -28.5 -56t-57.5 -48q-2 0 -4.5 -1t-3.5 -1q-6 0 -10 5.5t-4 10.5q0 8 6 11z" />
    <glyph glyph-name="uni1EB4" unicode="&#x1eb4;" horiz-adv-x="1400" 
d="M1456 121l-2 -4q4 2 8 2q6 0 8 -2q7 -3 7 -13q0 -8 -7 -12q-107 -76 -264 -76q-129 0 -201.5 72t-86.5 203q-119 -72 -371 -254q-268 -197 -385 -197q-90 0 -90 90q0 65 63.5 179.5t158.5 237.5t173.5 215.5t140.5 158.5q43 46 119.5 124t184 182.5t199 177.5t124.5 73
q66 0 25 -86q-11 -26 -74 -137q-46 -81 -72.5 -130.5t-63.5 -129t-57.5 -140.5t-35.5 -137.5t-15 -148.5v-27q239 133 422 133q12 0 12 -14q0 -15 -14 -15q-177 0 -418 -137q27 -260 264 -260q144 0 248 72zM528 61h-2q272 201 383 263v41q0 272 244 704q85 152 82 174
q0 8 -10 8q-45 0 -226 -166q-104 -95 -242 -237.5t-293 -319.5t-260.5 -342.5t-105.5 -255.5q0 -61 62 -61q112 0 368 192zM1171 1432l-2 -5q0 6 6.5 12.5t12.5 6.5q7 0 10 -8q14 -39 68 -39q50 0 77 43q4 4 11 4q6 0 8 -2q10 -6 6 -17q-34 -55 -104 -55q-71 0 -93 60z
M1174 1526q-6 -6 -13 -6q-6 0 -10 4q-6 9 0 18q23 23 53 23q20 0 56 -31t55 -31q28 0 55 27q4 4 10 4h4q11 -4 13 -8q3 -5 -4 -15q-36 -36 -74 -36q-27 0 -64 30q-39 31 -51 31q-13 0 -30 -10z" />
    <glyph glyph-name="uni1EB5" unicode="&#x1eb5;" horiz-adv-x="475" 
d="M207 111h-10q-3 -6 -9 -9t-12 0t-6 13q6 28 -20 28q-32 0 -69.5 -31.5t-37.5 -62.5q0 -8 8 -8q17 0 68 39q12 8 18 14q12 8 19 8q8 0 18 -10q49 -49 127 -49q98 0 223 76q4 2 8 2q10 0 13 -8q6 -11 -4 -21q-133 -80 -240 -80q-87 0 -149 56q-61 -58 -99 -58q-37 0 -37 37
q0 38 50 80.5t90 42.5q29 0 41 -18q13 -20 10 -41zM88 299l-2 -4q0 6 6 12t12 6q8 0 11 -8q14 -39 67 -39q51 0 78 43q4 4 10 4q7 0 9 -2q9 -6 6 -16q-34 -55 -105 -55t-92 59zM88 389q-6 -6 -12 -6t-10 4q-6 9 0 19q22 22 53 22q19 0 55 -31q35 -30 55 -30q30 0 56 26
q4 4 10 4h4q10 -3 12 -8t-4 -14q-37 -37 -74 -37q-24 0 -63 31q-38 30 -51 30q-14 0 -31 -10z" />
    <glyph glyph-name="uni1EB6" unicode="&#x1eb6;" horiz-adv-x="1400" 
d="M684 -63l-57 -17q-21 0 -21 19q0 9 10 12l60 14q10 0 14 -2t4 -12q3 -11 -10 -14zM1456 121l-2 -4q4 2 8 2q6 0 8 -2q7 -3 7 -13q0 -8 -7 -12q-107 -76 -264 -76q-129 0 -201.5 72t-86.5 203q-119 -72 -371 -254q-268 -197 -385 -197q-90 0 -90 90q0 65 63.5 179.5
t158.5 237.5t173.5 215.5t140.5 158.5q43 46 119.5 124t184 182.5t199 177.5t124.5 73q66 0 25 -86q-11 -26 -74 -137q-46 -81 -72.5 -130.5t-63.5 -129t-57.5 -140.5t-35.5 -137.5t-15 -148.5v-27q239 133 422 133q12 0 12 -14q0 -15 -14 -15q-177 0 -418 -137
q27 -260 264 -260q144 0 248 72zM528 61h-2q272 201 383 263v41q0 272 244 704q85 152 82 174q0 8 -10 8q-45 0 -226 -166q-104 -95 -242 -237.5t-293 -319.5t-260.5 -342.5t-105.5 -255.5q0 -61 62 -61q112 0 368 192zM1171 1432l-2 -5q0 6 6.5 12.5t12.5 6.5q7 0 10 -8
q14 -39 68 -39q50 0 77 43q4 4 11 4q6 0 8 -2q10 -6 6 -17q-34 -55 -104 -55q-71 0 -93 60z" />
    <glyph glyph-name="uni1EB7" unicode="&#x1eb7;" horiz-adv-x="475" 
d="M121 -63l-58 -17q-20 0 -20 19q0 9 10 12l60 14q11 0 14.5 -2t3.5 -12q3 -11 -10 -14zM207 111h-10q-3 -6 -9 -9t-12 0t-6 13q6 28 -20 28q-32 0 -69.5 -31.5t-37.5 -62.5q0 -8 8 -8q17 0 68 39q12 8 18 14q12 8 19 8q8 0 18 -10q49 -49 127 -49q98 0 223 76q4 2 8 2
q10 0 13 -8q6 -11 -4 -21q-133 -80 -240 -80q-87 0 -149 56q-61 -58 -99 -58q-37 0 -37 37q0 38 50 80.5t90 42.5q29 0 41 -18q13 -20 10 -41zM88 299l-2 -4q0 6 6 12t12 6q8 0 11 -8q14 -39 67 -39q51 0 78 43q4 4 10 4q7 0 9 -2q9 -6 6 -16q-34 -55 -105 -55t-92 59z" />
    <glyph glyph-name="uni1EB8" unicode="&#x1eb8;" horiz-adv-x="1298" 
d="M1083 1178l9 -9q9 0 12 -6q3 -7 -2 -12q-6 -6 -15 -6q-14 2 -63 2q-90 0 -190.5 -15.5t-206 -45t-201 -79t-171.5 -112.5t-120.5 -150t-44.5 -186q0 -58 26.5 -99.5t71 -63t92.5 -31t103 -9.5q203 0 371 86q6 3 12 0t6 -10t-8 -12q-234 -176 -234 -375q0 -58 46 -92.5
t106 -34.5q167 0 356.5 55t313.5 148q8 4 10 4q1 0 3 -1t3 -1q6 -3 6 -12t-6 -15q-127 -95 -322 -151t-366 -56q-73 0 -126.5 43t-53.5 113q0 165 162 330q-130 -46 -271 -49q-64 0 -118.5 10.5t-106 34.5t-81.5 72t-30 116q0 90 35 171t94.5 142.5t139 113t168 87t182 60
t179.5 36t163 11.5q53 0 67 -2zM825 -195l-57 -16q-20 0 -20 18q0 10 10 13l59 14q11 0 15 -2t4 -12q3 -12 -11 -15z" />
    <glyph glyph-name="uni1EB9" unicode="&#x1eb9;" horiz-adv-x="552" 
d="M199 188l-6 7q12 0 12 -15q0 -14 -12 -14q-34 0 -77.5 -13.5t-43.5 -39.5q0 -28 45 -37q8 -3 8 -15t-10 -12q-35 -3 -35 -18q0 -23 102 -23q88 0 223 35t199 80q2 2 6 2q8 0 13 -8q9 -12 0 -21q-66 -45 -208 -82t-231 -37q-131 0 -131 52q0 21 31 30q-37 9 -37 47
q0 26 30 46t63.5 28t58.5 8zM209 -86l-57 -16q-21 0 -21 18q0 9 10 12l60 15q10 0 14 -2.5t4 -12.5q3 -11 -10 -14z" />
    <glyph glyph-name="uni1EBA" unicode="&#x1eba;" horiz-adv-x="1298" 
d="M1083 1178l9 -9q9 0 12 -6q3 -7 -2 -12q-6 -6 -15 -6q-14 2 -63 2q-90 0 -190.5 -15.5t-206 -45t-201 -79t-171.5 -112.5t-120.5 -150t-44.5 -186q0 -58 26.5 -99.5t71 -63t92.5 -31t103 -9.5q203 0 371 86q6 3 12 0t6 -10t-8 -12q-234 -176 -234 -375q0 -58 46 -92.5
t106 -34.5q167 0 356.5 55t313.5 148q8 4 10 4q1 0 3 -1t3 -1q6 -3 6 -12t-6 -15q-127 -95 -322 -151t-366 -56q-73 0 -126.5 43t-53.5 113q0 165 162 330q-130 -46 -271 -49q-64 0 -118.5 10.5t-106 34.5t-81.5 72t-30 116q0 90 35 171t94.5 142.5t139 113t168 87t182 60
t179.5 36t163 11.5q53 0 67 -2zM637 1290l2 -2q72 44 72 80q0 22 -21 25h-8q-15 0 -18 -13q-3 -6 -13 -6h-8q-15 3 -12 12q6 23 19.5 30t39.5 7q49 -6 49 -53q0 -26 -28.5 -56t-57.5 -48q-2 0 -4.5 -1t-3.5 -1q-6 0 -10 5.5t-4 10.5q0 7 6 10z" />
    <glyph glyph-name="uni1EBB" unicode="&#x1ebb;" horiz-adv-x="552" 
d="M199 188l-6 7q12 0 12 -15q0 -14 -12 -14q-34 0 -77.5 -13.5t-43.5 -39.5q0 -28 45 -37q8 -3 8 -15t-10 -12q-35 -3 -35 -18q0 -23 102 -23q88 0 223 35t199 80q2 2 6 2q8 0 13 -8q9 -12 0 -21q-66 -45 -208 -82t-231 -37q-131 0 -131 52q0 21 31 30q-37 9 -37 47
q0 26 30 46t63.5 28t58.5 8zM121 274l2 -2q72 44 72 80q0 22 -21 25h-8q-16 0 -19 -12q-3 -7 -12 -7h-8q-15 3 -12 13q6 23 19.5 30t39.5 7q49 -6 49 -54q0 -26 -28.5 -56t-57.5 -48q-2 0 -4.5 -1t-3.5 -1q-6 0 -10 5.5t-4 10.5q0 7 6 10z" />
    <glyph glyph-name="uni1EBC" unicode="&#x1ebc;" horiz-adv-x="1298" 
d="M1083 1178l9 -9q9 0 12 -6q3 -7 -2 -12q-6 -6 -15 -6q-14 2 -63 2q-90 0 -190.5 -15.5t-206 -45t-201 -79t-171.5 -112.5t-120.5 -150t-44.5 -186q0 -58 26.5 -99.5t71 -63t92.5 -31t103 -9.5q203 0 371 86q6 3 12 0t6 -10t-8 -12q-234 -176 -234 -375q0 -58 46 -92.5
t106 -34.5q167 0 356.5 55t313.5 148q8 4 10 4q1 0 3 -1t3 -1q6 -3 6 -12t-6 -15q-127 -95 -322 -151t-366 -56q-73 0 -126.5 43t-53.5 113q0 165 162 330q-130 -46 -271 -49q-64 0 -118.5 10.5t-106 34.5t-81.5 72t-30 116q0 90 35 171t94.5 142.5t139 113t168 87t182 60
t179.5 36t163 11.5q53 0 67 -2zM604 1315q-6 -6 -12 -6t-10 4q-6 9 0 18q23 23 53 23q19 0 55 -31t55 -31q29 0 56 27q4 4 10 4h4q10 -3 12 -8q3 -5 -4 -15q-36 -36 -73 -36q-26 0 -64 30q-39 31 -51 31q-14 0 -31 -10z" />
    <glyph glyph-name="uni1EBD" unicode="&#x1ebd;" horiz-adv-x="552" 
d="M199 188l-6 7q12 0 12 -15q0 -14 -12 -14q-34 0 -77.5 -13.5t-43.5 -39.5q0 -28 45 -37q8 -3 8 -15t-10 -12q-35 -3 -35 -18q0 -23 102 -23q88 0 223 35t199 80q2 2 6 2q8 0 13 -8q9 -12 0 -21q-66 -45 -208 -82t-231 -37q-131 0 -131 52q0 21 31 30q-37 9 -37 47
q0 26 30 46t63.5 28t58.5 8zM51 299q-6 -6 -12 -6t-10 4q-6 9 0 18q23 23 53 23q19 0 55 -31t56 -31q28 0 55 27q4 4 10 4h4q10 -3 12 -8t-4 -14q-37 -37 -73 -37q-25 0 -64 31q-38 30 -51 30q-14 0 -31 -10z" />
    <glyph glyph-name="uni1EBE" unicode="&#x1ebe;" horiz-adv-x="1298" 
d="M1083 1178l9 -9q9 0 12 -6q3 -7 -2 -12q-6 -6 -15 -6q-14 2 -63 2q-90 0 -190.5 -15.5t-206 -45t-201 -79t-171.5 -112.5t-120.5 -150t-44.5 -186q0 -58 26.5 -99.5t71 -63t92.5 -31t103 -9.5q203 0 371 86q6 3 12 0t6 -10t-8 -12q-234 -176 -234 -375q0 -58 46 -92.5
t106 -34.5q167 0 356.5 55t313.5 148q8 4 10 4q1 0 3 -1t3 -1q6 -3 6 -12t-6 -15q-127 -95 -322 -151t-366 -56q-73 0 -126.5 43t-53.5 113q0 165 162 330q-130 -46 -271 -49q-64 0 -118.5 10.5t-106 34.5t-81.5 72t-30 116q0 90 35 171t94.5 142.5t139 113t168 87t182 60
t179.5 36t163 11.5q53 0 67 -2zM780 1307l-73 -72q-3 -6 -11 -2q-7 3 -10 10q-3 6 0 14l78 70q10 10 16 10q7 0 15 -8l69 -80q10 -10 0 -16q-2 -2 -8 -2t-10 4zM895 1311l-2 -2h-16q-7 3 -7 12t7 12q91 72 145 119q4 4 10 4t8 -4q10 -10 4 -18q-93 -79 -149 -123z" />
    <glyph glyph-name="uni1EBF" unicode="&#x1ebf;" horiz-adv-x="552" 
d="M199 188l-6 7q12 0 12 -15q0 -14 -12 -14q-34 0 -77.5 -13.5t-43.5 -39.5q0 -28 45 -37q8 -3 8 -15t-10 -12q-35 -3 -35 -18q0 -23 102 -23q88 0 223 35t199 80q2 2 6 2q8 0 13 -8q9 -12 0 -21q-66 -45 -208 -82t-231 -37q-131 0 -131 52q0 21 31 30q-37 9 -37 47
q0 26 30 46t63.5 28t58.5 8zM180 332l-74 -72q-3 -6 -10 -2q-7 3 -10 10q-3 6 0 15l78 69q10 10 16 10q7 0 15 -8l69 -80q10 -10 0 -16q-2 -2 -8 -2t-10 4zM309 336l-2 -2h-16q-6 3 -6 12t6 12q91 72 145 119q4 4 10 4q7 0 9 -4q10 -10 4 -18q-83 -71 -150 -123z" />
    <glyph glyph-name="uni1EC0" unicode="&#x1ec0;" horiz-adv-x="1298" 
d="M1083 1178l9 -9q9 0 12 -6q3 -7 -2 -12q-6 -6 -15 -6q-14 2 -63 2q-90 0 -190.5 -15.5t-206 -45t-201 -79t-171.5 -112.5t-120.5 -150t-44.5 -186q0 -58 26.5 -99.5t71 -63t92.5 -31t103 -9.5q203 0 371 86q6 3 12 0t6 -10t-8 -12q-234 -176 -234 -375q0 -58 46 -92.5
t106 -34.5q167 0 356.5 55t313.5 148q8 4 10 4q1 0 3 -1t3 -1q6 -3 6 -12t-6 -15q-127 -95 -322 -151t-366 -56q-73 0 -126.5 43t-53.5 113q0 165 162 330q-130 -46 -271 -49q-64 0 -118.5 10.5t-106 34.5t-81.5 72t-30 116q0 90 35 171t94.5 142.5t139 113t168 87t182 60
t179.5 36t163 11.5q53 0 67 -2zM780 1307l-73 -72q-3 -6 -11 -2q-7 3 -10 10q-3 6 0 14l78 70q10 10 16 10q7 0 15 -8l69 -80q10 -10 0 -16q-2 -2 -8 -2t-10 4zM766 1409l-2 -2q-10 10 -4 18q7 7 16 7l146 -97q8 -5 2 -18q-3 -8 -11 -8q-4 0 -6 2q-131 92 -141 98z" />
    <glyph glyph-name="uni1EC1" unicode="&#x1ec1;" horiz-adv-x="552" 
d="M199 188l-6 7q12 0 12 -15q0 -14 -12 -14q-34 0 -77.5 -13.5t-43.5 -39.5q0 -28 45 -37q8 -3 8 -15t-10 -12q-35 -3 -35 -18q0 -23 102 -23q88 0 223 35t199 80q2 2 6 2q8 0 13 -8q9 -12 0 -21q-66 -45 -208 -82t-231 -37q-131 0 -131 52q0 21 31 30q-37 9 -37 47
q0 26 30 46t63.5 28t58.5 8zM180 332l-74 -72q-3 -6 -10 -2q-7 3 -10 10q-3 6 0 15l78 69q10 10 16 10q7 0 15 -8l69 -80q10 -10 0 -16q-2 -2 -8 -2t-10 4zM168 434l-2 -2q-10 10 -4 19q6 6 16 6l146 -97q8 -6 2 -18q-3 -8 -11 -8q-4 0 -6 2q-131 92 -141 98z" />
    <glyph glyph-name="uni1EC2" unicode="&#x1ec2;" horiz-adv-x="1298" 
d="M1083 1178l9 -9q9 0 12 -6q3 -7 -2 -12q-6 -6 -15 -6q-14 2 -63 2q-90 0 -190.5 -15.5t-206 -45t-201 -79t-171.5 -112.5t-120.5 -150t-44.5 -186q0 -58 26.5 -99.5t71 -63t92.5 -31t103 -9.5q203 0 371 86q6 3 12 0t6 -10t-8 -12q-234 -176 -234 -375q0 -58 46 -92.5
t106 -34.5q167 0 356.5 55t313.5 148q8 4 10 4q1 0 3 -1t3 -1q6 -3 6 -12t-6 -15q-127 -95 -322 -151t-366 -56q-73 0 -126.5 43t-53.5 113q0 165 162 330q-130 -46 -271 -49q-64 0 -118.5 10.5t-106 34.5t-81.5 72t-30 116q0 90 35 171t94.5 142.5t139 113t168 87t182 60
t179.5 36t163 11.5q53 0 67 -2zM780 1307l-73 -72q-3 -6 -11 -2q-7 3 -10 10q-3 6 0 14l78 70q10 10 16 10q7 0 15 -8l69 -80q10 -10 0 -16q-2 -2 -8 -2t-10 4zM877 1333l2 -2q71 44 71 80q0 22 -20 25h-8q-16 0 -19 -13q-3 -6 -12 -6h-8q-16 3 -13 13q6 23 19.5 29.5
t40.5 6.5q49 -6 49 -53q0 -26 -28.5 -56t-57.5 -48q-2 0 -4.5 -1t-3.5 -1q-6 0 -10.5 5.5t-4.5 10.5q0 7 7 10z" />
    <glyph glyph-name="uni1EC3" unicode="&#x1ec3;" horiz-adv-x="552" 
d="M199 188l-6 7q12 0 12 -15q0 -14 -12 -14q-34 0 -77.5 -13.5t-43.5 -39.5q0 -28 45 -37q8 -3 8 -15t-10 -12q-35 -3 -35 -18q0 -23 102 -23q88 0 223 35t199 80q2 2 6 2q8 0 13 -8q9 -12 0 -21q-66 -45 -208 -82t-231 -37q-131 0 -131 52q0 21 31 30q-37 9 -37 47
q0 26 30 46t63.5 28t58.5 8zM180 332l-74 -72q-3 -6 -10 -2q-7 3 -10 10q-3 6 0 15l78 69q10 10 16 10q7 0 15 -8l69 -80q10 -10 0 -16q-2 -2 -8 -2t-10 4zM276 358l3 -2q71 44 71 80q0 22 -20 25h-8q-16 0 -19 -12q-3 -7 -12 -7h-8q-16 3 -13 13q6 23 19.5 30t40.5 7
q49 -6 49 -54q0 -26 -28.5 -56t-57.5 -48q-2 0 -4.5 -1t-3.5 -1q-6 0 -10.5 5.5t-4.5 10.5q0 7 6 10z" />
    <glyph glyph-name="uni1EC4" unicode="&#x1ec4;" horiz-adv-x="1298" 
d="M1083 1178l9 -9q9 0 12 -6q3 -7 -2 -12q-6 -6 -15 -6q-14 2 -63 2q-90 0 -190.5 -15.5t-206 -45t-201 -79t-171.5 -112.5t-120.5 -150t-44.5 -186q0 -58 26.5 -99.5t71 -63t92.5 -31t103 -9.5q203 0 371 86q6 3 12 0t6 -10t-8 -12q-234 -176 -234 -375q0 -58 46 -92.5
t106 -34.5q167 0 356.5 55t313.5 148q8 4 10 4q1 0 3 -1t3 -1q6 -3 6 -12t-6 -15q-127 -95 -322 -151t-366 -56q-73 0 -126.5 43t-53.5 113q0 165 162 330q-130 -46 -271 -49q-64 0 -118.5 10.5t-106 34.5t-81.5 72t-30 116q0 90 35 171t94.5 142.5t139 113t168 87t182 60
t179.5 36t163 11.5q53 0 67 -2zM780 1307l-73 -72q-3 -6 -11 -2q-7 3 -10 10q-3 6 0 14l78 70q10 10 16 10q7 0 15 -8l69 -80q10 -10 0 -16q-2 -2 -8 -2t-10 4zM686 1419q-6 -6 -12 -6t-10 4q-6 9 0 19q22 22 53 22q19 0 55 -31q35 -30 55 -30q30 0 56 26q4 4 10 4h4
q10 -3 12 -8t-4 -14q-37 -37 -74 -37q-24 0 -63 31t-51 31q-13 0 -31 -11z" />
    <glyph glyph-name="uni1EC5" unicode="&#x1ec5;" horiz-adv-x="552" 
d="M199 188l-6 7q12 0 12 -15q0 -14 -12 -14q-34 0 -77.5 -13.5t-43.5 -39.5q0 -28 45 -37q8 -3 8 -15t-10 -12q-35 -3 -35 -18q0 -23 102 -23q88 0 223 35t199 80q2 2 6 2q8 0 13 -8q9 -12 0 -21q-66 -45 -208 -82t-231 -37q-131 0 -131 52q0 21 31 30q-37 9 -37 47
q0 26 30 46t63.5 28t58.5 8zM180 332l-74 -72q-3 -6 -10 -2q-7 3 -10 10q-3 6 0 15l78 69q10 10 16 10q7 0 15 -8l69 -80q10 -10 0 -16q-2 -2 -8 -2t-10 4zM84 451q-7 -7 -12 -7q-6 0 -11 5q-6 9 0 18q22 22 54 22q21 0 55 -30q36 -31 55 -31q29 0 56 27q4 4 10 4h4
q10 -3 12 -8q3 -5 -4 -15q-37 -37 -74 -37q-24 0 -63 31t-51 31q-14 0 -31 -10z" />
    <glyph glyph-name="uni1EC6" unicode="&#x1ec6;" horiz-adv-x="1298" 
d="M825 -195l-57 -16q-20 0 -20 18q0 10 10 13l59 14q11 0 15 -2t4 -12q3 -12 -11 -15zM1083 1178l9 -9q9 0 12 -6q3 -7 -2 -12q-6 -6 -15 -6q-14 2 -63 2q-90 0 -190.5 -15.5t-206 -45t-201 -79t-171.5 -112.5t-120.5 -150t-44.5 -186q0 -58 26.5 -99.5t71 -63t92.5 -31
t103 -9.5q203 0 371 86q6 3 12 0t6 -10t-8 -12q-234 -176 -234 -375q0 -58 46 -92.5t106 -34.5q167 0 356.5 55t313.5 148q8 4 10 4q1 0 3 -1t3 -1q6 -3 6 -12t-6 -15q-127 -95 -322 -151t-366 -56q-73 0 -126.5 43t-53.5 113q0 165 162 330q-130 -46 -271 -49
q-64 0 -118.5 10.5t-106 34.5t-81.5 72t-30 116q0 90 35 171t94.5 142.5t139 113t168 87t182 60t179.5 36t163 11.5q53 0 67 -2zM780 1307l-73 -72q-3 -6 -11 -2q-7 3 -10 10q-3 6 0 14l78 70q10 10 16 10q7 0 15 -8l69 -80q10 -10 0 -16q-2 -2 -8 -2t-10 4z" />
    <glyph glyph-name="uni1EC7" unicode="&#x1ec7;" horiz-adv-x="552" 
d="M209 -86l-57 -16q-21 0 -21 18q0 9 10 12l60 15q10 0 14 -2.5t4 -12.5q3 -11 -10 -14zM199 188l-6 7q12 0 12 -15q0 -14 -12 -14q-34 0 -77.5 -13.5t-43.5 -39.5q0 -28 45 -37q8 -3 8 -15t-10 -12q-35 -3 -35 -18q0 -23 102 -23q88 0 223 35t199 80q2 2 6 2q8 0 13 -8
q9 -12 0 -21q-66 -45 -208 -82t-231 -37q-131 0 -131 52q0 21 31 30q-37 9 -37 47q0 26 30 46t63.5 28t58.5 8zM180 332l-74 -72q-3 -6 -10 -2q-7 3 -10 10q-3 6 0 15l78 69q10 10 16 10q7 0 15 -8l69 -80q10 -10 0 -16q-2 -2 -8 -2t-10 4z" />
    <glyph glyph-name="uni1EC8" unicode="&#x1ec8;" horiz-adv-x="1550" 
d="M330 236l-6 4q9 0 12 -9q3 -8 0 -14t-12 -6q-96 13 -158 67t-62 146q0 108 123 240q206 221 545 367.5t639 146.5q98 0 163.5 -58.5t65.5 -154.5q0 -84 -43 -198.5t-113 -231.5t-163.5 -232t-189 -204t-194.5 -144t-177 -55q-182 0 -182 151q0 83 53 181t121 157q2 2 6 2
q6 0 8 -2q10 -3 12 -8q3 -5 -4 -12q-66 -61 -115 -150.5t-49 -167.5q0 -123 154 -123q64 0 144.5 41t155.5 105.5t134 125t105 117.5q70 86 136 189.5t121.5 233.5t55.5 221q0 85 -57.5 135.5t-143.5 50.5q-268 0 -572.5 -118.5t-510.5 -299.5q-197 -173 -197 -309
q0 -83 54.5 -128.5t140.5 -55.5zM1358 1298l2 -2q72 44 72 80q0 22 -21 25h-8q-16 0 -19 -12q-4 -7 -12 -7h-8q-15 3 -12 13q6 23 19.5 30t39.5 7q49 -6 49 -54q0 -26 -28.5 -56t-57.5 -48q-2 0 -4.5 -1t-3.5 -1q-6 0 -10 5.5t-4 10.5q0 7 6 10z" />
    <glyph glyph-name="uni1EC9" unicode="&#x1ec9;" horiz-adv-x="452" 
d="M49 113l-4 -2q3 6 10 6h6q14 -4 11 -13q-12 -42 8 -65q22 -25 61 -25q79 0 185.5 32t179.5 75l8 4q4 0 12 -8q9 -12 -4 -21q-76 -47 -183.5 -78.5t-195.5 -31.5q-59 0 -86 34q-26 34 -8 93zM70 213l2 -2q71 44 71 80q0 21 -20 24h-8q-16 0 -19 -12q-3 -6 -12 -6h-8
q-8 2 -11 5t-2 7q6 23 19.5 30t40.5 7q49 -6 49 -53q0 -26 -28.5 -56.5t-57.5 -48.5q-2 0 -4.5 -1t-3.5 -1q-6 0 -10.5 6t-4.5 11q0 7 7 10z" />
    <glyph glyph-name="uni1ECA" unicode="&#x1eca;" horiz-adv-x="1550" 
d="M330 236l-6 4q9 0 12 -9q3 -8 0 -14t-12 -6q-96 13 -158 67t-62 146q0 108 123 240q206 221 545 367.5t639 146.5q98 0 163.5 -58.5t65.5 -154.5q0 -84 -43 -198.5t-113 -231.5t-163.5 -232t-189 -204t-194.5 -144t-177 -55q-182 0 -182 151q0 83 53 181t121 157q2 2 6 2
q6 0 8 -2q10 -3 12 -8q3 -5 -4 -12q-66 -61 -115 -150.5t-49 -167.5q0 -123 154 -123q64 0 144.5 41t155.5 105.5t134 125t105 117.5q70 86 136 189.5t121.5 233.5t55.5 221q0 85 -57.5 135.5t-143.5 50.5q-268 0 -572.5 -118.5t-510.5 -299.5q-197 -173 -197 -309
q0 -83 54.5 -128.5t140.5 -55.5zM791 -178l-58 -17q-20 0 -20 19q0 9 10 12l59 14q11 0 15 -2t4 -12q3 -11 -10 -14z" />
    <glyph glyph-name="uni1ECB" unicode="&#x1ecb;" horiz-adv-x="452" 
d="M205 297l-58 -16q-20 0 -20 18q0 9 10 12l60 15q10 0 14 -2.5t4 -12.5q3 -11 -10 -14zM51 111l-4 -2q3 6 10 6h6q14 -4 11 -13q-12 -42 8 -65q22 -25 61 -25q79 0 185.5 32t179.5 75l8 4q4 0 12 -8q9 -12 -4 -21q-76 -47 -183.5 -78.5t-195.5 -31.5q-59 0 -86 34
q-26 34 -8 93zM166 -86l-57 -16q-21 0 -21 18q0 9 10 12l60 15q10 0 14 -2.5t4 -12.5q3 -11 -10 -14z" />
    <glyph glyph-name="uni1ECC" unicode="&#x1ecc;" horiz-adv-x="1294" 
d="M496 565l-15 -2q-3 -6 -10 -6q-6 0 -8 2q-11 6 -8 16q89 162 205.5 237t300.5 75q77 0 138.5 -48.5t92.5 -119.5t31 -146q0 -280 -211 -473q-210 -192 -535 -192q-183 0 -303.5 124t-120.5 308q0 161 74.5 310t194.5 255t275.5 169t313.5 63q50 0 86 -4q10 0 13 -9
q3 -8 0 -14t-13 -6q-36 4 -79 4q-153 0 -302.5 -61t-265 -162.5t-187 -245.5t-71.5 -299q0 -171 114.5 -287t285.5 -116q312 0 514 184t202 450q0 68 -26 132t-80.5 108.5t-124.5 44.5q-172 0 -285 -68t-196 -223zM539 -170l-58 -16q-20 0 -20 18q0 9 10 12l59 15
q10 0 14.5 -2.5t4.5 -12.5q3 -11 -10 -14z" />
    <glyph glyph-name="uni1ECD" unicode="&#x1ecd;" 
d="M84 141l4 -2h4q7 0 12 -6t5 -12q0 -9 -9 -12q-37 -15 -49 -70q-6 -37 12 -37q16 0 25 25q9 24 6 53q-3 11 4 18q4 4 13 4h4q66 -14 153 -14q133 0 221 33h7q7 0 10 -8q3 -13 -8 -19q-88 -33 -230 -33q-90 0 -143 9q3 -33 -16 -64t-50 -31q-50 0 -41 64q9 69 56 96
q2 2 10 6zM96 -84l-57 -16q-21 0 -21 18q0 8 11 12l59 15q10 0 14 -2.5t4 -12.5q3 -11 -10 -14z" />
    <glyph glyph-name="uni1ECE" unicode="&#x1ece;" horiz-adv-x="1294" 
d="M496 565l-15 -2q-3 -6 -10 -6q-6 0 -8 2q-11 6 -8 16q89 162 205.5 237t300.5 75q77 0 138.5 -48.5t92.5 -119.5t31 -146q0 -280 -211 -473q-210 -192 -535 -192q-183 0 -303.5 124t-120.5 308q0 161 74.5 310t194.5 255t275.5 169t313.5 63q50 0 86 -4q10 0 13 -9
q3 -8 0 -14t-13 -6q-36 4 -79 4q-153 0 -302.5 -61t-265 -162.5t-187 -245.5t-71.5 -299q0 -171 114.5 -287t285.5 -116q312 0 514 184t202 450q0 68 -26 132t-80.5 108.5t-124.5 44.5q-172 0 -285 -68t-196 -223zM788 1272l3 -2q71 44 71 80q0 21 -20 24h-8q-16 0 -19 -12
q-3 -6 -12 -6h-8q-8 2 -11 5t-2 7q6 23 19.5 30t40.5 7q49 -6 49 -53q0 -26 -28.5 -56.5t-57.5 -48.5q-2 0 -4.5 -1t-3.5 -1q-6 0 -10.5 6t-4.5 11q0 7 6 10z" />
    <glyph glyph-name="uni1ECF" unicode="&#x1ecf;" 
d="M84 141l4 -2h4q7 0 12 -6t5 -12q0 -9 -9 -12q-37 -15 -49 -70q-6 -37 12 -37q16 0 25 25q9 24 6 53q-3 11 4 18q4 4 13 4h4q66 -14 153 -14q133 0 221 33h7q7 0 10 -8q3 -13 -8 -19q-88 -33 -230 -33q-90 0 -143 9q3 -33 -16 -64t-50 -31q-50 0 -41 64q9 69 56 96
q2 2 10 6zM109 217l2 -2q71 44 71 80q0 21 -20 24h-8q-16 0 -19 -12q-3 -6 -12 -6h-8q-8 2 -11 5t-2 7q6 23 19.5 30t40.5 7q49 -6 49 -53q0 -26 -28.5 -56t-57.5 -48q-2 0 -4.5 -1.5t-3.5 -1.5q-6 0 -10.5 6t-4.5 11q0 7 7 10z" />
    <glyph glyph-name="uni1ED0" unicode="&#x1ed0;" horiz-adv-x="1294" 
d="M496 565l-15 -2q-3 -6 -10 -6q-6 0 -8 2q-11 6 -8 16q89 162 205.5 237t300.5 75q77 0 138.5 -48.5t92.5 -119.5t31 -146q0 -280 -211 -473q-210 -192 -535 -192q-183 0 -303.5 124t-120.5 308q0 161 74.5 310t194.5 255t275.5 169t313.5 63q50 0 86 -4q10 0 13 -9
q3 -8 0 -14t-13 -6q-36 4 -79 4q-153 0 -302.5 -61t-265 -162.5t-187 -245.5t-71.5 -299q0 -171 114.5 -287t285.5 -116q312 0 514 184t202 450q0 68 -26 132t-80.5 108.5t-124.5 44.5q-172 0 -285 -68t-196 -223zM934 1323l-74 -72q-3 -6 -10 -2q-6 3 -10 11q-3 6 0 14
l78 69q11 11 16 11q6 0 14 -8l70 -80q10 -10 0 -17q-2 -2 -8 -2q-7 0 -11 4zM1044 1327l-2 -2h-16q-6 3 -6 12q0 10 6 13q102 81 145 118q5 5 11 5t8 -5q10 -10 4 -18q-82 -70 -150 -123z" />
    <glyph glyph-name="uni1ED1" unicode="&#x1ed1;" 
d="M84 141l4 -2h4q7 0 12 -6t5 -12q0 -9 -9 -12q-37 -15 -49 -70q-6 -37 12 -37q16 0 25 25q9 24 6 53q-3 11 4 18q4 4 13 4h4q66 -14 153 -14q133 0 221 33h7q7 0 10 -8q3 -13 -8 -19q-88 -33 -230 -33q-90 0 -143 9q3 -33 -16 -64t-50 -31q-50 0 -41 64q9 69 56 96
q2 2 10 6zM129 266l-74 -71q-3 -6 -10 -2q-7 3 -10 10q-3 6 0 14l78 70q10 10 16 10t14 -8l70 -80q10 -10 0 -16q-3 -3 -8 -3t-10 5zM250 270l-2 -2h-17q-6 3 -6 13q0 9 6 12q101 80 146 119q4 4 10 4t8 -4q10 -10 4 -19q-93 -79 -149 -123z" />
    <glyph glyph-name="uni1ED2" unicode="&#x1ed2;" horiz-adv-x="1294" 
d="M496 565l-15 -2q-3 -6 -10 -6q-6 0 -8 2q-11 6 -8 16q89 162 205.5 237t300.5 75q77 0 138.5 -48.5t92.5 -119.5t31 -146q0 -280 -211 -473q-210 -192 -535 -192q-183 0 -303.5 124t-120.5 308q0 161 74.5 310t194.5 255t275.5 169t313.5 63q50 0 86 -4q10 0 13 -9
q3 -8 0 -14t-13 -6q-36 4 -79 4q-153 0 -302.5 -61t-265 -162.5t-187 -245.5t-71.5 -299q0 -171 114.5 -287t285.5 -116q312 0 514 184t202 450q0 68 -26 132t-80.5 108.5t-124.5 44.5q-172 0 -285 -68t-196 -223zM934 1323l-74 -72q-3 -6 -10 -2q-6 3 -10 11q-3 6 0 14
l78 69q11 11 16 11q6 0 14 -8l70 -80q10 -10 0 -17q-2 -2 -8 -2q-7 0 -11 4zM926 1425l-2 -2q-10 10 -4 19q6 6 16 6l145 -96q9 -6 2 -19q-3 -8 -10 -8q-4 0 -6 2q-131 92 -141 98z" />
    <glyph glyph-name="uni1ED3" unicode="&#x1ed3;" 
d="M84 141l4 -2h4q7 0 12 -6t5 -12q0 -9 -9 -12q-37 -15 -49 -70q-6 -37 12 -37q16 0 25 25q9 24 6 53q-3 11 4 18q4 4 13 4h4q66 -14 153 -14q133 0 221 33h7q7 0 10 -8q3 -13 -8 -19q-88 -33 -230 -33q-90 0 -143 9q3 -33 -16 -64t-50 -31q-50 0 -41 64q9 69 56 96
q2 2 10 6zM129 266l-74 -71q-3 -6 -10 -2q-7 3 -10 10q-3 6 0 14l78 70q10 10 16 10t14 -8l70 -80q10 -10 0 -16q-3 -3 -8 -3t-10 5zM117 369l-2 -2q-10 10 -4 18q6 6 16 6l145 -96q9 -6 2 -19q-3 -8 -10 -8q-4 0 -6 2z" />
    <glyph glyph-name="uni1ED4" unicode="&#x1ed4;" horiz-adv-x="1294" 
d="M496 565l-15 -2q-3 -6 -10 -6q-6 0 -8 2q-11 6 -8 16q89 162 205.5 237t300.5 75q77 0 138.5 -48.5t92.5 -119.5t31 -146q0 -280 -211 -473q-210 -192 -535 -192q-183 0 -303.5 124t-120.5 308q0 161 74.5 310t194.5 255t275.5 169t313.5 63q50 0 86 -4q10 0 13 -9
q3 -8 0 -14t-13 -6q-36 4 -79 4q-153 0 -302.5 -61t-265 -162.5t-187 -245.5t-71.5 -299q0 -171 114.5 -287t285.5 -116q312 0 514 184t202 450q0 68 -26 132t-80.5 108.5t-124.5 44.5q-172 0 -285 -68t-196 -223zM934 1323l-74 -72q-3 -6 -10 -2q-6 3 -10 11q-3 6 0 14
l78 69q11 11 16 11q6 0 14 -8l70 -80q10 -10 0 -17q-2 -2 -8 -2q-7 0 -11 4zM1030 1350l2 -2q72 44 72 79q0 22 -21 25h-8q-15 0 -18 -12q-3 -6 -13 -6h-8q-15 3 -12 12q6 23 19.5 30t39.5 7q50 -6 50 -53q0 -26 -28.5 -56.5t-57.5 -48.5q-2 0 -5 -1t-4 -1q-6 0 -10 5.5
t-4 10.5q0 8 6 11z" />
    <glyph glyph-name="uni1ED5" unicode="&#x1ed5;" 
d="M84 141l4 -2h4q7 0 12 -6t5 -12q0 -9 -9 -12q-37 -15 -49 -70q-6 -37 12 -37q16 0 25 25q9 24 6 53q-3 11 4 18q4 4 13 4h4q66 -14 153 -14q133 0 221 33h7q7 0 10 -8q3 -13 -8 -19q-88 -33 -230 -33q-90 0 -143 9q3 -33 -16 -64t-50 -31q-50 0 -41 64q9 69 56 96
q2 2 10 6zM129 266l-74 -71q-3 -6 -10 -2q-7 3 -10 10q-3 6 0 14l78 70q10 10 16 10t14 -8l70 -80q10 -10 0 -16q-3 -3 -8 -3t-10 5zM221 293l2 -2q72 44 72 80q0 21 -21 24h-8q-15 0 -18 -12q-3 -6 -12 -6h-9q-15 3 -12 12q6 23 19.5 30t39.5 7q50 -6 50 -53
q0 -26 -28.5 -56.5t-57.5 -48.5q-2 0 -5 -1t-4 -1q-6 0 -10 6t-4 11q0 7 6 10z" />
    <glyph glyph-name="uni1ED6" unicode="&#x1ed6;" horiz-adv-x="1294" 
d="M496 565l-15 -2q-3 -6 -10 -6q-6 0 -8 2q-11 6 -8 16q89 162 205.5 237t300.5 75q77 0 138.5 -48.5t92.5 -119.5t31 -146q0 -280 -211 -473q-210 -192 -535 -192q-183 0 -303.5 124t-120.5 308q0 161 74.5 310t194.5 255t275.5 169t313.5 63q50 0 86 -4q10 0 13 -9
q3 -8 0 -14t-13 -6q-36 4 -79 4q-153 0 -302.5 -61t-265 -162.5t-187 -245.5t-71.5 -299q0 -171 114.5 -287t285.5 -116q312 0 514 184t202 450q0 68 -26 132t-80.5 108.5t-124.5 44.5q-172 0 -285 -68t-196 -223zM934 1323l-74 -72q-3 -6 -10 -2q-6 3 -10 11q-3 6 0 14
l78 69q11 11 16 11q6 0 14 -8l70 -80q10 -10 0 -17q-2 -2 -8 -2q-7 0 -11 4zM846 1438q-6 -6 -12 -6q-7 0 -11 4q-6 9 0 18q23 23 54 23q19 0 55 -31t55 -31q28 0 55 27q4 4 11 4h4q10 -3 12 -8q3 -5 -4 -15q-37 -37 -74 -37q-24 0 -63 31t-51 31q-14 0 -31 -10z" />
    <glyph glyph-name="uni1ED7" unicode="&#x1ed7;" 
d="M84 141l4 -2h4q7 0 12 -6t5 -12q0 -9 -9 -12q-37 -15 -49 -70q-6 -37 12 -37q16 0 25 25q9 24 6 53q-3 11 4 18q4 4 13 4h4q66 -14 153 -14q133 0 221 33h7q7 0 10 -8q3 -13 -8 -19q-88 -33 -230 -33q-90 0 -143 9q3 -33 -16 -64t-50 -31q-50 0 -41 64q9 69 56 96
q2 2 10 6zM129 266l-74 -71q-3 -6 -10 -2q-7 3 -10 10q-3 6 0 14l78 70q10 10 16 10t14 -8l70 -80q10 -10 0 -16q-3 -3 -8 -3t-10 5zM33 377q-6 -6 -13 -6q-6 0 -10 4q-6 9 0 18q23 23 53 23q20 0 56 -31t55 -31q28 0 55 27q4 4 11 4h4q10 -3 12 -8q3 -5 -4 -15
q-36 -36 -74 -36q-26 0 -63 30q-39 31 -52 31t-30 -10z" />
    <glyph glyph-name="uni1ED8" unicode="&#x1ed8;" horiz-adv-x="1294" 
d="M539 -170l-58 -16q-20 0 -20 18q0 9 10 12l59 15q10 0 14.5 -2.5t4.5 -12.5q3 -11 -10 -14zM496 565l-15 -2q-3 -6 -10 -6q-6 0 -8 2q-11 6 -8 16q89 162 205.5 237t300.5 75q77 0 138.5 -48.5t92.5 -119.5t31 -146q0 -280 -211 -473q-210 -192 -535 -192
q-183 0 -303.5 124t-120.5 308q0 161 74.5 310t194.5 255t275.5 169t313.5 63q50 0 86 -4q10 0 13 -9q3 -8 0 -14t-13 -6q-36 4 -79 4q-153 0 -302.5 -61t-265 -162.5t-187 -245.5t-71.5 -299q0 -171 114.5 -287t285.5 -116q312 0 514 184t202 450q0 68 -26 132t-80.5 108.5
t-124.5 44.5q-172 0 -285 -68t-196 -223zM934 1323l-74 -72q-3 -6 -10 -2q-6 3 -10 11q-3 6 0 14l78 69q11 11 16 11q6 0 14 -8l70 -80q10 -10 0 -17q-2 -2 -8 -2q-7 0 -11 4z" />
    <glyph glyph-name="uni1ED9" unicode="&#x1ed9;" 
d="M96 -84l-57 -16q-21 0 -21 18q0 8 11 12l59 15q10 0 14 -2.5t4 -12.5q3 -11 -10 -14zM84 141l4 -2h4q7 0 12 -6t5 -12q0 -9 -9 -12q-37 -15 -49 -70q-6 -37 12 -37q16 0 25 25q9 24 6 53q-3 11 4 18q4 4 13 4h4q66 -14 153 -14q133 0 221 33h7q7 0 10 -8q3 -13 -8 -19
q-88 -33 -230 -33q-90 0 -143 9q3 -33 -16 -64t-50 -31q-50 0 -41 64q9 69 56 96q2 2 10 6zM129 266l-74 -71q-3 -6 -10 -2q-7 3 -10 10q-3 6 0 14l78 70q10 10 16 10t14 -8l70 -80q10 -10 0 -16q-3 -3 -8 -3t-10 5z" />
    <glyph glyph-name="uni1EDA" unicode="&#x1eda;" horiz-adv-x="1294" 
d="M1225 791q-8 -35 -45 -46q43 -73 43 -172q0 -280 -211 -473q-210 -192 -535 -192q-183 0 -303.5 124t-120.5 308q0 161 74.5 310t194.5 255t275.5 169t313.5 63q50 0 86 -4q10 0 13 -9q3 -8 0 -14t-13 -6q-36 4 -79 4q-153 0 -302.5 -61t-265 -162.5t-187 -245.5
t-71.5 -299q0 -171 114.5 -287t285.5 -116q312 0 514 184t202 450q0 68 -26 132t-80.5 108.5t-124.5 44.5q-172 0 -285 -68t-196 -223l-15 -2q-3 -6 -10 -6q-6 0 -8 2q-11 6 -8 16q89 162 205.5 237t300.5 75q107 0 184 -92q7 -7 20 -29q24 10 29 33q7 20 -12 41q-3 13 8 24
q6 6 14 6q2 0 6 -4q27 -30 15 -75zM846 1249l-2 -2h-17q-6 3 -6 13q0 9 6 12q101 80 146 119q4 4 10 4t8 -4q10 -10 4 -19q-93 -79 -149 -123z" />
    <glyph glyph-name="uni1EDB" unicode="&#x1edb;" 
d="M506 113q3 -13 -8 -19q-88 -33 -230 -33q-90 0 -143 9q3 -33 -16 -64t-50 -31q-50 0 -41 64q9 69 56 96l10 6l4 -2h4q7 0 12 -6t5 -12q0 -9 -9 -12q-37 -15 -49 -70q-6 -37 12 -37q16 0 25 25q9 24 6 53q-3 11 4 18q4 4 13 4h4q18 6 26 27q4 18 -10 37q-3 11 8 22
q5 5 11 5q3 0 6 -3q25 -28 12 -67q-6 -17 -16 -27q49 -8 116 -8q133 0 221 33h7q7 0 10 -8zM80 195l-2 -2h-17q-6 3 -6 12t6 12q101 80 146 119q4 4 10 4t8 -4q10 -10 4 -19q-80 -68 -149 -122z" />
    <glyph glyph-name="uni1EDC" unicode="&#x1edc;" horiz-adv-x="1294" 
d="M1225 791q-8 -35 -45 -46q43 -73 43 -172q0 -280 -211 -473q-210 -192 -535 -192q-183 0 -303.5 124t-120.5 308q0 161 74.5 310t194.5 255t275.5 169t313.5 63q50 0 86 -4q10 0 13 -9q3 -8 0 -14t-13 -6q-36 4 -79 4q-153 0 -302.5 -61t-265 -162.5t-187 -245.5
t-71.5 -299q0 -171 114.5 -287t285.5 -116q312 0 514 184t202 450q0 68 -26 132t-80.5 108.5t-124.5 44.5q-172 0 -285 -68t-196 -223l-15 -2q-3 -6 -10 -6q-6 0 -8 2q-11 6 -8 16q89 162 205.5 237t300.5 75q107 0 184 -92q7 -7 20 -29q24 10 29 33q7 20 -12 41q-3 13 8 24
q6 6 14 6q2 0 6 -4q27 -30 15 -75zM770 1348l-2 -2q-10 10 -4 18q6 6 16 6l146 -96q9 -6 2 -19q-3 -8 -10 -8q-5 0 -7 2z" />
    <glyph glyph-name="uni1EDD" unicode="&#x1edd;" 
d="M506 113q3 -13 -8 -19q-88 -33 -230 -33q-90 0 -143 9q3 -33 -16 -64t-50 -31q-50 0 -41 64q9 69 56 96l10 6l4 -2h4q7 0 12 -6t5 -12q0 -9 -9 -12q-37 -15 -49 -70q-6 -37 12 -37q16 0 25 25q9 24 6 53q-3 11 4 18q4 4 13 4h4q18 6 26 27q4 18 -10 37q-3 11 8 22
q5 5 11 5q3 0 6 -3q25 -28 12 -67q-6 -17 -16 -27q49 -8 116 -8q133 0 221 33h7q7 0 10 -8zM61 303l-2 -2q-10 10 -4 18q7 7 17 7l145 -97q8 -5 2 -18q-3 -8 -10 -8q-4 0 -6 2q-125 88 -142 98z" />
    <glyph glyph-name="uni1EDE" unicode="&#x1ede;" horiz-adv-x="1294" 
d="M1225 791q-8 -35 -45 -46q43 -73 43 -172q0 -280 -211 -473q-210 -192 -535 -192q-183 0 -303.5 124t-120.5 308q0 161 74.5 310t194.5 255t275.5 169t313.5 63q50 0 86 -4q10 0 13 -9q3 -8 0 -14t-13 -6q-36 4 -79 4q-153 0 -302.5 -61t-265 -162.5t-187 -245.5
t-71.5 -299q0 -171 114.5 -287t285.5 -116q312 0 514 184t202 450q0 68 -26 132t-80.5 108.5t-124.5 44.5q-172 0 -285 -68t-196 -223l-15 -2q-3 -6 -10 -6q-6 0 -8 2q-11 6 -8 16q89 162 205.5 237t300.5 75q107 0 184 -92q7 -7 20 -29q24 10 29 33q7 20 -12 41q-3 13 8 24
q6 6 14 6q2 0 6 -4q27 -30 15 -75zM870 1272l2 -2q72 44 72 80q0 21 -20 24h-9q-15 0 -18 -12q-3 -6 -12 -6h-8q-8 2 -11 5t-2 7q6 23 19.5 30t40.5 7q49 -6 49 -53q0 -26 -28.5 -56.5t-57.5 -48.5q-2 0 -4.5 -1t-3.5 -1q-6 0 -10.5 6t-4.5 11q0 7 6 10z" />
    <glyph glyph-name="uni1EDF" unicode="&#x1edf;" 
d="M506 113q3 -13 -8 -19q-88 -33 -230 -33q-90 0 -143 9q3 -33 -16 -64t-50 -31q-50 0 -41 64q9 69 56 96l10 6l4 -2h4q7 0 12 -6t5 -12q0 -9 -9 -12q-37 -15 -49 -70q-6 -37 12 -37q16 0 25 25q9 24 6 53q-3 11 4 18q4 4 13 4h4q18 6 26 27q4 18 -10 37q-3 11 8 22
q5 5 11 5q3 0 6 -3q25 -28 12 -67q-6 -17 -16 -27q49 -8 116 -8q133 0 221 33h7q7 0 10 -8zM84 217l2 -2q72 44 72 80q0 21 -21 24h-8q-15 0 -18 -12q-3 -6 -13 -6h-8q-15 3 -12 12q6 23 19.5 30t39.5 7q49 -6 49 -53q0 -26 -28.5 -56t-57.5 -48q-2 0 -4.5 -1.5t-3.5 -1.5
q-6 0 -10 6t-4 11q0 7 6 10z" />
    <glyph glyph-name="uni1EE0" unicode="&#x1ee0;" horiz-adv-x="1294" 
d="M1225 791q-8 -35 -45 -46q43 -73 43 -172q0 -280 -211 -473q-210 -192 -535 -192q-183 0 -303.5 124t-120.5 308q0 161 74.5 310t194.5 255t275.5 169t313.5 63q50 0 86 -4q10 0 13 -9q3 -8 0 -14t-13 -6q-36 4 -79 4q-153 0 -302.5 -61t-265 -162.5t-187 -245.5
t-71.5 -299q0 -171 114.5 -287t285.5 -116q312 0 514 184t202 450q0 68 -26 132t-80.5 108.5t-124.5 44.5q-172 0 -285 -68t-196 -223l-15 -2q-3 -6 -10 -6q-6 0 -8 2q-11 6 -8 16q89 162 205.5 237t300.5 75q107 0 184 -92q7 -7 20 -29q24 10 29 33q7 20 -12 41q-3 13 8 24
q6 6 14 6q2 0 6 -4q27 -30 15 -75zM766 1296q-6 -6 -12 -6q-7 0 -11 4q-6 10 0 19q22 22 54 22q21 0 55 -30q36 -31 55 -31q30 0 56 26q5 5 10 5h4q9 -3 12 -9q2 -5 -4 -14q-37 -37 -74 -37q-24 0 -63 31t-51 31q-13 0 -31 -11z" />
    <glyph glyph-name="uni1EE1" unicode="&#x1ee1;" 
d="M506 113q3 -13 -8 -19q-88 -33 -230 -33q-90 0 -143 9q3 -33 -16 -64t-50 -31q-50 0 -41 64q9 69 56 96l10 6l4 -2h4q7 0 12 -6t5 -12q0 -9 -9 -12q-37 -15 -49 -70q-6 -37 12 -37q16 0 25 25q9 24 6 53q-3 11 4 18q4 4 13 4h4q18 6 26 27q4 18 -10 37q-3 11 8 22
q5 5 11 5q3 0 6 -3q25 -28 12 -67q-6 -17 -16 -27q49 -8 116 -8q133 0 221 33h7q7 0 10 -8zM47 270q-6 -6 -12 -6t-10 4q-6 10 0 19q22 22 53 22q20 0 55 -30q36 -31 55 -31q30 0 56 26q5 5 10 5h4q9 -3 12 -9q2 -5 -4 -14q-37 -37 -73 -37q-25 0 -64 31t-51 31
q-13 0 -31 -11z" />
    <glyph glyph-name="uni1EE2" unicode="&#x1ee2;" horiz-adv-x="1294" 
d="M1225 791q-8 -35 -45 -46q43 -73 43 -172q0 -280 -211 -473q-210 -192 -535 -192q-183 0 -303.5 124t-120.5 308q0 161 74.5 310t194.5 255t275.5 169t313.5 63q50 0 86 -4q10 0 13 -9q3 -8 0 -14t-13 -6q-36 4 -79 4q-153 0 -302.5 -61t-265 -162.5t-187 -245.5
t-71.5 -299q0 -171 114.5 -287t285.5 -116q312 0 514 184t202 450q0 68 -26 132t-80.5 108.5t-124.5 44.5q-172 0 -285 -68t-196 -223l-15 -2q-3 -6 -10 -6q-6 0 -8 2q-11 6 -8 16q89 162 205.5 237t300.5 75q107 0 184 -92q7 -7 20 -29q24 10 29 33q7 20 -12 41q-3 13 8 24
q6 6 14 6q2 0 6 -4q27 -30 15 -75zM539 -170l-58 -16q-20 0 -20 18q0 9 10 12l59 15q10 0 14.5 -2.5t4.5 -12.5q3 -11 -10 -14z" />
    <glyph glyph-name="uni1EE3" unicode="&#x1ee3;" 
d="M506 113q3 -13 -8 -19q-88 -33 -230 -33q-90 0 -143 9q3 -33 -16 -64t-50 -31q-50 0 -41 64q9 69 56 96l10 6l4 -2h4q7 0 12 -6t5 -12q0 -9 -9 -12q-37 -15 -49 -70q-6 -37 12 -37q16 0 25 25q9 24 6 53q-3 11 4 18q4 4 13 4h4q18 6 26 27q4 18 -10 37q-3 11 8 22
q5 5 11 5q3 0 6 -3q25 -28 12 -67q-6 -17 -16 -27q49 -8 116 -8q133 0 221 33h7q7 0 10 -8zM96 -84l-57 -16q-21 0 -21 18q0 8 11 12l59 15q10 0 14 -2.5t4 -12.5q3 -11 -10 -14z" />
    <glyph glyph-name="uni1EE4" unicode="&#x1ee4;" horiz-adv-x="1525" 
d="M51 692v-2q0 -12 -14 -12t-14 12q0 32 65 141q36 59 81 123.5t108 139.5t125.5 133.5t133 97.5t130.5 39q88 0 88 -94q0 -58 -35 -147.5t-76 -161.5q-8 -13 -27 -46.5t-40.5 -70.5t-43.5 -74q-15 -27 -24 -39q-90 -157 -123 -217q-125 -234 -125 -352q0 -150 100 -150
q63 0 134.5 35.5t136 90t134.5 133t125.5 152.5t113 161.5t93 146t70.5 119.5q71 147 156 297q5 8 14 8q10 0 13 -6t0 -14q-59 -121 -142 -265q-225 -464 -225 -684q0 -80 45.5 -127t124.5 -47q197 0 430 109q4 2 8 2t6 -2q7 -3 7 -12t-7 -13q-233 -112 -442 -112
q-92 0 -146.5 54t-54.5 146q0 157 125 465q-422 -667 -714 -667q-129 0 -129 178q0 70 43 180q56 146 208 405q170 296 207 394q29 82 29 129q0 65 -59 65q-64 0 -148 -54t-145 -115t-109 -122q-62 -79 -136.5 -192.5t-74.5 -157.5zM418 -102l-58 -17q-20 0 -20 19
q0 9 10 12l60 14q10 0 14 -2t4 -12q3 -11 -10 -14z" />
    <glyph glyph-name="uni1EE5" unicode="&#x1ee5;" horiz-adv-x="503" 
d="M66 150h-3q3 6 11 6q7 0 10 -6t0 -13q-15 -30 -21 -67q-6 -36 9 -45q60 0 121 88q7 10 16 10t14 -10q47 -68 111 -68q41 0 109.5 23.5t107.5 48.5q8 4 14 4h4q11 -4 11 -10t-9 -15q-36 -30 -111.5 -56t-123.5 -26q-76 0 -129 68q-21 -30 -60.5 -57t-70.5 -27
q-22 0 -31 18t-6 43q5 37 27 91zM143 -63l-57 -17q-20 0 -20 19q0 9 10 12l59 14q11 0 15 -2t4 -12q3 -11 -11 -14z" />
    <glyph glyph-name="uni1EE6" unicode="&#x1ee6;" horiz-adv-x="1525" 
d="M51 692v-2q0 -12 -14 -12t-14 12q0 32 65 141q36 59 81 123.5t108 139.5t125.5 133.5t133 97.5t130.5 39q88 0 88 -94q0 -58 -35 -147.5t-76 -161.5q-8 -13 -27 -46.5t-40.5 -70.5t-43.5 -74q-15 -27 -24 -39q-90 -157 -123 -217q-125 -234 -125 -352q0 -150 100 -150
q63 0 134.5 35.5t136 90t134.5 133t125.5 152.5t113 161.5t93 146t70.5 119.5q71 147 156 297q5 8 14 8q10 0 13 -6t0 -14q-59 -121 -142 -265q-225 -464 -225 -684q0 -80 45.5 -127t124.5 -47q197 0 430 109q4 2 8 2t6 -2q7 -3 7 -12t-7 -13q-233 -112 -442 -112
q-92 0 -146.5 54t-54.5 146q0 157 125 465q-422 -667 -714 -667q-129 0 -129 178q0 70 43 180q56 146 208 405q170 296 207 394q29 82 29 129q0 65 -59 65q-64 0 -148 -54t-145 -115t-109 -122q-62 -79 -136.5 -192.5t-74.5 -157.5zM1077 1397l2 -2q72 44 72 80q0 21 -21 24
h-8q-15 0 -18 -12q-3 -6 -12 -6h-9q-15 3 -12 12q6 23 19.5 30t39.5 7q50 -6 50 -53q0 -26 -28.5 -56.5t-57.5 -48.5q-2 0 -5 -1t-4 -1q-6 0 -10 5.5t-4 10.5q0 8 6 11z" />
    <glyph glyph-name="uni1EE7" unicode="&#x1ee7;" horiz-adv-x="503" 
d="M66 150h-3q3 6 11 6q7 0 10 -6t0 -13q-15 -30 -21 -67q-6 -36 9 -45q60 0 121 88q7 10 16 10t14 -10q47 -68 111 -68q41 0 109.5 23.5t107.5 48.5q8 4 14 4h4q11 -4 11 -10t-9 -15q-36 -30 -111.5 -56t-123.5 -26q-76 0 -129 68q-21 -30 -60.5 -57t-70.5 -27
q-22 0 -31 18t-6 43q5 37 27 91zM158 217l2 -2q71 44 71 80q0 21 -20 24h-8q-16 0 -19 -12q-3 -6 -12 -6h-8q-15 3 -12 12q6 23 19.5 30t39.5 7q49 -6 49 -53q0 -26 -28.5 -56t-57.5 -48q-2 0 -4.5 -1.5t-3.5 -1.5q-6 0 -10 6t-4 11q0 7 6 10z" />
    <glyph glyph-name="uni1EE8" unicode="&#x1ee8;" horiz-adv-x="1525" 
d="M1597 121q7 -3 7 -12t-7 -13q-233 -112 -442 -112q-92 0 -146.5 54t-54.5 146q0 157 125 465q-422 -667 -714 -667q-129 0 -129 178q0 70 43 180q56 146 208 405q170 296 207 394q29 82 29 129q0 65 -59 65q-64 0 -148 -54t-145 -115t-109 -122q-62 -79 -136.5 -192.5
t-74.5 -157.5v-2q0 -12 -14 -12t-14 12q0 32 65 141q36 59 81 123.5t108 139.5t125.5 133.5t133 97.5t130.5 39q88 0 88 -94q0 -58 -35 -147.5t-76 -161.5l-111 -191q-15 -27 -24 -39q-90 -157 -123 -217q-125 -234 -125 -352q0 -150 100 -150q63 0 134.5 35.5t136 90
t134.5 133t125.5 152.5t113 161.5t93 146t70.5 119.5q71 147 156 297q5 8 14 8h9q14 6 20 29q7 20 -12 41q-3 13 8 24q6 6 14 6q2 0 6 -4q27 -30 15 -75q-12 -40 -49 -46q-74 -147 -140 -260q-225 -464 -225 -684q0 -80 45.5 -127t124.5 -47q197 0 430 109q4 2 8 2t6 -2z
M1079 1374l-2 -2h-16q-6 3 -6 12q0 10 6 13q91 72 145 119q4 4 11 4q6 0 8 -4q10 -10 4 -19q-83 -71 -150 -123z" />
    <glyph glyph-name="uni1EE9" unicode="&#x1ee9;" horiz-adv-x="503" 
d="M569 121q11 -4 11 -10t-9 -15q-36 -30 -111.5 -56t-123.5 -26q-76 0 -129 68q-21 -30 -60.5 -57t-70.5 -27q-22 0 -31 18t-6 43q5 37 27 91h-3q3 6 11 6q7 0 10 -6t0 -13q-15 -30 -21 -67q-6 -36 9 -45q60 0 121 88q9 12 16 12q18 3 24 27q6 15 -10 36q-3 13 8 21
q6 6 13 6q2 0 6 -4q23 -25 10 -68q-9 -28 -33 -34q48 -64 107 -64q41 0 109.5 23.5t107.5 48.5q8 4 14 4h4zM147 209l-2 -2h-16q-6 3 -6 12t6 12q91 72 145 119q4 4 11 4q6 0 8 -4q10 -10 4 -18q-83 -70 -150 -123z" />
    <glyph glyph-name="uni1EEA" unicode="&#x1eea;" horiz-adv-x="1525" 
d="M1597 121q7 -3 7 -12t-7 -13q-233 -112 -442 -112q-92 0 -146.5 54t-54.5 146q0 157 125 465q-422 -667 -714 -667q-129 0 -129 178q0 70 43 180q56 146 208 405q170 296 207 394q29 82 29 129q0 65 -59 65q-64 0 -148 -54t-145 -115t-109 -122q-62 -79 -136.5 -192.5
t-74.5 -157.5v-2q0 -12 -14 -12t-14 12q0 32 65 141q36 59 81 123.5t108 139.5t125.5 133.5t133 97.5t130.5 39q88 0 88 -94q0 -58 -35 -147.5t-76 -161.5l-111 -191q-15 -27 -24 -39q-90 -157 -123 -217q-125 -234 -125 -352q0 -150 100 -150q63 0 134.5 35.5t136 90
t134.5 133t125.5 152.5t113 161.5t93 146t70.5 119.5q71 147 156 297q5 8 14 8h9q14 6 20 29q7 20 -12 41q-3 13 8 24q6 6 14 6q2 0 6 -4q27 -30 15 -75q-12 -40 -49 -46q-74 -147 -140 -260q-225 -464 -225 -684q0 -80 45.5 -127t124.5 -47q197 0 430 109q4 2 8 2t6 -2z
M993 1503l-2 -2q-10 10 -4 19q6 6 17 6l145 -96q9 -6 2 -19q-3 -8 -10 -8q-4 0 -6 2q-125 88 -142 98z" />
    <glyph glyph-name="uni1EEB" unicode="&#x1eeb;" horiz-adv-x="503" 
d="M569 121q11 -4 11 -10t-9 -15q-36 -30 -111.5 -56t-123.5 -26q-76 0 -129 68q-21 -30 -60.5 -57t-70.5 -27q-22 0 -31 18t-6 43q5 37 27 91h-3q3 6 11 6q7 0 10 -6t0 -13q-15 -30 -21 -67q-6 -36 9 -45q60 0 121 88q9 12 16 12q18 3 24 27q6 15 -10 36q-3 13 8 21
q6 6 13 6q2 0 6 -4q23 -25 10 -68q-9 -28 -33 -34q48 -64 107 -64q41 0 109.5 23.5t107.5 48.5q8 4 14 4h4zM14 324l-2 -2q-10 10 -4 18q6 6 17 6l145 -96q9 -6 2 -19q-3 -8 -10 -8q-4 0 -6 2q-135 95 -142 99z" />
    <glyph glyph-name="uni1EEC" unicode="&#x1eec;" horiz-adv-x="1525" 
d="M1597 121q7 -3 7 -12t-7 -13q-233 -112 -442 -112q-92 0 -146.5 54t-54.5 146q0 157 125 465q-422 -667 -714 -667q-129 0 -129 178q0 70 43 180q56 146 208 405q170 296 207 394q29 82 29 129q0 65 -59 65q-64 0 -148 -54t-145 -115t-109 -122q-62 -79 -136.5 -192.5
t-74.5 -157.5v-2q0 -12 -14 -12t-14 12q0 32 65 141q36 59 81 123.5t108 139.5t125.5 133.5t133 97.5t130.5 39q88 0 88 -94q0 -58 -35 -147.5t-76 -161.5l-111 -191q-15 -27 -24 -39q-90 -157 -123 -217q-125 -234 -125 -352q0 -150 100 -150q63 0 134.5 35.5t136 90
t134.5 133t125.5 152.5t113 161.5t93 146t70.5 119.5q71 147 156 297q5 8 14 8h9q14 6 20 29q7 20 -12 41q-3 13 8 24q6 6 14 6q2 0 6 -4q27 -30 15 -75q-12 -40 -49 -46q-74 -147 -140 -260q-225 -464 -225 -684q0 -80 45.5 -127t124.5 -47q197 0 430 109q4 2 8 2t6 -2z
M1077 1397l2 -2q72 44 72 80q0 21 -21 24h-8q-15 0 -18 -12q-3 -6 -12 -6h-9q-15 3 -12 12q6 23 19.5 30t39.5 7q50 -6 50 -53q0 -26 -28.5 -56.5t-57.5 -48.5q-2 0 -5 -1t-4 -1q-6 0 -10 5.5t-4 10.5q0 8 6 11z" />
    <glyph glyph-name="uni1EED" unicode="&#x1eed;" horiz-adv-x="503" 
d="M569 121q11 -4 11 -10t-9 -15q-36 -30 -111.5 -56t-123.5 -26q-76 0 -129 68q-21 -30 -60.5 -57t-70.5 -27q-22 0 -31 18t-6 43q5 37 27 91h-3q3 6 11 6q7 0 10 -6t0 -13q-15 -30 -21 -67q-6 -36 9 -45q60 0 121 88q9 12 16 12q18 3 24 27q6 15 -10 36q-3 13 8 21
q6 6 13 6q2 0 6 -4q23 -25 10 -68q-9 -28 -33 -34q48 -64 107 -64q41 0 109.5 23.5t107.5 48.5q8 4 14 4h4zM133 231l2 -2q72 44 72 80q0 22 -21 25h-8q-15 0 -18 -12q-4 -7 -13 -7h-8q-15 3 -12 13q6 23 19.5 30t39.5 7q50 -6 50 -54q0 -26 -28.5 -56t-57.5 -48q-2 0 -5 -1
t-4 -1q-6 0 -10 5.5t-4 10.5q0 7 6 10z" />
    <glyph glyph-name="uni1EEE" unicode="&#x1eee;" horiz-adv-x="1525" 
d="M1597 121q7 -3 7 -12t-7 -13q-233 -112 -442 -112q-92 0 -146.5 54t-54.5 146q0 157 125 465q-422 -667 -714 -667q-129 0 -129 178q0 70 43 180q56 146 208 405q170 296 207 394q29 82 29 129q0 65 -59 65q-64 0 -148 -54t-145 -115t-109 -122q-62 -79 -136.5 -192.5
t-74.5 -157.5v-2q0 -12 -14 -12t-14 12q0 32 65 141q36 59 81 123.5t108 139.5t125.5 133.5t133 97.5t130.5 39q88 0 88 -94q0 -58 -35 -147.5t-76 -161.5l-111 -191q-15 -27 -24 -39q-90 -157 -123 -217q-125 -234 -125 -352q0 -150 100 -150q63 0 134.5 35.5t136 90
t134.5 133t125.5 152.5t113 161.5t93 146t70.5 119.5q71 147 156 297q5 8 14 8h9q14 6 20 29q7 20 -12 41q-3 13 8 24q6 6 14 6q2 0 6 -4q27 -30 15 -75q-12 -40 -49 -46q-74 -147 -140 -260q-225 -464 -225 -684q0 -80 45.5 -127t124.5 -47q197 0 430 109q4 2 8 2t6 -2z
M1010 1421q-6 -6 -13 -6q-6 0 -10 4q-6 9 0 19q22 22 53 22q22 0 56 -30q36 -31 55 -31q29 0 55 26q5 5 11 5h4q9 -3 12 -9q2 -5 -4 -14q-37 -37 -74 -37q-24 0 -63 31t-52 31q-12 0 -30 -11z" />
    <glyph glyph-name="uni1EEF" unicode="&#x1eef;" horiz-adv-x="503" 
d="M569 121q11 -4 11 -10t-9 -15q-36 -30 -111.5 -56t-123.5 -26q-76 0 -129 68q-21 -30 -60.5 -57t-70.5 -27q-22 0 -31 18t-6 43q5 37 27 91h-3q3 6 11 6q7 0 10 -6t0 -13q-15 -30 -21 -67q-6 -36 9 -45q60 0 121 88q9 12 16 12q18 3 24 27q6 15 -10 36q-3 13 8 21
q6 6 13 6q2 0 6 -4q23 -25 10 -68q-9 -28 -33 -34q48 -64 107 -64q41 0 109.5 23.5t107.5 48.5q8 4 14 4h4zM78 293q-6 -6 -12 -6q-7 0 -11 4q-6 9 0 18q23 23 54 23q19 0 55 -31t55 -31q28 0 55 27q4 4 11 4h4q10 -3 12 -8t-4 -14q-37 -37 -74 -37q-25 0 -63 30
q-39 31 -51 31q-14 0 -31 -10z" />
    <glyph glyph-name="uni1EF0" unicode="&#x1ef0;" horiz-adv-x="1525" 
d="M1597 121q7 -3 7 -12t-7 -13q-233 -112 -442 -112q-92 0 -146.5 54t-54.5 146q0 157 125 465q-422 -667 -714 -667q-129 0 -129 178q0 70 43 180q56 146 208 405q170 296 207 394q29 82 29 129q0 65 -59 65q-64 0 -148 -54t-145 -115t-109 -122q-62 -79 -136.5 -192.5
t-74.5 -157.5v-2q0 -12 -14 -12t-14 12q0 32 65 141q36 59 81 123.5t108 139.5t125.5 133.5t133 97.5t130.5 39q88 0 88 -94q0 -58 -35 -147.5t-76 -161.5l-111 -191q-15 -27 -24 -39q-90 -157 -123 -217q-125 -234 -125 -352q0 -150 100 -150q63 0 134.5 35.5t136 90
t134.5 133t125.5 152.5t113 161.5t93 146t70.5 119.5q71 147 156 297q5 8 14 8h9q14 6 20 29q7 20 -12 41q-3 13 8 24q6 6 14 6q2 0 6 -4q27 -30 15 -75q-12 -40 -49 -46q-74 -147 -140 -260q-225 -464 -225 -684q0 -80 45.5 -127t124.5 -47q197 0 430 109q4 2 8 2t6 -2z
M418 -102l-58 -17q-20 0 -20 19q0 9 10 12l60 14q10 0 14 -2t4 -12q3 -11 -10 -14z" />
    <glyph glyph-name="uni1EF1" unicode="&#x1ef1;" horiz-adv-x="503" 
d="M569 121q11 -4 11 -10t-9 -15q-36 -30 -111.5 -56t-123.5 -26q-76 0 -129 68q-21 -30 -60.5 -57t-70.5 -27q-22 0 -31 18t-6 43q5 37 27 91h-3q3 6 11 6q7 0 10 -6t0 -13q-15 -30 -21 -67q-6 -36 9 -45q60 0 121 88q9 12 16 12q18 3 24 27q6 15 -10 36q-3 13 8 21
q6 6 13 6q2 0 6 -4q23 -25 10 -68q-9 -28 -33 -34q48 -64 107 -64q41 0 109.5 23.5t107.5 48.5q8 4 14 4h4zM143 -63l-57 -17q-20 0 -20 19q0 9 10 12l59 14q11 0 15 -2t4 -12q3 -11 -11 -14z" />
    <glyph glyph-name="Ygrave" unicode="&#x1ef2;" horiz-adv-x="1040" 
d="M307 1210q4 4 8 4q5 0 9 -4q12 -9 6 -18q-99 -153 -171.5 -358.5t-72.5 -368.5q0 -35 9.5 -72.5t35 -69.5t62.5 -32q160 0 409 254q215 221 447 510q5 5 32 43q3 6 11 6q7 0 10 -6t0 -15q-398 -488 -451 -1278q0 -9 -6 -12t-12 0t-6 12q38 599 286 1041
q-226 -272 -403 -426q-178 -156 -313 -156q-46 0 -79 36t-46 81.5t-13 89.5q0 164 74 376t174 363zM778 1305q-131 92 -141 98l-2 -2q-10 10 -4 18q6 6 16 6l146 -96q8 -5 2 -18q-3 -8 -11 -8q-4 0 -6 2z" />
    <glyph glyph-name="ygrave" unicode="&#x1ef3;" horiz-adv-x="655" 
d="M715 123l-4 -2h4q11 0 14 -10q4 -14 -8 -17q-226 -54 -383 -110v-17q0 -84 -35 -160.5t-103 -126t-153 -49.5q-39 0 -66.5 25.5t-27.5 64.5q0 152 354 281q-6 39 -28 39q-21 0 -68 -12q-50 -13 -74 -13q-103 0 -88 101q3 10 17 10q13 0 10 -14q-12 -68 59 -68q23 0 70 12
q50 13 74 13q40 0 55 -58q150 52 381 111zM45 -342v-2q114 0 188 95.5t74 213.5v6q-327 -119 -327 -252q0 -27 19 -44t46 -17zM121 303l-2 -2q-10 10 -4 18q7 7 16 7l145 -97q9 -6 3 -18q-3 -8 -11 -8q-4 0 -6 2q-131 92 -141 98z" />
    <glyph glyph-name="uni1EF4" unicode="&#x1ef4;" horiz-adv-x="1040" 
d="M307 1210q4 4 8 4q5 0 9 -4q12 -9 6 -18q-99 -153 -171.5 -358.5t-72.5 -368.5q0 -35 9.5 -72.5t35 -69.5t62.5 -32q160 0 409 254q215 221 447 510q5 5 32 43q3 6 11 6q7 0 10 -6t0 -15q-398 -488 -451 -1278q0 -9 -6 -12t-12 0t-6 12q38 599 286 1041
q-226 -272 -403 -426q-178 -156 -313 -156q-46 0 -79 36t-46 81.5t-13 89.5q0 164 74 376t174 363zM254 201q3 -12 -10 -15l-58 -16q-20 0 -20 18q0 10 10 13l60 14q11 0 14.5 -2t3.5 -12z" />
    <glyph glyph-name="uni1EF5" unicode="&#x1ef5;" horiz-adv-x="655" 
d="M715 123l-4 -2h4q11 0 14 -10q4 -14 -8 -17q-226 -54 -383 -110v-17q0 -84 -35 -160.5t-103 -126t-153 -49.5q-39 0 -66.5 25.5t-27.5 64.5q0 152 354 281q-6 39 -28 39q-21 0 -68 -12q-50 -13 -74 -13q-103 0 -88 101q3 10 17 10q13 0 10 -14q-12 -68 59 -68q23 0 70 12
q50 13 74 13q40 0 55 -58q150 52 381 111zM45 -342v-2q114 0 188 95.5t74 213.5v6q-327 -119 -327 -252q0 -27 19 -44t46 -17zM166 -39l-57 -16q-21 0 -21 18q0 9 10 12l60 15q10 0 14 -2.5t4 -12.5q3 -11 -10 -14z" />
    <glyph glyph-name="uni1EF6" unicode="&#x1ef6;" horiz-adv-x="1040" 
d="M307 1210q4 4 8 4q5 0 9 -4q12 -9 6 -18q-99 -153 -171.5 -358.5t-72.5 -368.5q0 -35 9.5 -72.5t35 -69.5t62.5 -32q160 0 409 254q215 221 447 510q5 5 32 43q3 6 11 6q7 0 10 -6t0 -15q-398 -488 -451 -1278q0 -9 -6 -12t-12 0t-6 12q38 599 286 1041
q-226 -272 -403 -426q-178 -156 -313 -156q-46 0 -79 36t-46 81.5t-13 89.5q0 164 74 376t174 363zM698 1300q0 8 7 11l2 -2q71 44 71 80q0 21 -20 24h-8q-16 0 -19 -12q-3 -6 -12 -6h-8q-8 2 -11 5t-2 7q6 23 19.5 30t40.5 7q49 -6 49 -53q0 -26 -28.5 -56.5t-57.5 -48.5
q-2 0 -4.5 -1t-3.5 -1q-6 0 -10.5 5.5t-4.5 10.5z" />
    <glyph glyph-name="uni1EF7" unicode="&#x1ef7;" horiz-adv-x="655" 
d="M715 123l-4 -2h4q11 0 14 -10q4 -14 -8 -17q-226 -54 -383 -110v-17q0 -84 -35 -160.5t-103 -126t-153 -49.5q-39 0 -66.5 25.5t-27.5 64.5q0 152 354 281q-6 39 -28 39q-21 0 -68 -12q-50 -13 -74 -13q-103 0 -88 101q3 10 17 10q13 0 10 -14q-12 -68 59 -68q23 0 70 12
q50 13 74 13q40 0 55 -58q150 52 381 111zM45 -342v-2q114 0 188 95.5t74 213.5v6q-327 -119 -327 -252q0 -27 19 -44t46 -17zM223 217l2 -2q72 44 72 80q0 21 -21 24h-8q-15 0 -18 -12q-3 -6 -12 -6h-9q-15 3 -12 12q6 23 19.5 30t39.5 7q50 -6 50 -53q0 -26 -28.5 -56
t-57.5 -48q-2 0 -5 -1.5t-4 -1.5q-6 0 -10 6t-4 11q0 7 6 10z" />
    <glyph glyph-name="uni1EF8" unicode="&#x1ef8;" horiz-adv-x="1040" 
d="M307 1210q4 4 8 4q5 0 9 -4q12 -9 6 -18q-99 -153 -171.5 -358.5t-72.5 -368.5q0 -35 9.5 -72.5t35 -69.5t62.5 -32q160 0 409 254q215 221 447 510q5 5 32 43q3 6 11 6q7 0 10 -6t0 -15q-398 -488 -451 -1278q0 -9 -6 -12t-12 0t-6 12q38 599 286 1041
q-226 -272 -403 -426q-178 -156 -313 -156q-46 0 -79 36t-46 81.5t-13 89.5q0 164 74 376t174 363zM653 1346q-12 0 -30 -11q-6 -6 -13 -6q-6 0 -10 4q-6 9 0 19q22 22 53 22q20 0 56 -31q35 -30 55 -30q29 0 55 26q4 4 10 4h5q10 -3 12 -8t-4 -14q-37 -37 -74 -37
q-24 0 -63 31t-52 31z" />
    <glyph glyph-name="uni1EF9" unicode="&#x1ef9;" horiz-adv-x="655" 
d="M715 123l-4 -2h4q11 0 14 -10q4 -14 -8 -17q-226 -54 -383 -110v-17q0 -84 -35 -160.5t-103 -126t-153 -49.5q-39 0 -66.5 25.5t-27.5 64.5q0 152 354 281q-6 39 -28 39q-21 0 -68 -12q-50 -13 -74 -13q-103 0 -88 101q3 10 17 10q13 0 10 -14q-12 -68 59 -68q23 0 70 12
q50 13 74 13q40 0 55 -58q150 52 381 111zM45 -342v-2q114 0 188 95.5t74 213.5v6q-327 -119 -327 -252q0 -27 19 -44t46 -17zM139 242q-6 -6 -12 -6t-10 4q-6 9 0 18q23 23 53 23q19 0 55 -31t56 -31q28 0 55 27q4 4 10 4h4q10 -3 12 -8q3 -5 -4 -15q-37 -37 -73 -37
q-25 0 -64 31t-51 31q-14 0 -31 -10z" />
    <glyph glyph-name="endash" unicode="&#x2013;" horiz-adv-x="577" 
d="M416 168h-273q-14 0 -14 14q0 15 12 15h275q12 0 12 -15q0 -14 -12 -14z" />
    <glyph glyph-name="emdash" unicode="&#x2014;" horiz-adv-x="741" 
d="M606 174l-463 -6q-14 0 -14 14q0 15 12 15l465 6q12 0 12 -15q0 -14 -12 -14z" />
    <glyph glyph-name="quoteleft" unicode="&#x2018;" horiz-adv-x="516" 
d="M236 936l55 201q3 6 10 6h6q13 -3 10 -19l-53 -200q-3 -9 -12 -9q-7 0 -14 7q-5 5 -2 14z" />
    <glyph glyph-name="quoteright" unicode="&#x2019;" horiz-adv-x="516" 
d="M260 1137l55 -203q3 -9 -2 -14q-7 -7 -14 -7q-8 0 -12 11l-54 200q-3 15 11 19h6q7 0 10 -6z" />
    <glyph glyph-name="quotesinglbase" unicode="&#x201a;" horiz-adv-x="516" 
d="M215 -76l53 166q3 6 11 6h6q13 -3 10 -18l-51 -166q-3 -8 -13 -8q-8 0 -14 6q-5 5 -2 14z" />
    <glyph glyph-name="quotedblleft" unicode="&#x201c;" horiz-adv-x="593" 
d="M238 971l53 166q3 6 10 6h6q13 -3 10 -19l-51 -166q-3 -8 -12 -8q-8 0 -14 6q-5 5 -2 15zM297 909l76 230q6 8 18 8q13 -3 10 -17l-75 -233q-3 -8 -13 -8q-8 0 -14 6q-5 5 -2 14z" />
    <glyph glyph-name="quotedblright" unicode="&#x201d;" horiz-adv-x="593" 
d="M223 1126l53 -168q3 -9 -2 -14q-6 -6 -14 -6q-9 0 -12 10l-51 166q-3 16 10 19h6q7 0 10 -7zM309 1141l76 -232q3 -9 -2 -14q-6 -6 -14 -6q-10 0 -13 10l-75 234q-3 13 10 16q12 0 18 -8z" />
    <glyph glyph-name="quotedblbase" unicode="&#x201e;" horiz-adv-x="593" 
d="M172 -82l53 166q3 6 11 6h6q13 -3 10 -18l-51 -166q-3 -8 -13 -8q-8 0 -14 6q-5 5 -2 14zM231 -143l76 229q6 8 19 8q13 -3 10 -16l-76 -234q-3 -8 -12 -8t-15 6q-5 5 -2 15z" />
    <glyph glyph-name="bullet" unicode="&#x2022;" horiz-adv-x="1122" 
d="M512 389h6q-77 0 -86 70t49 116q35 27 74 27q71 0 80 -67q12 -71 -43 -117q-37 -29 -80 -29z" />
    <glyph glyph-name="ellipsis" unicode="&#x2026;" horiz-adv-x="1167" 
d="M207 4l-45 -4q-9 0 -12 6t0 12q4 7 12 7l39 6h4q11 0 14 -13q3 -14 -12 -14zM590 6l-45 -4q-10 0 -13 6t0 12q4 7 13 7l39 6h4q11 0 14 -13q3 -14 -12 -14zM973 8l-45 -4q-10 0 -13 6t0 13q3 6 13 6l39 6h4q11 0 14 -12q3 -15 -12 -15z" />
    <glyph glyph-name="perthousand" unicode="&#x2030;" horiz-adv-x="821" 
d="M602 512l-342 -541q-9 -6 -14 -6q-6 0 -8 2q-9 6 0 21l340 536q3 8 12 8t12 -6t0 -14zM477 152l31 55q7 10 12 10q7 0 10 -6t0 -12l-28 -62q-5 -8 -13 -8q-6 0 -8 2q-13 6 -4 21zM233 213l48 51q6 6 14 6q9 0 12 -6t-4 -16l-47 -51q-7 -7 -14 -7q-10 0 -13 7q-3 6 4 16z
M602 139l19 64q3 6 10 6h6q13 -3 10 -14l-16 -62q-3 -6 -13 -6h-6q-13 3 -10 12z" />
    <glyph glyph-name="guilsinglleft" unicode="&#x2039;" horiz-adv-x="440" 
d="M154 211l47 84q6 6 12 6q4 0 6 -2q9 -6 6 -16l-47 -80q2 -3 5.5 -7t8.5 -9.5t9 -10.5q10 -12 24 -26q7 -10 -2 -19q-4 -4 -8 -4q-2 0 -10 4l-51 55q-9 9 0 25z" />
    <glyph glyph-name="guilsinglright" unicode="&#x203a;" horiz-adv-x="440" 
d="M201 221l-51 92q-4 11 8 17q2 2 8 2q7 0 10 -6l47 -90q6 -15 0 -27l-49 -84q-3 -6 -10 -6q-6 0 -12 6q-5 5 -2 12z" />
    <glyph glyph-name="fraction" unicode="&#x2044;" horiz-adv-x="495" 
d="M-41 -100l604 915q3 8 12 8q10 0 13 -6t0 -16l-602 -916q-5 -8 -15 -8q-9 0 -12 6q-3 7 0 17z" />
    <glyph glyph-name="Euro" unicode="&#x20ac;" horiz-adv-x="970" 
d="M111 477l-13 -2q-10 0 -16 6t-2 13t12 10q60 13 125 20q51 58 124 121t158 122t176.5 96.5t164.5 37.5q76 0 116 -43q12 -12 -4 -24h-4q-8 0 -12 4q-34 34 -96 34q-91 0 -209 -60t-210.5 -135t-162.5 -151q91 9 221 9q13 0 17 -7q3 -6 0 -12t-13 -6q-137 0 -250 -10
q-35 -41 -61 -80q117 20 217 20q9 0 12 -6t0 -12t-12 -6q-86 0 -239 -25q-80 -127 -80 -227q0 -49 33 -81t81 -32q216 0 518 123q4 2 9 2q7 0 10 -12q-3 -9 -8 -14q-304 -127 -531 -127q-62 0 -102.5 38.5t-40.5 100.5q0 100 74 221q-3 -1 -15.5 -3.5t-21.5 -4.5t-21.5 -4.5
t-15.5 -3.5q-12 0 -12 12q0 13 10 16l31 6q3 1 36 7q5 1 15.5 3t15.5 3q11 15 62 80q-16 -2 -47.5 -9t-38.5 -8z" />
    <glyph glyph-name="trademark" unicode="&#x2122;" horiz-adv-x="1167" 
d="M133 965l2 -11q-20 0 -20 17q0 6 4 10q168 76 483 76q59 0 189 -10q30 -3 24 -31q-5 -16 -24 -105q44 86 94 86q43 0 28 -94q-5 -31 -7.5 -52.5t-2.5 -31t2 -10.5q15 0 74 53q69 60 94 60q57 0 27 -105q-21 -75 -66 -127q-4 -4 -8 -4q-2 0 -10 4q-10 10 0 23q22 25 43 71
t24 78t-8 35q-14 0 -74 -51q-65 -62 -98 -62q-34 0 -22 97q4 30 6 53t2.5 32t-0.5 11q-60 0 -113 -201q-4 -10 -18 -10q-16 3 -13 14q0 104 43 246q-110 10 -184 10q-300 0 -471 -71zM444 997l2 -2q0 9 7 13q6 3 12 0t6 -11q0 -165 -47 -274q-6 -6 -12 -6q-8 0 -11 6t0 12
q43 93 43 262z" />
    <glyph glyph-name="minus" unicode="&#x2212;" horiz-adv-x="561" 
d="M389 168h-207q-14 0 -14 14q0 15 12 15h209q12 0 12 -15q0 -14 -12 -14z" />
    <glyph glyph-name="CR" horiz-adv-x="516" 
 />
    <glyph glyph-name="s_init" horiz-adv-x="598" 
d="M438 182v-2q10 0 13 -6t0 -12t-13 -6h-12q-55 0 -55 -25q0 -7 16 -33q25 -36 25 -57q0 -84 -162 -84q-54 0 -120.5 16t-88.5 47q-9 12 6 21h4q9 0 12 -6q19 -26 79 -38.5t108 -12.5q133 0 133 55q0 17 -21 41q-20 33 -20 49q0 53 96 53z" />
    <glyph glyph-name="percent" horiz-adv-x="755" 
d="M602 512l-342 -541q-9 -6 -14 -6q-6 0 -8 2q-9 6 0 21l340 536q3 8 12 8t12 -6t0 -14zM477 152l31 55q7 10 12 10q7 0 10 -6t0 -12l-28 -62q-5 -8 -13 -8q-6 0 -8 2q-13 6 -4 21zM233 213l48 51q6 6 14 6q9 0 12 -6t-4 -16l-47 -51q-7 -7 -14 -7q-10 0 -13 7q-3 6 4 16z
" />
    <glyph glyph-name="r_init" horiz-adv-x="684" 
d="M115 166l-13 4q0 9 15 12h4q10 0 10 -12q0 -26 25 -35q16 -4 26 -4q18 0 39 6h6q10 0 13 -6q6 -10 -2 -18q-21 -30 -21 -74q0 -19 19.5 -30t39.5 -11q108 0 239 36t216 93q2 2 8 2q8 0 11 -8q6 -13 -2 -21q-89 -60 -222.5 -98.5t-244.5 -38.5q-32 0 -58 19.5t-26 50.5
q0 24 16 67q-10 -2 -27 -2q-39 0 -59 23q-28 -66 -100 -115q-1 0 -3.5 -1t-3.5 -1q-6 0 -10 5.5t-4 10.5q0 8 6 11q91 60 103 135z" />
  </font>
</defs>
</svg>
